<?xml version="1.0" encoding="UTF-8"?>
<svg id="Camada_2" data-name="Camada 2" xmlns="http://www.w3.org/2000/svg" viewBox="0 0 23.01 23.04">
  <defs>
    <style>
      .cls-1 {
        fill: #4daf50;
      }

      .cls-1, .cls-2 {
        stroke-width: 0px;
      }

      .cls-2 {
        fill: #fbfbfb;
      }
    </style>
  </defs>
  <g id="Camada_1-2" data-name="Camada 1">
    <g>
      <path class="cls-1" d="m2.31,0h18.41c.32.07.65.05.95.22.54.3.94.73,1.2,1.29.11.25.08.53.14.79v18.43c-.06.32-.04.66-.22.95-.38.63-.87,1.12-1.61,1.3-.25.06-.5.07-.76.07-5.96,0-11.92,0-17.89,0-1.13,0-1.89-.55-2.38-1.53-.15-.3-.16-.63-.16-.94C0,14.53,0,8.49,0,2.45,0,1.37.56.64,1.48.16c.26-.13.55-.1.83-.16Z"/>
      <path class="cls-2" d="m7.26,10.56c.35,0,.58.11.78.31.74.75,1.5,1.49,2.23,2.24.13.13.19.14.33,0,1.78-1.79,3.56-3.57,5.35-5.36.39-.39.92-.43,1.32-.11.41.34.48.93.14,1.34-.06.08-.13.14-.2.21-1.99,1.99-3.98,3.98-5.97,5.98-.55.55-1.05.55-1.59,0-.99-1-1.99-1.99-2.98-2.99-.53-.54-.31-1.39.39-1.6.08-.03.18-.03.2-.04Z"/>
    </g>
  </g>
</svg>