<?xml version="1.0" encoding="UTF-8"?>
<svg id="Camada_2" data-name="Camada 2" xmlns="http://www.w3.org/2000/svg" viewBox="0 0 23.01 23.04">
  <defs>
    <style>
      .cls-1 {
        fill: #fff;
      }

      .cls-1, .cls-2 {
        stroke-width: 0px;
      }

      .cls-2 {
        fill: #e0171e;
      }
    </style>
  </defs>
  <g id="Camada_1-2" data-name="Camada 1">
    <g>
      <path class="cls-2" d="m2.31,0h18.41c.32.07.65.05.95.22.54.3.94.73,1.2,1.29.11.25.08.53.14.79v18.43c-.06.32-.04.66-.22.95-.38.63-.87,1.12-1.61,1.3-.25.06-.5.07-.76.07-5.96,0-11.92,0-17.89,0-1.13,0-1.89-.55-2.38-1.53-.15-.3-.16-.63-.16-.94C0,14.53,0,8.49,0,2.45,0,1.37.56.64,1.48.16c.26-.13.55-.1.83-.16Z"/>
      <path class="cls-1" d="m11.52,12.98c-1.03,1.03-2.03,2.03-3.01,3.02-.49-.5-.98-.98-1.46-1.47.98-.98,1.98-1.98,2.99-2.99-1.03-1.03-2.02-2.03-3.01-3.02.5-.49.99-.98,1.48-1.46.97.97,1.97,1.98,2.99,3,1.04-1.04,2.04-2.04,3.02-3.02.5.49.98.97,1.47,1.46-.99.99-1.99,1.99-3,3,1.02,1.02,2.02,2.02,3.01,3.01-.5.5-.99.99-1.47,1.47-.98-.98-1.98-1.98-3-3Z"/>
    </g>
  </g>
</svg>