<?xml version="1.0" encoding="utf-8"?>
<!-- Generator: Adobe Illustrator 28.0.0, SVG Export Plug-In . SVG Version: 6.00 Build 0)  -->
<svg version="1.1" id="Camada_2_00000003801064578854953780000017564087191064612515_"
	 xmlns="http://www.w3.org/2000/svg" xmlns:xlink="http://www.w3.org/1999/xlink" x="0px" y="0px" viewBox="0 0 357.3 379.3"
	 style="enable-background:new 0 0 357.3 379.3;" xml:space="preserve">
<style type="text/css">
	.st0{fill:#FFFFFF;}
	.st1{fill:#ED721B;}
</style>
<g>
	<path class="st0" d="M10.1,264.2c1.1-6,1.8-12.1,3.3-18c8.8-34.3,28.8-59.6,60.8-75.1c3.6-1.8,6.1-1.8,9.6,0.7
		c28.5,20.3,66.8,20,95.1-0.7c2.6-1.9,4.5-2.3,7.3-0.8c6.1,3.4,12.3,6.6,19,10.3c-6.3,4.4-11.8,8.3-17.3,12.2
		c-6.9,4.9-7.9,10.8-3.2,17.8c2.3,3.4,4.6,6.7,6.8,10.1c0.4,0.7,0.8,2.1,0.4,2.5c-0.5,0.6-1.8,1-2.6,0.9c-4.2-0.6-8.4-1.5-12.6-2.2
		c-7.1-1.2-12.3,2.5-13.6,9.5c-1.6,8.8-3.2,17.7-4.7,26.5c-0.4,2.4-0.9,4.7-1.3,7.1c-1,7.2,2.6,12.1,9.7,13.5
		c3.9,0.7,7.8,1.3,11.6,2.2c1,0.2,2.1,1.1,2.5,1.9c0.2,0.6-0.7,1.9-1.4,2.4c-3.4,2.6-7,5-10.4,7.6c-5.6,4.2-6.6,10.4-2.8,16.2
		c3.4,5.1,6.8,10.1,10.5,15.6c-36,0-71.4,0-106.3,0c0-10.3,0.1-20.6,0-30.9c0-3.2-2.3-5.2-5.3-5.2c-2.8,0-5,2-5.1,5
		c-0.1,9.4,0,18.9,0,28.3c0,0.8,0.3,1.7,0.6,3.2c-17,0-33.9,0-50.7,0C10.1,304.6,10.1,284.4,10.1,264.2z"/>
	<path class="st1" d="M255.8,358.4c-7.6-1.5-15.2-3.1-22.8-4.6c-2.7-0.5-5.4-1-8.1-1.4c-2.4-0.4-3.4-1.6-2.9-4.1
		c1.1-5.6,1.9-11.2,3-16.8c0.6-2.7-0.3-4.4-2.6-5.7c-1.8-1-3.7-2-5.3-3.3c-2.5-2.1-4.6-1.8-7.1,0c-4.4,3.1-8.9,6-13.3,9.2
		c-2.1,1.5-3.4,1.6-5-0.8c-5.8-8.9-11.8-17.7-17.8-26.5c-1.5-2.2-1.2-3.4,0.8-4.8c4.5-3.1,8.9-6.5,13.4-9.6c2.3-1.6,3-3.5,2.2-6.2
		c-0.6-2-1-4.1-1.2-6.1c-0.3-2.8-1.7-4.3-4.5-4.8c-5.6-1-11.2-2.2-16.8-3.2c-2.1-0.4-2.5-1.3-2.1-3.1c2-10.9,3.9-21.8,5.8-32.7
		c0.5-2.6,1.8-3.5,4.4-2.9c5,1.1,10.1,1.9,15.2,2.9c3.2,0.7,5.6,0.2,6.9-3.2c0.5-1.4,1.4-2.8,2.4-3.9c2.8-3,2.2-5.7,0-8.8
		c-3.1-4.1-5.7-8.6-8.7-12.8c-1.4-1.9-1.3-3.2,0.7-4.6c8.8-6.1,17.6-12.2,26.4-18.4c2-1.4,3.4-1.3,4.8,0.9c3,4.7,6.3,9.2,9.4,13.9
		c1.5,2.2,3.2,3.1,5.9,2.1c1.2-0.5,2.6-0.6,3.8-0.8c6.5-1.2,6.5-1.1,7.6-7.8c0.8-4.5,1.7-9.1,2.4-13.6c0.4-2.6,1.5-3.6,4.2-3
		c10.2,2,20.5,3.8,30.7,5.6c2.9,0.5,3.7,1.8,3.1,4.8c-1.2,5.5-1.9,11-3,16.5c-0.5,2.6,0.4,4.2,2.7,5.4c1.7,0.9,3.6,1.8,5,3.1
		c2.7,2.4,5,1.9,7.6,0c5.2-3.7,10.5-7.1,16-10.8c2.7,4.1,5.3,7.9,7.8,11.7c3.8,5.7,7.6,11.6,11.6,17.2c1.7,2.4,1.2,3.8-1.1,5.3
		c-4.6,3.1-9,6.3-13.5,9.4c-2.2,1.5-2.9,3.3-2.1,5.9c0.6,2.1,0.9,4.3,1.2,6.5c0.4,2.7,1.8,4.2,4.7,4.6c5.1,0.8,10.1,1.8,15.2,2.8
		c4,0.8,4.6,1.6,3.9,5.6c-1.8,10.1-3.7,20.3-5.4,30.4c-0.5,3.1-2,3.8-4.8,3.3c-5.3-1-10.6-2-15.8-3c-2.6-0.5-4.4,0.2-5.6,2.7
		c-1,2.1-2.2,4-3.6,5.9c-1.6,2.1-1.5,3.9,0,6c3.2,4.7,6.3,9.5,9.6,14.2c1.5,2.1,1.4,3.4-0.8,4.9c-8.9,6.1-17.7,12.2-26.5,18.3
		c-1.9,1.3-3.1,1-4.3-0.8c-3.1-4.7-6.3-9.2-9.4-13.9c-1.5-2.4-3.4-3.2-6.1-2.4c-1.9,0.6-3.8,1-5.8,1.2c-3.1,0.3-4.7,1.9-5.2,4.9
		c-0.8,5.3-1.8,10.6-2.8,15.9c-0.3,1.3-1.2,2.4-1.9,3.6C257.6,358.4,256.7,358.4,255.8,358.4z M256.2,304.6
		c21,0.3,38.7-17.2,39-38.5c0.3-21.5-16.9-39.4-38.2-39.7c-20.9-0.3-38.5,17.1-38.9,38.6C217.7,286.5,234.9,304.3,256.2,304.6z"/>
	<path class="st0" d="M56.8,92.6C58.2,66,72.2,41,102.3,27.2C133.4,13,169.4,23.6,190,52c23.6,32.5,18.9,78.3-10.6,105.4
		c-34.3,31.4-88.5,22.5-111.9-18.4C60.3,126.4,56.7,112.9,56.8,92.6z"/>
	<path class="st0" d="M286.2,265.8c-0.1,16.3-13.5,29.9-29.7,29.9c-16,0-29.6-14-29.6-30.4c0.1-16.4,13.8-30.2,29.9-30.1
		C273,235.3,286.2,249.1,286.2,265.8z"/>
</g>
</svg>
