<?xml version="1.0" encoding="utf-8"?>
<!-- Generator: Adobe Illustrator 28.0.0, SVG Export Plug-In . SVG Version: 6.00 Build 0)  -->
<svg version="1.1" id="Camada_2_00000023273090545903234810000012539520935025325244_"
	 xmlns="http://www.w3.org/2000/svg" xmlns:xlink="http://www.w3.org/1999/xlink" x="0px" y="0px" viewBox="0 0 19.1 28.1"
	 style="enable-background:new 0 0 19.1 28.1;" xml:space="preserve">
<style type="text/css">
	.st0{fill:#3A3A3A;}
</style>
<g id="Camada_1-2">
	<path class="st0" d="M9.2,28.1c0-0.1-0.1-0.2-0.1-0.2c-2.1-3.5-4.2-7-6.2-10.6c-1.2-2.1-2.2-4.2-2.7-6.6C-0.1,9.5,0,8.3,0.3,7.1
		c0.8-2.8,2.4-4.8,5-6.1c2.6-1.3,5.3-1.4,7.9-0.3c2.5,1,4.2,2.8,5.2,5.3c0.5,1.3,0.8,2.6,0.6,4c-0.1,1.1-0.5,2.2-1,3.2
		c-0.6,1.2-1.3,2.5-2,3.7c-2.2,3.6-4.5,7.3-6.8,10.9C9.3,28,9.3,28.1,9.2,28.1L9.2,28.1L9.2,28.1z M15,9.3c0-3-2.5-5.5-5.5-5.5
		S4,6.3,4.1,9.3c0,3,2.4,5.5,5.5,5.5S15,12.3,15,9.3L15,9.3z"/>
</g>
</svg>
