<?xml version="1.0" encoding="UTF-8"?>
<svg id="Camada_2" data-name="Camada 2" xmlns="http://www.w3.org/2000/svg" viewBox="0 0 133.02 86.35">
  <defs>
    <style>
      .cls-1 {
        fill: #fff;
        stroke-width: 0px;
      }
    </style>
  </defs>
  <g id="Camada_1-2" data-name="Camada 1">
    <g>
      <path class="cls-1" d="m30.69,37.1c-.15-.11-.26-.17-.23-.4.35-2.52.23-5.03-.23-7.52-.05-.27-.01-.46.19-.67.88-.91,1.1-2.03.87-3.22-.27-1.45-1.01-2.61-2.48-3.06-1.44-.44-2.84-.03-3.62,1.2-.69,1.07-1.54,1.44-2.66,1.6-.35.05-.69.15-1.02.28-.37.14-.57.1-.77-.29-1.01-2.03-2.03-4.04-3.08-6.05-.2-.38-.14-.64.1-.94.52-.65,1.01-1.32,1.52-1.98.18-.24.36-.49.56-.72,1.8-2.04,1.84-4.23.62-6.57-1.32-2.52-2.59-5.06-3.88-7.59C16.01.04,15.79-.08,14.51.04c-.3.03-.6.07-.89.14-2.97.7-5.67,2.03-8.23,3.65-1.09.69-2.13,1.45-2.95,2.45-.51.62-.67,1.25-.2,2,.4.64.7,1.34,1.04,2.01.98,1.93,1.98,3.85,2.95,5.78,1.17,2.33,2.95,3.57,5.64,3.31.35-.03.76-.08,1.06-.09.83,0,1.66.02,2.5,0,.36-.01.54.13.69.43,1,2,2.01,4,3.05,5.98.19.37.12.5-.23.67-1.05.51-1.99,1.18-2.77,2.06-.96,1.08-1.59,2.27-1.23,3.78.08.33-.11.58-.23.85-.95,2.13-.7,3.68.88,5.3.17.18.24.35.3.58.3,1.29,1.04,2.27,2.15,2.98.25.16.48.31.62.62.78,1.7,2.25,2.44,4.01,2.7.55.08,1.09.17,1.61.35,1.15.38,2.26.32,3.17-.56.42-.41.5-.23.69.16.54,1.08,1.18,1.3,2.25.81,1.2-.54,1.52-1.32.85-2.45-.57-.97-.73-1.66.14-2.66,1.17-1.35.8-2.77-.66-3.77ZM14.7,2.85c.49-.23.72.13.91.52,1.23,2.41,2.46,4.82,3.69,7.23.08.15.13.32.17.41.03.38-.13.57-.37.68-.23.1-.46.05-.61-.15-.14-.17-.25-.37-.35-.57-1.2-2.34-2.4-4.68-3.6-7.02-.21-.41-.37-.83.16-1.09Zm-5.4,13.84c-.22.09-.46.08-.62-.11-.13-.15-.23-.33-.33-.5-1.21-2.37-2.43-4.74-3.64-7.11-.02-.04-.04-.09-.07-.13-.2-.35-.22-.7.16-.92.43-.25.71,0,.91.37.86,1.68,1.71,3.36,2.57,5.04.39.76.78,1.52,1.17,2.28.09.18.15.37.2.47,0,.34-.12.53-.35.63Zm2.48-1.27c-.41.22-.67-.02-.85-.37-1.3-2.53-2.6-5.06-3.88-7.59-.23-.46.06-.92.52-.91.27.04.44.19.57.43,1.28,2.51,2.56,5.01,3.85,7.52.19.36.17.7-.21.91Zm2.46-1.27c-.41.22-.67,0-.85-.36-1.29-2.52-2.59-5.04-3.87-7.57-.24-.47.02-.94.48-.95.29.03.48.22.61.48,1.28,2.5,2.56,5,3.84,7.5.19.37.16.69-.22.9Zm2.36-1.21c-.27.07-.52,0-.66-.24-.2-.35-.37-.71-.55-1.07-1.08-2.1-2.16-4.2-3.24-6.31-.05-.09-.08-.18-.13-.27-.21-.39-.21-.75.23-.96.41-.19.66.07.84.41.97,1.9,1.94,3.81,2.92,5.71.29.56.58,1.12.86,1.68.08.15.14.32.19.45-.06.31-.18.53-.45.6Zm14.39,26.2c-.05.96-.67,1.57-1.38,2.09-.87.64-1.82,1.15-2.81,1.57-.24.1-.48.23-.87.42h1.01c-.38,1.15-1.29,1.63-2.41,1.23-.5-.18-.99-.29-1.53-.3-1.51-.03-2.5-.83-3.01-2.21-.14-.39-.45-.7-.83-.88-1.14-.52-1.79-1.48-2.1-2.68-.11-.42-.26-.74-.67-1-1-.63-1.28-1.51-.99-2.68.01-.05,0-.1.03-.15.56-1.08,1.02-2.17.58-3.42h0c-.08-.54.15-1.02.47-1.39,1.94-2.23,4.33-3.64,7.32-3.89.42-.03.85.07,1.27.11.13-.91.56-1.66,1.23-2.27,1.01-.91,2.48-.81,3.36.21.58.67.84,1.48.8,2.37-.05,1.08-.8,1.92-1.82,2.1-1.26.23-2.42-.42-2.96-1.65-.33.35.16,1.15.22,1.23.61.82,1.44,1.27,2.5,1.23.4-.01.58.16.75.48.63,1.21.84,2.51.91,3.87q-1.13-.49-1.16-1.59c-.05-1.61-.96-2.63-2.56-2.66-2.91-.06-5.36,1.08-7.45,3.07.02.53.25.12.35.06,1.41-.82,2.85-1.61,4.42-2.08.94-.28,1.9-.52,2.89-.25,1.32.36,1.64,1.5,1.54,2.6-.04.4-.37.22-.59.25-2.66.5-5.08,1.49-7.11,3.34.34.09.58-.13.84-.27,1.72-.89,3.47-1.72,5.37-2.17.24-.06.49-.1.74-.13,2.03-.21,2.92.87,2.36,2.78,0,.08-.03.16-.08.25-.57.47-1.31.59-1.97.86-1.61.66-3.16,1.41-4.56,2.46.23.38.41-.01.55-.08,1.45-.74,2.9-1.48,4.47-1.94.45-.13.92-.24,1.39-.31,1.11-.17,1.57.28,1.49,1.43Z"/>
      <path class="cls-1" d="m110.64,55.62c.32-2.78-.58-5.25-2.26-7.45-.3-.4-.43-.68-.17-1.19,2.38-4.71,2.19-9.47,0-14.17-2.25-4.85-6.9-7.91-11.62-7.57-1.19.09-1.57-.29-2.06-1.23-2.7-5.24-8.41-8.68-14.9-6.12-.55.22-.79.08-1.13-.31-1.28-1.48-2.8-2.69-4.54-3.56-4.79-2.41-9.61-2.94-14.24.32-3.05,2.15-4.52,5.35-5.29,8.9-.16.75-.38.98-1.18.82-1.78-.34-3.56-.25-5.29.33-4.44,1.47-7.36,6.11-7.1,11.35.27,5.45,3.02,9.36,7.71,11.97.65.36.89.66.68,1.38-.23.8-.34,1.64-.51,2.46-.15.75-.31,1.49-.45,2.24-.47,2.67-.23,2.92,2.44,2.7,8.49-.69,16.77.5,24.91,2.86,6.19,1.79,12.13,4.22,17.92,7.01,1.02.49,1.29.33,1.54-.81.33-1.53.69-3.05.98-4.58.13-.68.37-.76.97-.45,1.38.74,2.85,1.28,4.39,1.55,4.92.86,8.65-1.73,9.18-6.45Zm-19.89,4.92c.46.27.9.56,1.35.84q1.9,1.2,1.23,3.41c-2.51-1.14-5-2.35-7.54-3.42-11.22-4.75-22.87-7.29-35.12-6.6-.24.01-.54.17-.68-.19-.32-.74.08-1.39.24-2.07.35-2.43.34-2.45,2.72-2.88,1.94-.35,6.1-.94,6.23-.96-.25-.06-5.27-.23-7.43-.02-.74.07-.66-.19-.44-.68.5-1.14,1.49-1.6,2.61-1.79,2.41-.43,4.85-.27,7.27-.22,6,.11,11.87,1.15,17.63,2.81.14.04.26.14.4.21,4.32,1.2,8.55,2.63,12.47,4.83,2.81,1.44,3.66,3.74,2.55,6.7-.26.69-.6.27-.86.14-1.98-.98-4.02-1.78-6.23-2.21,1.21.71,2.42,1.41,3.63,2.12Zm11.95-1c-1.88-.23-3.6-.9-5.25-1.8-.35-.19-.59-.38-.58-.86.04-1.87-1.05-3.1-2.48-4.1-1.66-1.16-3.52-1.94-5.35-2.75-1.43-.63-1.61-1.36-.54-2.49,1.24-1.31,2.75-2.25,4.49-2.78.39-.18.78-.35,1.29-.58-.94-.27-6.05,1.65-7.84,2.47-5.23,2.4-12.62.49-15.52-4.06-1.43-2.24-1.76-4.73-1.44-7.34-.07-.34.07-.66.1-.99.02-.18.03-.4-.28-.24-.37.42-.44.95-.54,1.47-.59,1.26-.97,4.78-1,4.93-.45,2.83-1.6,3.84-4.45,4.02-1.57.09-3.14.04-4.6-.57-2.8-1.17-3.31-3.62-3.35-6.29,0-.34.07-.68.11-1.01h0s0,0,0,0c0-.29,0-.59-.02-.88,0-.07.05-.27-.14-.16-.08.05-.12.17-.18.26-.85,2.52-1.24,5.08-.65,7.73.1.46-.12.7-.58.79-.55.12-1.16.18-1.63.46-1.5.9-2.78.46-4.14-.36-4.26-2.55-6.2-8.3-4.32-12.75.03-.09.07-.17.11-.26,1.38-4.21,5.55-6.23,9.49-4.64.55.22.83.5,1.01,1.07.58,1.86,1.5,3.54,3.08,5.17-.35-1.29-1.01-2.18-1.11-3.25-2.58-7.35,3.26-15.66,11.02-15.57,3.99.05,6.89,2.25,9.3,5.24.34.43.09.67-.23.91-1.37,2.03-2.37,4.24-3.25,6.52,0,0,0,0,0,0,0,0,0,0,0,0,0,.11-.06.26,0,.33.3.4.23-.1.25-.14,1.36-2.62,3.21-4.77,5.83-6.2,5.69-3.09,10.83-.5,13.3,4.99.35.78-.37.73-.7.99-1.02.82-2.03,1.64-3.05,2.46h0c.92.06,1.67-.46,2.45-.79,5.07-2.16,10.44.05,12.76,2.76,2.32,2.7,3.5,5.82,3.3,9.41,0,1.61-.38,3.13-1.01,4.6-.21.5-.41.71-.96.31-.63-.46-1.35-.8-2.12-1.09.38.47.76.95,1.13,1.42,1.76,1.73,3.07,3.75,3.87,6.09.29.83.43,1.69.39,2.57-.16,3.53-2.46,5.43-6,5.01Z"/>
      <path class="cls-1" d="m132.8,57.88c-.15-.26-.32-.52-.51-.75-1.15-1.39-2.6-2.42-4.14-3.31-1.2-.69-2.43-1.31-3.83-1.48-.67-.08-1.21.08-1.58.73-.37.66-.82,1.27-1.23,1.91-.87,1.35-1.76,2.69-2.59,4.06-.77,1.27-.79,2.57,0,3.86.52.85,1.03,1.72,1.56,2.56.17.28.17.48-.02.76-.81,1.21-1.61,2.43-2.38,3.66-.18.29-.32.38-.65.2-.93-.48-1.92-.79-2.94-1-.28-.06-.46-.16-.58-.45-.25-.58-.66-1.05-1.22-1.38-1.12-.67-2.41-.47-3.29.5-.97,1.08-1.12,2.8-.29,3.87.24.3.29.55.21.91-.41,1.8-.58,3.62-.41,5.46.02.25-.03.4-.29.52-.7.31-.99.89-.97,1.65.02.86.47,1.5,1.05,2.07.27.27.3.47.06.74-.09.1-.15.22-.22.33-.42.65-.31,1.14.36,1.63.71.53,1.28.5,1.77-.11.14-.18.21-.2.38-.03.72.69,1.58.73,2.49.48.31-.09.62-.13.94-.16,1.4-.11,2.63-.55,3.38-1.85.16-.28.35-.47.61-.63.89-.52,1.5-1.26,1.74-2.27.05-.22.19-.36.35-.49.99-.84,1.32-1.9,1.02-3.16-.18-.75-.58-1.47-.29-2.29.03-.08-.02-.19-.03-.28-.18-1.32-1.02-2.21-2.01-2.98-.26-.2-.27-.32-.1-.57.75-1.11,1.51-2.22,2.18-3.38.33-.56.7-.68,1.28-.58,1.04.17,2.1.3,2.86.4,1.5.01,2.45-.44,3.25-1.59,1.36-1.97,2.64-4.01,3.98-5.99.37-.55.38-1.04.07-1.58Zm-13.17,14.8c.54.51.95,1.17.73,1.99,0,.04-.02.09-.04.14-.35.65-.12,1.2.24,1.78.56.92.21,2.07-.75,2.65-.24.15-.38.3-.46.58-.29,1.06-.91,1.86-1.99,2.23-.22.08-.31.21-.4.42-.53,1.31-1.36,1.84-2.78,1.76-.28-.02-.51.07-.76.16-.96.32-1.69-.05-2-1.03.21.02.41.03.61.04.01-.02.02-.05.04-.07-.41-.22-.83-.42-1.23-.66-.66-.4-1.36-.74-1.87-1.35-.23-.28-.45-.56-.5-.93-.03-.08-.04-.16-.05-.22-.16-.96.34-1.38,1.41-1.13,1.24.29,2.36.87,3.48,1.47.4.21.75.5,1.18.64-.22-.45-.66-.65-1.04-.9-1.08-.72-2.26-1.27-3.47-1.74-.29-.11-.58-.22-.49-.63,0-.04.39-2.14,1.78-1.95,1.29.17,2.44.76,3.59,1.34.6.3,1.2.63,1.79.94-.25-.49-.72-.75-1.14-1.06-1.36-.99-2.91-1.54-4.55-1.88-.32-1.09.4-2.09,1.54-2.16.81-.05,1.56.19,2.3.48,1.05.42,2.02,1,2.96,1.62.09.06.19.29.34.05-1.4-1.59-3.19-2.45-5.26-2.72-1.62-.21-2.59.69-2.58,2.29,0,.34-.04.56-.41.66-.17.04-.31.19-.53.33.08-1.18.33-2.25.92-3.23.11-.19.26-.18.43-.17.92.05,1.65-.3,2.19-1.05h0s.4-.43.03-.67c-.63,1.14-1.99,1.48-2.98.73-.83-.63-.88-2.1-.1-3.03.77-.92,1.95-1,2.78-.17.5.49.79,1.09.87,1.79,2.57-.31,4.42,1.08,6.13,2.68Z"/>
      <g>
        <g>
          <path class="cls-1" d="m41.45,76.35c.34.73.9,1.19,1.65,1.42,1.76.53,3.7-.19,4.73-1.71.18-.26.22-.5.23-.79.04-1.6.31-3.15,1.05-4.59.52-1.02,1.28-1.8,2.46-2.04,1.15-.24,2.24-.13,3.16.71.06.06.13.1.23.17.15-.89.29-1.76.44-2.62.08-.47.16-.93.23-1.4.16-1-.06-1.92-.62-2.79.09,0,.16-.02.23-.02.51,0,1.03,0,1.54,0,1.17,0,1.95.68,2.16,1.82.13.67.02,1.33-.09,1.99-.3,1.92-.6,3.83-.91,5.75-.22,1.34-.45,2.68-.66,4.03-.06.38-.08.77-.03,1.15.08.52.57.73,1.02.44.66-.42,1.14-1.01,1.26-1.79.29-1.92.53-3.85.81-5.77.08-.56.18-1.12.28-1.68h3.32c-.15.97-.29,1.92-.44,2.88-.27,1.75-.56,3.49-.82,5.24-.04.24,0,.51.05.75.1.46.53.65.94.42.21-.12.43-.27.55-.46.31-.46.58-.95.84-1.45.07-.14.04-.34.04-.51.01-1.54.27-3.04.89-4.46.33-.77.82-1.42,1.51-1.91.95-.67,2.99-.92,4.18.17.08.08.18.14.31.25.06-.38.12-.72.18-1.06.17-1.03.34-2.06.5-3.09.14-.91-.07-1.74-.54-2.53-.02-.04-.05-.08-.13-.21.88.05,1.71.02,2.5.17.89.16,1.3.87,1.47,1.71.14.67.02,1.33-.09,1.99-.28,1.77-.56,3.55-.85,5.32-.24,1.49-.5,2.97-.72,4.46-.06.37-.08.75-.03,1.12.09.55.57.74,1.05.45.46-.28.77-.7,1.03-1.16.21-.37.34-.74.32-1.2-.07-1.72.28-3.36,1.29-4.78.99-1.4,2.36-2.16,4.12-2.17,1,0,1.91.21,2.71.84.99.78,1.16,2.11.73,3.25-.33.89-.96,1.53-1.72,2.07-1,.72-2.13,1.18-3.29,1.57-.09.03-.18.06-.29.1.38.81,1.01,1.27,1.85,1.47,2.31.55,4.19-.87,4.85-2.39.81-1.88,1.41-3.82,1.83-5.81.27-1.28.27-1.01,1.27-1.03.47-.01.93.02,1.4,0,.41-.02.64.15.82.51.32.66.67,1.3,1.02,1.96.61-.53,1.19-1.05,1.79-1.56.44-.38.89-.77,1.48-.87.6-.11,1.14.01,1.57.47.38.41.48.91.3,1.43-.18.54-.58.87-1.14.96-.59.09-1.09-.09-1.43-.62-.31-.48-.59-.56-1.01-.17-.38.35-.68.79-1.01,1.19-.04.05-.02.17.01.23,1.04,1.82,2.07,3.65,3.13,5.46.31.52.56.55,1.07.21.55-.37.88-.93,1.13-1.52.13-.31.29-.45.64-.41.28.03.56,0,.83,0,.02.03.04.05.03.06-.41,1.26-.89,2.49-1.82,3.49-.85.92-1.93,1.16-3.1.99-.5-.07-.83-.5-1.1-.89-.34-.49-.64-1.02-.93-1.54-.5-.88-.98-1.78-1.46-2.67-.05-.09-.1-.18-.19-.33-.13.26-.26.47-.34.7-.47,1.33-.93,2.66-1.4,3.98-.04.11-.07.22-.11.33-.19.49-.3.54-.78.29-.12-.06-.24-.13-.34-.21-.73-.53-.83-.84-.46-1.67.72-1.61,1.55-3.16,2.53-4.63.11-.17.12-.29.03-.47-.37-.69-.72-1.39-1.11-2.07-.1-.17-.28-.29-.43-.43-.09.18-.21.35-.25.53-.35,1.69-.86,3.33-1.53,4.91-.94,2.19-2.57,3.59-4.93,4.07-2.25.46-4.29-.43-5.54-2.35-.02-.04-.05-.07-.1-.13-.13.22-.24.42-.36.61-.45.72-.97,1.38-1.76,1.72-1.18.51-2.33.33-3.4-.35-.21-.13-.36-.37-.55-.57-.81,1.06-1.94,1.25-3.17,1.09-1.32-.17-2.08-1.02-2.54-2.21-.24.33-.45.67-.69.98-.52.64-1.13,1.16-1.97,1.29-.87.13-1.72,0-2.5-.45-.37-.22-.62-.54-.79-.99-.71.82-1.47,1.52-2.64,1.48-1.06-.04-2.07-.2-2.73-1.21-.91,1.16-2.13,1.32-3.44,1.06-1.4-.28-2.05-1.34-2.42-2.54-.55.5-1.07,1.05-1.67,1.5-1.24.91-2.65,1.3-4.19,1.18-2.13-.16-4.1-1.87-4.5-3.98-.41-2.19,0-4.25,1.38-6.03.96-1.24,2.26-1.9,3.87-1.89.72,0,1.42.06,2.09.4,1.55.8,1.92,2.2,1.38,3.7-.32.88-.96,1.51-1.7,2.04-1,.72-2.13,1.18-3.29,1.57-.09.03-.18.06-.29.1Zm9.63-1.13c0,.16,0,.33,0,.49.02.79.4,1.37,1.05,1.62.6.23,1.16.02,1.44-.55.1-.21.18-.43.24-.65.31-1.18.47-2.38.54-3.6.03-.54-.2-1.04-.63-1.24-.51-.23-1.03-.21-1.43.18-.3.3-.56.67-.74,1.05-.4.84-.47,1.76-.48,2.69Zm17.05,0c0,.16,0,.33,0,.49.02.79.4,1.37,1.05,1.62.6.23,1.16.02,1.44-.55.1-.21.18-.43.24-.65.31-1.18.47-2.38.54-3.6.03-.54-.2-1.04-.63-1.24-.51-.23-1.03-.21-1.43.18-.3.3-.56.67-.74,1.05-.4.84-.47,1.76-.48,2.69Zm-27.23-.16c.17-.15.3-.26.43-.38.89-.86,1.66-1.82,2.31-2.86.24-.38.47-.78.65-1.19.25-.6-.04-.94-.68-.86-.9.1-1.58.54-2.04,1.32-.72,1.22-.82,2.55-.66,3.98Zm38.81,0c.11-.09.17-.13.23-.19,1.23-1.14,2.23-2.47,3.03-3.94.09-.18.16-.37.21-.57.07-.28-.05-.48-.33-.55-.15-.04-.33-.05-.49-.03-1,.11-1.69.67-2.13,1.55-.58,1.16-.67,2.4-.52,3.72Z"/>
          <path class="cls-1" d="m33.19,80.27h-5.76c.11-.71.22-1.4.33-2.08.49-2.93.99-5.85,1.47-8.78.02-.11-.02-.29-.1-.35-.87-.64-1.75-1.28-2.65-1.87-.67-.44-1.43-.67-2.23-.42-.32.1-.62.33-.89.55-.25.21-.43.49-.7.8-.15-.66.08-1.24.62-1.68.69-.58,1.53-.84,2.41-.92,1.06-.09,2.13-.08,3.2-.11.31,0,.63,0,.98,0,.19-1.31.38-2.59.56-3.88.2-1.42.42-2.85.59-4.28.13-1.08.15-2.16-.31-3.19-.16-.37-.36-.54-.8-.43-4.94,1.3-8.91,3.82-11.16,8.6-.84,1.77-1.57,3.58-1.75,5.54-.29,3.3.52,6.22,3.1,8.48.52.45.55.45,1.07-.02.3-.27.59-.56.84-.88.17-.22.35-.32.63-.31,1.55.02,3.1,0,4.71,0-.06.12-.09.21-.14.29-.96,1.25-2.23,1.96-3.79,2.11-1.58.15-3.18.3-4.77.29-3.35-.02-6.63-2.91-7.02-6.07-.33-2.71.02-5.32,1.28-7.74,2.65-5.12,6.63-8.74,12.22-10.44,1.35-.41,2.75-.48,4.15-.49,2.84-.02,5.69-.02,8.54,0,1.69.01,3.37.13,4.95.8,1.94.81,3.3,2.13,3.6,4.31.17,1.25-.09,2.47-.35,3.7-.81,3.78-3.32,5.84-6.88,6.85-1.15.33-2.32.63-3.49.88-.48.1-.67.26-.75.77-.54,3.31-1.13,6.62-1.72,9.97Zm2.27-13.35c.73.3,1.4.55,2.05.86.32.15.59.15.83-.06.38-.34.77-.68,1.06-1.09.94-1.3,1.58-2.75,1.95-4.31.59-2.54-.19-4.37-2.4-5.7-.44-.26-.91-.46-1.37-.68-.1-.05-.22-.06-.33-.1-.6,3.73-1.2,7.42-1.79,11.08Z"/>
          <path class="cls-1" d="m62.77,67.31c-1.02,0-1.79-.78-1.79-1.8,0-1.02.78-1.8,1.79-1.8,1.02,0,1.82.79,1.81,1.82,0,1-.79,1.78-1.81,1.78Z"/>
        </g>
        <g>
          <path class="cls-1" d="m24.64,84.18c0-.74.59-1.27,1.42-1.27.56,0,.99.25,1.16.68l-.67.34c-.12-.23-.29-.33-.49-.33-.3,0-.54.21-.54.58s.24.59.54.59c.2,0,.37-.1.49-.33l.67.34c-.17.43-.6.68-1.16.68-.83,0-1.42-.53-1.42-1.28Z"/>
          <path class="cls-1" d="m29.97,84.05v1.37h-.81v-.32c-.12.24-.37.36-.73.36-.59,0-.92-.33-.92-.76,0-.46.33-.74,1.1-.74h.49c-.01-.25-.18-.39-.52-.39-.24,0-.5.08-.67.21l-.29-.59c.28-.19.7-.29,1.09-.29.8,0,1.26.36,1.26,1.14Zm-.87.58v-.21h-.37c-.28,0-.38.1-.38.25s.12.25.32.25c.19,0,.36-.09.43-.29Z"/>
          <path class="cls-1" d="m32.28,82.91v.78c-.08,0-.13-.01-.2-.01-.35,0-.59.18-.59.61v1.14h-.87v-2.47h.83v.3c.18-.22.47-.34.83-.34Z"/>
          <path class="cls-1" d="m35.36,82.04v3.38h-.82v-.25c-.16.2-.41.29-.72.29-.68,0-1.22-.49-1.22-1.28s.54-1.27,1.22-1.27c.29,0,.52.08.68.26v-1.13h.87Zm-.85,2.14c0-.37-.22-.58-.51-.58s-.52.21-.52.58.22.59.52.59.51-.21.51-.59Z"/>
          <path class="cls-1" d="m38.34,84.05v1.37h-.81v-.32c-.12.24-.37.36-.73.36-.59,0-.92-.33-.92-.76,0-.46.33-.74,1.1-.74h.49c-.01-.25-.18-.39-.52-.39-.24,0-.5.08-.67.21l-.29-.59c.28-.19.7-.29,1.09-.29.8,0,1.26.36,1.26,1.14Zm-.87.58v-.21h-.37c-.28,0-.38.1-.38.25s.12.25.32.25c.19,0,.36-.09.43-.29Zm-.13-1.97h-.62l.61-.69h.87l-.86.69Z"/>
          <path class="cls-1" d="m38.9,82.21c0-.26.21-.46.53-.46s.53.19.53.45c0,.27-.21.47-.53.47s-.53-.2-.53-.46Zm.1.73h.87v2.47h-.87v-2.47Z"/>
          <path class="cls-1" d="m40.38,84.18c0-.74.59-1.27,1.4-1.27s1.4.53,1.4,1.27-.58,1.28-1.4,1.28-1.4-.53-1.4-1.28Zm1.92,0c0-.37-.22-.58-.52-.58s-.52.21-.52.58.23.59.52.59.52-.21.52-.59Z"/>
          <path class="cls-1" d="m47.64,84.4h-1.8c.07.25.29.4.61.4.24,0,.4-.07.57-.21l.46.47c-.24.26-.58.4-1.05.4-.88,0-1.45-.54-1.45-1.28s.58-1.27,1.36-1.27c.73,0,1.32.47,1.32,1.28,0,.06,0,.15-.01.21Zm-1.81-.46h1.01c-.05-.26-.24-.42-.51-.42s-.46.16-.51.42Z"/>
          <path class="cls-1" d="m49.45,84.18c0-.74.59-1.27,1.42-1.27.56,0,.99.25,1.16.68l-.67.34c-.12-.23-.29-.33-.49-.33-.3,0-.54.21-.54.58s.24.59.54.59c.2,0,.37-.1.49-.33l.67.34c-.17.43-.6.68-1.16.68-.83,0-1.42-.53-1.42-1.28Z"/>
          <path class="cls-1" d="m52.28,84.18c0-.74.59-1.27,1.4-1.27s1.4.53,1.4,1.27-.58,1.28-1.4,1.28-1.4-.53-1.4-1.28Zm1.92,0c0-.37-.22-.58-.52-.58s-.52.21-.52.58.23.59.52.59.52-.21.52-.59Z"/>
          <path class="cls-1" d="m59.81,84.01v1.41h-.87v-1.27c0-.36-.15-.51-.38-.51-.25,0-.43.17-.43.55v1.23h-.87v-1.27c0-.36-.14-.51-.38-.51-.26,0-.44.17-.44.55v1.23h-.87v-2.47h.83v.26c.19-.2.45-.3.74-.3.34,0,.62.12.8.39.2-.25.5-.39.86-.39.57,0,1,.33,1,1.1Z"/>
          <path class="cls-1" d="m62.78,84.05v1.37h-.81v-.32c-.12.24-.37.36-.73.36-.59,0-.92-.33-.92-.76,0-.46.33-.74,1.1-.74h.49c-.01-.25-.18-.39-.52-.39-.24,0-.5.08-.67.21l-.29-.59c.28-.19.7-.29,1.09-.29.8,0,1.26.36,1.26,1.14Zm-.87.58v-.21h-.37c-.28,0-.38.1-.38.25s.12.25.32.25c.19,0,.36-.09.43-.29Z"/>
          <path class="cls-1" d="m66.07,84.01v1.41h-.87v-1.27c0-.36-.16-.51-.41-.51-.28,0-.49.17-.49.58v1.2h-.87v-2.47h.83v.27c.2-.21.47-.31.78-.31.58,0,1.02.33,1.02,1.1Z"/>
          <path class="cls-1" d="m69.39,82.04v3.38h-.82v-.25c-.16.2-.41.29-.72.29-.68,0-1.22-.49-1.22-1.28s.54-1.27,1.22-1.27c.29,0,.52.08.68.26v-1.13h.87Zm-.85,2.14c0-.37-.22-.58-.51-.58s-.52.21-.52.58.22.59.52.59.51-.21.51-.59Z"/>
          <path class="cls-1" d="m72.37,84.05v1.37h-.81v-.32c-.12.24-.37.36-.73.36-.59,0-.92-.33-.92-.76,0-.46.33-.74,1.1-.74h.49c-.01-.25-.18-.39-.52-.39-.24,0-.5.08-.67.21l-.29-.59c.28-.19.7-.29,1.09-.29.8,0,1.26.36,1.26,1.14Zm-.87.58v-.21h-.37c-.28,0-.38.1-.38.25s.12.25.32.25c.19,0,.36-.09.43-.29Z"/>
          <path class="cls-1" d="m77.1,82.04v3.38h-.82v-.25c-.16.2-.41.29-.72.29-.68,0-1.22-.49-1.22-1.28s.54-1.27,1.22-1.27c.29,0,.52.08.68.26v-1.13h.87Zm-.85,2.14c0-.37-.22-.58-.51-.58s-.52.21-.52.58.22.59.52.59.51-.21.51-.59Z"/>
          <path class="cls-1" d="m77.67,82.21c0-.26.21-.46.53-.46s.53.19.53.45c0,.27-.21.47-.53.47s-.53-.2-.53-.46Zm.1.73h.87v2.47h-.87v-2.47Z"/>
          <path class="cls-1" d="m81.96,82.95v2.02c0,.93-.53,1.38-1.45,1.38-.47,0-.93-.11-1.23-.32l.32-.61c.2.16.54.26.83.26.47,0,.66-.21.66-.6v-.08c-.17.2-.42.29-.73.29-.66,0-1.21-.47-1.21-1.2s.56-1.19,1.21-1.19c.34,0,.61.11.78.34v-.3h.82Zm-.86,1.15c0-.3-.23-.5-.54-.5s-.54.2-.54.5.23.51.54.51.54-.21.54-.51Z"/>
          <path class="cls-1" d="m82.53,82.21c0-.26.21-.46.53-.46s.53.19.53.45c0,.27-.21.47-.53.47s-.53-.2-.53-.46Zm.1.73h.87v2.47h-.87v-2.47Z"/>
          <path class="cls-1" d="m85.88,85.32c-.15.1-.37.14-.6.14-.63,0-1-.31-1-.94v-.83h-.36v-.65h.36v-.64h.87v.64h.57v.65h-.57v.82c0,.18.1.28.26.28.1,0,.19-.03.27-.08l.21.61Z"/>
          <path class="cls-1" d="m88.64,84.05v1.37h-.81v-.32c-.12.24-.37.36-.73.36-.59,0-.92-.33-.92-.76,0-.46.33-.74,1.1-.74h.49c-.01-.25-.18-.39-.52-.39-.24,0-.5.08-.67.21l-.29-.59c.28-.19.7-.29,1.09-.29.8,0,1.26.36,1.26,1.14Zm-.87.58v-.21h-.37c-.28,0-.38.1-.38.25s.12.25.32.25c.19,0,.36-.09.43-.29Z"/>
          <path class="cls-1" d="m89.3,82.04h.87v3.38h-.87v-3.38Z"/>
        </g>
      </g>
      <polygon class="cls-1" points="0 66.84 0 66.84 0 66.84 0 66.84"/>
    </g>
  </g>
</svg>