<?xml version="1.0" encoding="UTF-8"?>
<svg id="Camada_2" data-name="Camada 2" xmlns="http://www.w3.org/2000/svg" viewBox="0 0 22.88 25.97">
  <defs>
    <style>
      .cls-1 {
        fill: #fff;
        stroke-width: 0px;
      }
    </style>
  </defs>
  <g id="Camada_1-2" data-name="Camada 1">
    <g>
      <path class="cls-1" d="m10.96,25.97c-.4-.12-.82-.2-1.2-.38-1.04-.5-1.71-1.32-2.02-2.43-.05-.19-.12-.23-.31-.23-2.19,0-4.38,0-6.57,0-.37,0-.65-.11-.8-.45-.16-.35-.04-.65.21-.92,1.59-1.69,2.62-3.67,3.04-5.95.14-.78.19-1.59.22-2.39.04-.8-.02-1.61.01-2.41.13-3.31,1.73-5.67,4.71-7.1.27-.13.56-.22.87-.34,0-.36,0-.73,0-1.1C9.14,1.01,10.16,0,11.42,0c1.26,0,2.27,1,2.28,2.26,0,.36,0,.73,0,1.09.33.13.67.25.98.4,2.57,1.24,4.08,3.28,4.53,6.09.07.46.06.94.07,1.41.02,1.06-.01,2.11.06,3.17.12,1.59.58,3.09,1.33,4.5.52.98,1.16,1.86,1.92,2.67.43.47.28,1.13-.3,1.3-.1.03-.22.03-.33.03-2.18,0-4.36,0-6.54,0-.21,0-.28.06-.34.26-.47,1.53-1.5,2.46-3.09,2.75-.04,0-.08.03-.12.04h-.91Zm-8.46-4.58h17.9c-.08-.12-.15-.22-.22-.31-1.38-1.99-2.21-4.19-2.37-6.61-.08-1.13-.03-2.26-.06-3.39-.02-.5-.05-1.02-.15-1.51-.73-3.37-4.01-5.54-7.38-4.87-3.06.61-5.14,3.18-5.15,6.3,0,.85,0,1.71,0,2.56-.02,1.99-.46,3.88-1.34,5.66-.37.75-.82,1.45-1.24,2.17Zm6.81,1.55c.21.84,1.19,1.53,2.14,1.51.95-.02,1.92-.72,2.08-1.51h-4.22ZM12.17,3.05c0-.28.02-.55,0-.82-.03-.4-.38-.71-.76-.71-.37,0-.71.3-.75.69-.02.27,0,.55,0,.84h1.51Z"/>
      <path class="cls-1" d="m22.83,10.58c0,.08,0,.17,0,.25,0,.49-.31.83-.76.83-.44,0-.75-.32-.76-.8-.03-1.74-.45-3.39-1.33-4.9-.43-.74-.95-1.42-1.55-2.03-.23-.24-.31-.52-.19-.84.11-.28.33-.45.63-.49.26-.03.48.06.66.25,1.54,1.58,2.58,3.43,3.04,5.59.15.7.21,1.41.31,2.12-.02,0-.03,0-.05,0Z"/>
      <path class="cls-1" d="m.02,10.56c.11-2.99,1.21-5.57,3.31-7.71.31-.32.79-.32,1.09-.02.31.3.31.77-.02,1.11-.85.87-1.54,1.86-2.03,2.97-.57,1.28-.82,2.61-.85,4,0,.39-.29.71-.66.75-.39.04-.76-.19-.84-.57-.04-.17,0-.35,0-.53Z"/>
    </g>
  </g>
</svg>