<?xml version="1.0" encoding="UTF-8"?>
<svg id="Camada_2" data-name="Camada 2" xmlns="http://www.w3.org/2000/svg" viewBox="0 0 21.67 27.09">
  <defs>
    <style>
      .cls-1 {
        fill: #fff;
        stroke-width: 0px;
      }
    </style>
  </defs>
  <g id="Camada_1-2" data-name="Camada 1">
    <g>
      <path class="cls-1" d="m4.3,1.25c.03-.13.04-.26.08-.39C4.55.32,5.01,0,5.67,0c1.47,0,2.94,0,4.41,0,.04,0,.08,0,.13,0,.66.03,1.09.4,1.22,1.06.01.06.03.12.05.2.54.04.94.3,1.2.79.04.07.19.11.28.11.56,0,1.11-.04,1.67-.05.24,0,.48.03.72.07.29.05.44.21.43.54-.01,3.14,0,6.28,0,9.42,0,.67,0,1.34,0,2.02,0,.19.04.28.25.3,2.71.27,5.02,2.36,5.53,5.01.72,3.66-1.47,6.85-5.14,7.53-2.65.49-5.28-.73-6.61-3.07-.11-.2-.24-.22-.43-.22-2.9,0-5.79.01-8.69.01-.52,0-.67-.15-.67-.67,0-6.76,0-13.52,0-20.28,0-.49.12-.61.62-.61.73,0,1.47,0,2.2,0,.1,0,.23-.04.29-.11.42-.57.54-.66,1.19-.78Zm-1.38,3.71s-.05.05-.07.08v15.79h6.08c.03-.27.04-.53.08-.79.32-2.33,1.54-4.01,3.65-5.03.19-.09.27-.19.27-.42,0-3.09,0-6.17,0-9.26v-.31s-.05-.04-.07-.05c-.07.06-.17.11-.21.19-.28.49-.69.74-1.26.74-2.33,0-4.66,0-6.99,0-.57,0-.98-.24-1.26-.73-.05-.08-.14-.13-.21-.2Zm12.38,10.35c-3.31-.02-5.42,2.52-5.45,5.5-.04,3,2.49,5.44,5.53,5.43,2.97,0,5.41-2.43,5.4-5.37,0-3.16-2.38-5.56-5.48-5.55ZM.9,3.06v19.7h8.35c-.08-.35-.16-.67-.25-1.01-.13,0-.24,0-.36,0-1.99,0-3.99,0-5.98,0-.62,0-.73-.11-.73-.73,0-5.41,0-10.81,0-16.22,0-.07,0-.15,0-.22,0-.31.17-.46.46-.49.18-.01.37-.02.55-.03v-1.01H.9Zm6.96,1.94c1.12,0,2.24,0,3.37,0,.52,0,.64-.12.64-.65,0-.51,0-1.03,0-1.54,0-.52-.13-.64-.66-.64-2.25,0-4.51,0-6.76,0-.43,0-.57.14-.58.56,0,.57,0,1.13,0,1.7,0,.44.15.58.59.58,1.13,0,2.27,0,3.4,0Zm6.98,9.41V3.07h-2.05v1.01c.08,0,.14,0,.2,0,.73,0,.82.1.82.8,0,3.11,0,6.21,0,9.32,0,.12,0,.24.02.36.36-.05.68-.1,1.02-.16ZM10.53,1.26c-.02-.26-.15-.36-.35-.36-1.53,0-3.06,0-4.6,0-.22,0-.35.11-.34.36h5.28Z"/>
      <path class="cls-1" d="m7.88,14c-1.03,0-2.06,0-3.08,0-.11,0-.26.01-.33-.05-.12-.12-.26-.28-.28-.44-.03-.21.13-.37.36-.4.1-.02.21-.02.31-.02,2.01,0,4.03,0,6.04,0,.01,0,.02,0,.03,0,.45,0,.66.15.66.45,0,.3-.22.45-.66.45-1.02,0-2.03,0-3.05,0Z"/>
      <path class="cls-1" d="m7.87,8.21c1.07,0,2.14,0,3.21,0,.4,0,.64.36.43.67-.07.11-.25.2-.38.2-2.16.01-4.32.01-6.48,0-.29,0-.47-.18-.47-.43,0-.27.19-.45.49-.45,1.07,0,2.14,0,3.21,0Z"/>
      <path class="cls-1" d="m7.87,11.55c-1.05,0-2.1,0-3.14,0-.36,0-.56-.16-.56-.45,0-.28.19-.44.56-.44,2.1,0,4.19,0,6.29,0,.37,0,.56.15.56.44,0,.28-.2.44-.56.44-1.05,0-2.1,0-3.14,0Z"/>
      <path class="cls-1" d="m6.69,15.53c.65,0,1.3,0,1.95,0,.38,0,.55.14.56.44,0,.31-.16.46-.54.47-1.31,0-2.62,0-3.93,0-.44,0-.7-.34-.49-.66.08-.13.3-.23.46-.24.66-.03,1.32-.01,1.98-.01Z"/>
      <path class="cls-1" d="m6.01,18.86c-.44,0-.88,0-1.32,0-.34,0-.53-.17-.52-.45,0-.26.2-.44.51-.44.91,0,1.82,0,2.73,0,.32,0,.48.16.48.45,0,.28-.15.43-.46.43-.47,0-.94,0-1.41,0Z"/>
      <path class="cls-1" d="m12,20.06c-.08.06-.19.11-.19.16,0,.1.05.22.12.29.77.78,1.56,1.56,2.33,2.34.21.22.35.18.55-.02,1.26-1.27,2.53-2.54,3.8-3.81.06-.06.14-.11.17-.18.03-.07.05-.22,0-.24-.07-.05-.19-.06-.27-.03-.08.03-.14.12-.21.19-1.11,1.11-2.22,2.23-3.34,3.34-.34.34-.53.33-.87,0-.61-.61-1.22-1.21-1.83-1.82-.07-.07-.16-.13-.26-.21Z"/>
    </g>
  </g>
</svg>