<?xml version="1.0" encoding="UTF-8"?>
<svg id="Camada_2" data-name="Camada 2" xmlns="http://www.w3.org/2000/svg" viewBox="0 0 24.77 32.56">
  <defs>
    <style>
      .cls-1 {
        fill: #fff;
        stroke-width: 0px;
      }
    </style>
  </defs>
  <g id="Camada_1-2" data-name="Camada 1">
    <g>
      <path class="cls-1" d="m14.23,0c.33.13.68.23.98.41.74.42,1.16,1.09,1.36,1.9.11.43.22.86.32,1.29.04.17.11.22.28.22.51,0,1.02-.02,1.52.07.94.17,1.62.74,2.02,1.62.08.18.18.21.36.22.56.03,1.13,0,1.66.14,1.23.32,2.04,1.42,2.04,2.7,0,7.06,0,14.11,0,21.17,0,1.56-1.25,2.81-2.81,2.82-6.38.01-12.76.01-19.14,0-1.6,0-2.81-1.29-2.81-2.94,0-5.22,0-10.45,0-15.67,0-1.74,0-3.47,0-5.21,0-1.79,1.22-3,3.01-3,.02,0,.04,0,.06,0,.57.08.94-.06,1.26-.65.45-.84,1.28-1.22,2.25-1.26.34-.01.68-.01,1.02,0,.17,0,.24-.05.28-.22.12-.5.23-1.01.38-1.5.32-1.07,1.03-1.74,2.11-2.03.06-.02.11-.05.17-.07,1.23,0,2.46,0,3.68,0Zm6.73,7.64c0,.33,0,.61,0,.9,0,.6-.39,1-.99,1-5.06,0-10.12,0-15.18,0-.58,0-.97-.4-.98-.98,0-.3,0-.61,0-.93-.25,0-.46,0-.67,0-.89,0-1.24.34-1.24,1.22,0,6.86,0,13.71,0,20.57,0,.89.34,1.23,1.23,1.23,6.16,0,12.32,0,18.48,0,.92,0,1.25-.33,1.25-1.24,0-6.85,0-13.69,0-20.54,0-.11,0-.21,0-.32-.05-.51-.38-.87-.89-.91-.32-.03-.65,0-1.01,0Zm-15.24-.03h13.33c0-.29,0-.55,0-.81,0-.67-.39-1.06-1.07-1.07-.54,0-1.08,0-1.62,0-.66,0-.97-.23-1.14-.87-.17-.66-.34-1.33-.5-1.99-.17-.7-.49-.95-1.21-.95-.75,0-1.5,0-2.25,0-.75,0-1.06.24-1.23.96-.17.69-.33,1.37-.51,2.06-.14.54-.48.79-1.03.8-.58,0-1.16,0-1.75,0-.58,0-.98.36-1.02.92-.02.31,0,.63,0,.96Z"/>
      <path class="cls-1" d="m6.66,14.94c.28-.29.52-.54.76-.78.78-.78,1.55-1.56,2.33-2.33.56-.55,1.4-.37,1.63.35.11.35.04.68-.22.94-1.28,1.29-2.56,2.58-3.86,3.86-.37.37-.91.36-1.29,0-.66-.64-1.31-1.29-1.95-1.95-.38-.39-.35-.98.02-1.34.37-.36.95-.37,1.34,0,.41.39.8.81,1.22,1.25Z"/>
      <path class="cls-1" d="m6.66,20.65c1.05-1.05,2.06-2.06,3.06-3.07.28-.28.61-.42,1-.32.66.17.92.95.52,1.5-.06.08-.14.16-.21.23-1.18,1.18-2.36,2.37-3.54,3.55-.57.57-1.07.57-1.64,0-.56-.56-1.12-1.12-1.68-1.68-.45-.45-.48-1.04-.08-1.44.4-.4.98-.37,1.43.08.37.37.74.75,1.14,1.16Z"/>
      <path class="cls-1" d="m6.66,26.4c.38-.39.7-.74,1.04-1.07.69-.7,1.38-1.4,2.09-2.09.41-.4.99-.39,1.37-.01.37.37.39.95,0,1.34-1.27,1.29-2.55,2.57-3.84,3.84-.38.38-.93.38-1.31,0-.66-.64-1.31-1.29-1.95-1.95-.37-.38-.34-.96.02-1.32.37-.37.95-.39,1.34-.02.41.39.8.82,1.24,1.28Z"/>
      <path class="cls-1" d="m17.17,13.42c.92,0,1.84,0,2.76,0,.61,0,1.03.39,1.03.96,0,.56-.42.95-1.04.95-1.85,0-3.7,0-5.55,0-.61,0-1.03-.39-1.03-.96,0-.56.42-.95,1.04-.95.93,0,1.86,0,2.79,0Z"/>
      <path class="cls-1" d="m17.13,21.04c-.93,0-1.86,0-2.79,0-.59,0-1-.4-1-.95,0-.55.41-.95,1-.95,1.87,0,3.74,0,5.62,0,.59,0,1,.4,1,.95,0,.55-.41.95-1,.95-.94,0-1.88,0-2.82,0Z"/>
      <path class="cls-1" d="m17.14,26.77c-.93,0-1.86,0-2.79,0-.59,0-1-.4-1.01-.95,0-.56.41-.96,1-.96,1.87,0,3.74,0,5.62,0,.59,0,1,.4,1.01.95,0,.56-.41.95-1,.96-.94,0-1.88,0-2.82,0Z"/>
      <path class="cls-1" d="m12.4,3.82c.54,0,.95.44.94.98-.01.52-.44.93-.97.92-.54,0-.95-.44-.94-.98.01-.52.44-.93.97-.92Z"/>
    </g>
  </g>
</svg>