<?xml version="1.0" encoding="UTF-8"?>
<svg id="Camada_2" data-name="Camada 2" xmlns="http://www.w3.org/2000/svg" viewBox="0 0 54.84 29.13">
  <defs>
    <style>
      .cls-1 {
        fill: #fff;
        stroke-width: 0px;
      }
    </style>
  </defs>
  <g id="Camada_1-2" data-name="Camada 1">
    <g>
      <path class="cls-1" d="m0,.63C.24.17.63,0,1.14,0c1.3.01,2.61,0,3.91,0,.68,0,.96.21,1.11.85.32,1.42.64,2.85.92,4.28.13.66-.22,1.1-.81,1.1-.56,0-.78-.38-.88-.84-.23-1.02-.45-2.05-.67-3.08-.04-.19-.1-.37-.15-.56H1.92c.26,1.17.5,2.31.75,3.45,1.1,4.99,2.2,9.98,3.29,14.97.06.28.12.44.46.44,3.45-.01,6.89-.01,10.34-.01.03,0,.07-.01.15-.03v-2.56c-.17,0-.35,0-.54,0-2.41,0-4.82,0-7.23,0-.77,0-1.02-.2-1.19-.94-.57-2.57-1.13-5.15-1.69-7.72-.03-.14-.05-.28-.06-.42-.03-.5.23-.86.66-.96.41-.09.85.16.98.64.2.74.35,1.49.52,2.24.4,1.81.79,3.62,1.2,5.47.6,0,1.18,0,1.77,0,2.09,0,4.18,0,6.27,0,.78,0,1.08.28,1.09,1.06.01,1.21,0,2.43,0,3.64,0,1.04-.08,1.14-1.11,1.43,0,.35,0,.72,0,1.09,0,1.45,0,2.89,0,4.34,0,1.02-.27,1.29-1.31,1.29-.71,0-1.43,0-2.14,0-1.05,0-1.32-.27-1.32-1.34,0-1.59,0-3.18,0-4.77,0-.19,0-.39,0-.63h-3.49c0,.18-.03.37-.03.56,0,1.63,0,3.25,0,4.88,0,1.04-.27,1.31-1.29,1.31-.77,0-1.54,0-2.3,0-.86,0-1.17-.31-1.17-1.16,0-1.71-.05-3.43.01-5.14.06-1.67-.46-3.24-.8-4.83C2.55,12.51,1.32,7.04.11,1.56.09,1.47.04,1.37,0,1.28c0-.21,0-.43,0-.64Zm7.51,21.75h-1.25v4.99h1.25v-4.99Zm7.06-.01v5.01h1.25v-5.01h-1.25Z"/>
      <path class="cls-1" d="m41.38,9.06c-1.2,0-2.41,0-3.63,0-.23,0-.47-.01-.69-.06-.39-.09-.61-.35-.63-.76-.02-.43.19-.72.6-.84.19-.05.39-.07.58-.07,1.45,0,2.89,0,4.34,0,.92,0,1.22.31,1.22,1.22,0,1.02,0,2.04,0,3.05.02,1.35-.47,2.42-1.72,3.02-1.22.58-2.36.33-3.39-.56-1.42,1.15-2.84,1.16-4.27,0-1.34.99-1.8,1.05-3.79.43v9.08c.36,0,.73,0,1.1,0,2.45.07,4.48,2.05,4.57,4.44.03.74-.29,1.11-1.04,1.11-4.8,0-9.61,0-14.41,0-.75,0-1.07-.36-1.04-1.1.08-2.37,2.08-4.35,4.51-4.45.37-.01.74,0,1.15,0v-9.12c-1.35.7-2.62.61-3.77-.4-1.43,1.16-2.85,1.15-4.27,0-1.64,1.41-3.54.87-4.44-.26-.46-.58-.67-1.25-.68-1.99,0-1.13,0-2.25,0-3.38,0-.78.32-1.1,1.11-1.12.77-.01,1.54,0,2.3,0,6.07,0,12.15,0,18.22,0,.23,0,.46,0,.69.05.47.08.72.37.71.85-.01.46-.27.72-.72.79-.23.03-.46.05-.69.05-6.38,0-12.75,0-19.13,0h-.68c0,1.12-.05,2.2.02,3.27.03.49.63.85,1.16.86.53,0,1.04-.35,1.18-.84.06-.19.07-.38.12-.57.1-.42.39-.65.8-.67.41-.02.72.19.84.61.06.19.07.39.13.57.17.57.66.93,1.24.9.58-.02,1.04-.42,1.16-1,.04-.19.02-.44.14-.56.22-.22.52-.49.79-.49.25,0,.53.28.74.49.12.12.1.37.14.56.13.58.59.98,1.17,1,.57.03,1.07-.33,1.24-.9.06-.19.07-.39.13-.57.12-.42.43-.63.84-.61.41.01.7.25.8.67.04.17.06.35.11.52.16.56.61.9,1.18.9.57,0,1.03-.34,1.19-.89.05-.17.07-.35.11-.52.1-.42.38-.66.79-.68.41-.02.72.19.85.6.06.2.08.42.15.62.17.54.66.88,1.21.86.58-.02,1.05-.42,1.18-.99.03-.14.07-.28.09-.42.09-.46.41-.68.83-.68.4,0,.71.22.8.65.03.14.06.28.09.42.12.58.58.98,1.15,1.01.57.03,1.07-.32,1.25-.89.05-.17.07-.35.11-.52.11-.44.41-.69.85-.67.43.01.73.26.82.71.03.16.06.31.1.47.15.54.62.9,1.18.91.58,0,1.15-.37,1.18-.95.07-1.02.02-2.06.02-3.18Zm-20.29,18.33h12.69c-.24-1.13-1.37-2.07-2.62-2.09-2.48-.03-4.96-.03-7.44,0-1.26.02-2.38.94-2.63,2.09Zm5.55-12.51v8.67h1.61v-8.67h-1.61Z"/>
      <path class="cls-1" d="m52.91,1.76h-2.63c-.22.97-.44,1.97-.66,2.97-.9,4.12-1.8,8.24-2.71,12.36-.15.71-.42.9-1.16.9-2.39,0-4.79,0-7.18,0-.19,0-.39,0-.61,0v2.57c.18.01.35.03.52.03,3.27,0,6.54,0,9.81.01.42,0,.61-.11.66-.54.03-.33.12-.67.22-.99.15-.48.55-.73.98-.64.43.08.7.45.67.95,0,.16-.03.32-.08.47-.29,1.07-.4,2.16-.37,3.28.04,1.62.01,3.25,0,4.88,0,.78-.32,1.11-1.11,1.11-.84,0-1.68,0-2.52,0-.81,0-1.13-.31-1.13-1.14-.01-1.64,0-3.29,0-4.93,0-.21,0-.42,0-.68h-3.52c0,.2,0,.39,0,.58,0,1.64,0,3.29,0,4.93,0,.95-.3,1.24-1.26,1.24-.8,0-1.61,0-2.41,0-.78,0-1.1-.34-1.1-1.12,0-1.86,0-3.71,0-5.59-.13-.04-.24-.09-.36-.11-.48-.08-.73-.37-.74-.84-.01-1.45-.02-2.89,0-4.34.01-.58.36-.84,1.01-.84,2.52,0,5.04,0,7.56,0,.16,0,.32,0,.53,0,.26-1.15.52-2.29.77-3.43.87-3.96,1.73-7.93,2.6-11.89.16-.73.44-.95,1.19-.96,1.27,0,2.54,0,3.8,0,.99,0,1.32.42,1.11,1.38-1.05,4.8-2.1,9.6-3.15,14.4-.02.1-.05.21-.09.31-.18.53-.59.77-1.07.63-.44-.13-.68-.54-.58-1.05.27-1.27.54-2.54.82-3.81.73-3.3,1.46-6.6,2.19-9.91.01-.05,0-.1,0-.19Zm-12.63,25.63v-5.01h-1.22v5.01h1.22Zm8.34,0v-5.01h-1.26v5.01h1.26Z"/>
    </g>
  </g>
</svg>