<svg width="27" height="28" viewBox="0 0 27 28" fill="none" xmlns="http://www.w3.org/2000/svg">
<g clip-path="url(#clip0_4_121)">
<path d="M12.7106 0.844971C13.2368 0.844971 13.7631 0.844971 14.2893 0.844971C14.3602 0.855087 14.4209 0.885435 14.4917 0.885435C16.6068 1.03718 18.5802 1.63403 20.3815 2.74681C23.883 4.89143 26.0284 7.97686 26.7874 12.0233C26.8785 12.5291 26.9291 13.045 27 13.5509V15.129C26.9797 15.22 26.9696 15.3111 26.9494 15.4122C26.8684 15.9888 26.8178 16.5857 26.6964 17.1522C25.988 20.3894 24.3283 23.0499 21.687 25.0529C18.398 27.5415 14.7042 28.371 10.6664 27.5213C7.43811 26.8435 4.80693 25.1541 2.80318 22.5441C0.627392 19.7318 -0.273282 16.525 0.0707955 12.9945C0.344034 10.1316 1.45723 7.60256 3.35978 5.44782C5.4546 3.08064 8.05543 1.6138 11.1724 1.05741C11.6784 0.966364 12.1945 0.915784 12.7106 0.844971ZM14.3602 25.6194C19.6225 25.3159 24.0955 21.0166 24.7027 15.9484H22.8305V14.2286H24.814C24.8849 8.45231 20.0678 3.36389 14.35 3.06041V4.97236H12.6296V3.01994C9.37102 3.33354 6.70948 4.71946 4.66525 7.22826C3.0157 9.25149 2.2061 11.5984 2.14538 14.2286H4.27057V15.9484H2.28706C3.03594 21.664 8.13639 25.4778 12.6499 25.5891V23.6872H14.35V25.6093L14.3602 25.6194Z" fill="#009B8C"/>
<path d="M14.4513 11.3759C14.4513 12.5898 14.4513 13.8038 14.4513 15.0177C14.4513 15.1796 14.5019 15.2706 14.6436 15.3414C15.7669 15.9686 16.8902 16.6059 18.0135 17.2433C18.6207 17.5872 18.7624 18.2549 18.3677 18.7607C18.1248 19.0642 17.72 19.2058 17.3557 19.0945C17.214 19.0541 17.0825 18.9832 16.9509 18.9124C15.6859 18.2043 14.431 17.4759 13.166 16.7779C12.7005 16.525 12.488 16.171 12.488 15.6348C12.4981 13.0552 12.488 10.4654 12.488 7.88583C12.488 7.41037 12.6398 7.03607 13.0851 6.84387C13.7429 6.5505 14.4513 7.02596 14.4513 7.77455C14.4513 8.97837 14.4513 10.1822 14.4513 11.386V11.3759Z" fill="#009B8C"/>
</g>
<defs>
<clipPath id="clip0_4_121">
<rect width="27" height="27" fill="white" transform="translate(0 0.844971)"/>
</clipPath>
</defs>
</svg>
