<svg width="24" height="24" viewBox="0 0 24 24" fill="none" xmlns="http://www.w3.org/2000/svg">
<path d="M16.87 14.78C17.68 14.78 18.47 14.76 19.26 14.78C19.66 14.79 19.87 14.7 19.91 14.26C20 13.34 20.12 12.43 20.25 11.52C20.3 11.19 20.17 11.14 19.89 11.15C19 11.15 18.11 11.15 17.22 11.15C16.98 11.15 16.81 11.11 16.82 10.83C16.83 10.08 16.79 9.33003 16.88 8.59003C16.98 7.72003 17.4 7.38003 18.28 7.35003C18.85 7.33003 19.43 7.33003 20 7.35003C20.3 7.35003 20.43 7.27003 20.42 6.95003C20.4 6.14003 20.42 5.33003 20.4 4.52003C20.4 4.38003 20.24 4.12003 20.15 4.11003C18.67 4.00003 17.17 3.75003 15.72 4.33003C14.43 4.85003 13.56 5.78003 13.33 7.14003C13.14 8.26003 13.18 9.41003 13.12 10.55C13.12 10.72 13.12 10.9 13.12 11.16C12.43 11.16 11.77 11.16 11.11 11.16C10.4367 11.16 10.1 11.4934 10.1 12.16C10.1 12.76 10.1 13.37 10.1 13.97C10.1 14.93 10.1 14.77 10.93 14.78C11.64 14.78 12.35 14.78 13.09 14.78V23.58C12.91 23.59 12.76 23.61 12.61 23.61C9.16001 23.61 5.71001 23.61 2.26001 23.61C1.43001 23.61 0.880005 23.08 0.880005 22.25C0.880005 15.51 0.880005 8.76003 0.880005 2.02003C0.880005 1.11003 1.41001 0.590027 2.35001 0.590027C4.47001 0.590027 6.58 0.590027 8.7 0.590027C13.25 0.590027 17.8 0.590027 22.35 0.590027C23.43 0.590027 23.92 1.07003 23.92 2.16003C23.92 8.86003 23.92 15.55 23.92 22.25C23.92 23.07 23.41 23.61 22.6 23.61C20.85 23.61 19.1 23.61 17.35 23.62C16.99 23.62 16.84 23.5 16.84 23.13C16.84 20.47 16.84 17.82 16.84 15.16C16.84 15.05 16.87 14.95 16.89 14.79L16.87 14.78Z" fill="#2679CD"/>
</svg>
