<svg width="34" height="26" viewBox="0 0 34 26" fill="none" xmlns="http://www.w3.org/2000/svg">
<g clip-path="url(#clip0_4_118)">
<path d="M34 14.668C33.748 15.4853 33.1734 15.9144 32.367 16.0983C31.8832 16.2107 31.4094 16.3844 30.9357 16.5172C30.1898 16.7318 29.5144 16.5172 29.0507 15.9042C28.8491 15.6284 28.6475 15.7918 28.4358 15.8225C28.3451 17.8556 27.6193 18.5912 25.7344 18.581C25.4824 19.9398 24.6961 20.7265 23.2748 20.8491C23.2547 21.5131 23.0833 22.1363 22.5894 22.6063C22.1156 23.0661 21.5612 23.3317 20.8657 23.301C20.7851 24.3636 20.3415 25.1809 19.3839 25.6406C18.3759 26.131 17.5393 25.7224 16.743 25.0992C16.0575 25.5793 15.3318 25.7632 14.5354 25.5078C13.7593 25.2524 13.2452 24.7211 12.963 23.9345C11.461 24.4147 10.453 23.8425 9.79782 22.4531C9.04182 22.7493 8.32613 22.6983 7.64069 22.2487C6.96533 21.8094 6.61252 21.1658 6.54196 20.3587C6.25972 20.3076 5.98756 20.2871 5.72548 20.1952C4.22355 19.715 3.64899 17.8862 4.59651 16.5479C4.81828 16.2414 4.8586 16.0064 4.67716 15.6795C4.51587 15.3934 4.42515 15.0563 4.29411 14.7191C3.88083 14.9745 3.44739 15.138 2.98371 15.0358C2.71155 14.9745 2.43938 14.8519 2.19746 14.6987C1.7237 14.3922 1.2701 14.055 0.806417 13.7179C-0.0907073 13.064 -0.262068 12.0832 0.372975 11.1637C2.58051 7.99659 4.79812 4.82944 7.00565 1.67252C7.65077 0.753024 8.64869 0.599775 9.56598 1.2332C9.96918 1.51927 10.3522 1.81555 10.7554 2.0914C11.5215 2.60223 11.8743 3.27652 11.6525 4.22667C12.0255 4.22667 12.3783 4.22667 12.721 4.22667C12.9529 4.22667 13.1948 4.19602 13.4166 4.22667C14.1826 4.34926 14.8782 4.23688 15.5334 3.7567C15.8055 3.55237 16.249 3.53194 16.6119 3.53194C19.0614 3.54215 21.5008 3.60345 23.9502 3.61367C24.3836 3.61367 24.8272 3.52172 25.2606 3.4502C25.3413 3.43999 25.4521 3.30717 25.4622 3.21522C25.5832 2.38768 26.0771 1.9075 26.8432 1.68273C27.3573 1.52948 27.8613 1.37624 28.3653 1.2332C29.4237 0.936923 30.2906 1.40689 30.6131 2.47963C30.9155 3.47064 31.1978 4.47186 31.4901 5.47309C32.2763 8.18049 33.0626 10.8879 33.8488 13.5953C33.8992 13.7587 33.9496 13.912 33.9899 14.0755V14.6782L34 14.668ZM12.7714 5.59569C12.711 5.57526 12.6908 5.55482 12.6606 5.55482C12.0759 5.55482 11.4913 5.55482 10.9066 5.56504C10.826 5.56504 10.7353 5.64677 10.6849 5.71829C8.91078 8.252 7.14677 10.7857 5.38276 13.3194C5.33236 13.3909 5.28196 13.4931 5.30212 13.5544C5.45332 13.9937 5.62468 14.4228 5.79604 14.8621C7.67093 13.2275 9.27366 13.534 10.1204 15.6999C10.8058 15.5364 11.4207 15.7408 11.9953 16.129C12.5698 16.5377 12.842 17.1404 12.9932 17.8045C14.3641 17.7023 15.5535 18.489 15.7047 20.2667C17.8115 20.2974 18.7489 22.5552 17.7006 24.0571C17.8215 24.1388 17.9425 24.2103 18.0635 24.2921C18.5675 24.6292 19.1319 24.4964 19.4646 23.9753C19.7771 23.4952 19.6662 22.923 19.1823 22.5961C18.9404 22.4224 18.6783 22.2692 18.4465 22.0751C18.1643 21.8503 18.1139 21.4825 18.2953 21.1964C18.4868 20.9001 18.8396 20.798 19.1723 20.9921C19.4444 21.1453 19.6863 21.3395 19.9484 21.5029C20.1601 21.6357 20.3819 21.7788 20.6137 21.8605C21.0673 22.024 21.5814 21.8605 21.8435 21.5131C22.0854 21.1964 22.0854 20.6856 21.8132 20.2769C21.6822 20.0726 21.5008 19.8989 21.3092 19.7559C20.8758 19.4187 20.4222 19.1225 19.9887 18.7853C19.6964 18.5503 19.646 18.1621 19.8375 17.8862C20.0291 17.6002 20.3919 17.5287 20.7246 17.7023C20.8153 17.7534 20.896 17.8147 20.9766 17.8658C21.5915 18.3051 22.1963 18.7547 22.8212 19.1838C23.3555 19.5618 23.9502 19.4596 24.303 18.9386C24.6357 18.4482 24.5147 17.876 24.0006 17.5082C23.3454 17.0281 22.6801 16.5683 22.0249 16.0881C21.9241 16.0166 21.8233 15.9451 21.7427 15.8531C21.5108 15.6079 21.4806 15.2912 21.662 15.0256C21.8334 14.7702 22.166 14.668 22.4584 14.7906C22.5793 14.8417 22.6902 14.9234 22.8011 14.995C23.6478 15.5977 24.4945 16.2107 25.3513 16.8237C25.5126 16.9361 25.684 17.0485 25.8654 17.12C26.5105 17.3856 27.1456 17.0383 27.2363 16.3538C27.2968 15.894 27.0448 15.5364 26.6819 15.2708C23.6176 13.064 20.5432 10.8572 17.4788 8.66067C17.0756 8.3746 16.8035 8.40525 16.4406 8.7424C15.8962 9.26344 15.3721 9.81514 14.7975 10.3055C14.4548 10.6018 14.0718 10.8572 13.6585 11.0309C12.2473 11.6235 10.7554 10.4179 10.9973 8.88543C11.0477 8.5585 11.209 8.22135 11.3703 7.93529C11.8239 7.13839 12.3178 6.35172 12.8017 5.55482L12.7714 5.59569ZM28.587 14.4024C27.6496 11.1637 26.7121 7.93529 25.7949 4.75793C25.0489 4.81923 24.3635 4.92139 23.668 4.92139C21.3193 4.92139 18.9807 4.86009 16.6321 4.83966C16.4204 4.83966 16.1886 4.89074 16.0071 4.99291C15.3519 5.39136 14.7169 5.81024 14.0718 6.22912C13.9508 6.31085 13.8298 6.4028 13.7593 6.5254C13.2754 7.31208 12.7916 8.10897 12.3279 8.90586C12.1666 9.18171 12.2271 9.45756 12.4287 9.68232C12.6404 9.91731 12.9226 9.95817 13.1847 9.81514C13.477 9.65168 13.7593 9.46778 14.0012 9.25323C14.5254 8.78326 15.0193 8.28265 15.5233 7.80247C16.3398 7.02601 17.2873 6.94428 18.2046 7.59814C21.2588 9.78449 24.3131 11.9708 27.3371 14.1878C27.7403 14.4841 28.0931 14.5454 28.5769 14.3922L28.587 14.4024ZM32.7198 14.4024C32.6694 14.2083 32.6493 14.1163 32.619 14.0142C32.3066 12.9414 31.9941 11.8687 31.6816 10.7959C30.9256 8.1907 30.1696 5.57526 29.4035 2.97002C29.2624 2.47963 29.1213 2.3979 28.6677 2.53071C28.1939 2.67374 27.7101 2.80656 27.2363 2.94959C26.7928 3.08241 26.7021 3.24587 26.8331 3.6954C27.3875 5.6059 27.9419 7.51641 28.4963 9.42691C29.0205 11.225 29.5446 13.0334 30.0688 14.8315C30.1797 15.2197 30.3309 15.3321 30.6534 15.2504C31.228 15.0971 31.8026 14.9234 32.367 14.7293C32.5082 14.6782 32.609 14.4943 32.7098 14.4024H32.7198ZM8.41685 2.1527C8.29589 2.25486 8.15477 2.3366 8.06405 2.45919C5.8666 5.6059 3.66915 8.75262 1.4717 11.8993C1.23986 12.2365 1.28018 12.4102 1.61282 12.6554C2.03618 12.9619 2.45954 13.2683 2.88291 13.5646C3.24579 13.82 3.41715 13.7894 3.67923 13.4216C5.8666 10.2851 8.05397 7.13839 10.2413 4.0019C10.4732 3.67497 10.453 3.53194 10.1405 3.29696C9.68694 2.95981 9.22326 2.63288 8.75957 2.30595C8.66885 2.24465 8.56805 2.214 8.41685 2.1527ZM9.04182 21.3395C9.18294 21.2577 9.48534 21.1658 9.64662 20.9614C10.2817 20.1543 10.8865 19.3268 11.4812 18.489C11.5618 18.3766 11.6021 18.203 11.6122 18.0497C11.6122 17.6308 11.3098 17.2324 10.9066 17.0894C10.4933 16.9361 10.0901 17.0383 9.8079 17.4061C9.22326 18.1723 8.63861 18.959 8.07413 19.7457C7.84229 20.0726 7.84229 20.4404 8.03381 20.798C8.22533 21.1351 8.52773 21.2884 9.04182 21.3497V21.3395ZM6.41092 18.9794C6.41092 18.9794 6.44116 19.0305 6.46132 19.0612C6.73349 18.9079 7.06613 18.8057 7.25765 18.581C7.74149 17.9986 8.18501 17.3856 8.59829 16.7522C8.91078 16.272 8.76966 15.6795 8.36645 15.3627C7.98341 15.0665 7.40885 15.138 7.00565 15.5262C6.95525 15.5773 6.89477 15.6386 6.85445 15.6999C6.50164 16.1801 6.13876 16.6705 5.78596 17.1609C5.68516 17.3039 5.59444 17.4674 5.54404 17.6308C5.32228 18.3153 5.75572 18.9692 6.41092 18.9692V18.9794ZM11.078 21.5847C11.0981 22.1057 11.2292 22.4735 11.6324 22.6778C12.0457 22.8924 12.4791 22.8106 12.7714 22.5041C13.2855 21.9729 13.7492 21.3803 14.1726 20.7673C14.4246 20.3995 14.3742 19.95 14.1121 19.5618C13.8903 19.2348 13.5476 19.0714 13.1847 19.1838C12.8722 19.2859 12.5497 19.4596 12.3279 19.6946C11.9247 20.1237 11.5921 20.6141 11.2493 21.1045C11.1385 21.2577 11.1183 21.4723 11.078 21.5744V21.5847ZM16.743 22.7391C16.743 22.2998 16.5011 21.9014 16.0978 21.7379C15.6946 21.5744 15.2612 21.6868 14.9588 22.024C14.7874 22.2181 14.6564 22.4428 14.475 22.6165C14.1625 22.9128 14.1927 23.4645 14.4145 23.8221C14.6362 24.1695 15.0898 24.3636 15.5132 24.2716C16.0273 24.149 16.7329 23.2806 16.743 22.7493V22.7391Z" fill="#009B8C"/>
</g>
<defs>
<clipPath id="clip0_4_118">
<rect width="34" height="25" fill="white" transform="translate(0 0.844971)"/>
</clipPath>
</defs>
</svg>
