<svg width="25" height="25" viewBox="0 0 25 25" fill="none" xmlns="http://www.w3.org/2000/svg">
<path d="M0.369994 12.08C0.369994 10.25 0.319996 8.43004 0.379996 6.60004C0.439996 4.93004 1.1 3.46004 2.27 2.25004C3.68 0.780035 5.42999 0.100035 7.45999 0.110035C10.84 0.110035 14.22 0.100035 17.6 0.110035C19.31 0.120035 20.81 0.710035 22.09 1.84004C23.45 3.04004 24.25 4.54004 24.37 6.34004C24.46 7.69004 24.43 9.05003 24.44 10.4C24.44 12.66 24.46 14.93 24.44 17.19C24.42 18.77 23.93 20.19 22.94 21.43C21.79 22.87 20.3 23.68 18.5 23.98C18.17 24.03 17.84 24.05 17.51 24.05C14.12 24.05 10.73 24.06 7.33999 24.05C5.55999 24.05 3.98 23.48 2.65 22.28C1.38 21.13 0.559995 19.69 0.449995 17.98C0.339995 16.34 0.379995 14.68 0.359995 13.03C0.359995 12.71 0.359995 12.39 0.359995 12.07H0.379996L0.369994 12.08ZM12.42 2.41004C12.42 2.41004 12.42 2.40004 12.42 2.39004C10.73 2.39004 9.03999 2.39004 7.34999 2.39004C4.69999 2.39004 2.63999 4.46004 2.63999 7.10004C2.63999 10.44 2.63999 13.79 2.63999 17.13C2.63999 18.38 3.09 19.45 3.95 20.35C4.89 21.33 6.06999 21.78 7.40999 21.79C9.74999 21.8 12.1 21.79 14.44 21.79C15.58 21.79 16.71 21.79 17.85 21.74C19.22 21.69 20.28 21.03 21.14 19.99C21.86 19.12 22.16 18.1 22.16 17C22.16 13.8 22.16 10.61 22.16 7.41004C22.16 6.06004 21.81 4.87004 20.87 3.87004C20.05 3.00004 19.05 2.45004 17.86 2.42004C16.05 2.37004 14.23 2.41004 12.41 2.41004H12.42Z" fill="#2679CD"/>
<path d="M12.37 18.21C8.94003 18.19 6.12003 15.56 6.13003 12.04C6.15003 8.54002 8.87003 5.90002 12.4 5.90002C15.96 5.90002 18.57 8.57002 18.61 11.99C18.64 15.49 15.89 18.21 12.37 18.21ZM8.37003 12.05C8.28003 14.14 10.18 16.03 12.4 16.01C14.57 15.99 16.42 14.32 16.4 12.05C16.39 9.85002 14.77 8.12002 12.37 8.11002C10.06 8.09002 8.29003 10.02 8.36003 12.05H8.37003Z" fill="#2679CD"/>
<path d="M18.76 4.28002C19.58 4.28002 20.22 4.95002 20.22 5.81002C20.22 6.57002 19.54 7.22002 18.75 7.22002C17.93 7.22002 17.26 6.55002 17.27 5.74002C17.27 4.92002 17.94 4.27002 18.76 4.27002V4.28002Z" fill="#2679CD"/>
</svg>
