<svg width="33" height="40" viewBox="0 0 33 40" fill="none" xmlns="http://www.w3.org/2000/svg">
<g clip-path="url(#clip0_4_115)">
<path d="M30.8644 0.844971C30.8441 1.34237 30.8237 1.82961 30.8034 2.32701C30.6 6.52951 27.3254 9.78797 23.1153 9.97069C22.0271 10.0214 20.9288 9.98084 19.8305 9.99099C19.6983 9.99099 19.5559 9.99099 19.4034 9.99099V19.269C22.1186 19.6243 24.3661 20.8322 26.1763 22.9335C28.2712 21.6341 30.5797 21.4514 33 21.6037C32.939 21.7255 32.878 21.8473 32.817 21.9691C30.1424 27.0446 27.478 32.1201 24.8136 37.1956C24.6712 37.4696 24.5085 37.561 24.2034 37.561C19.6373 37.5509 15.0712 37.5509 10.4949 37.561C10.261 37.561 9.99662 37.6625 9.81357 37.7945C8.94916 38.4644 8.10509 39.1547 7.25085 39.8348C4.83052 37.3986 2.42035 34.9725 -0.0101624 32.5464C0.976278 31.643 1.98306 30.7091 2.98984 29.7854C4.21018 28.6688 5.43052 27.5522 6.63052 26.4254C6.86441 26.2021 7.09831 26.0803 7.4034 26.1412C8.16611 26.2731 8.53221 25.9991 8.8678 25.2479C10.4237 21.8372 13.139 19.8882 16.8305 19.2893C16.8915 19.2893 16.9525 19.269 17.0441 19.2588V14.5589C15.9864 14.5589 14.9492 14.5995 13.9119 14.5488C13.0881 14.5082 12.2542 14.4371 11.461 14.2341C8.53221 13.5134 6.1017 10.7523 5.7356 7.76793C5.64407 7.00661 5.64407 6.23513 5.59323 5.4129C5.79662 5.4129 5.93899 5.4129 6.07119 5.4129C7.74916 5.4129 9.42713 5.4129 11.1051 5.4129C13.3322 5.40275 15.2644 6.12347 16.8915 7.65627C16.9525 7.71717 17.0237 7.75778 17.0441 7.77808C17.3187 6.9863 17.5017 6.16408 17.8678 5.42306C19.1492 2.85486 21.2237 1.36267 24.061 0.916027C24.1424 0.905876 24.2237 0.865273 24.3051 0.844971C26.4915 0.844971 28.678 0.844971 30.8746 0.844971H30.8644ZM7.4339 36.7794C7.94238 36.3733 8.46102 35.9369 9.00001 35.541C9.18306 35.409 9.44746 35.2973 9.68136 35.2973C14.0746 35.2872 18.4576 35.2872 22.8509 35.2973C23.1254 35.2973 23.278 35.2161 23.4102 34.9725C25.2305 31.4907 27.061 28.0089 28.8915 24.5272C28.9424 24.4358 28.9831 24.3343 29.0441 24.2023C28.9729 24.2023 28.9322 24.2023 28.9017 24.2125C27.1627 24.7708 25.7593 25.796 24.8542 27.3796C23.8576 29.1154 22.9525 30.9121 22.017 32.6885C21.8949 32.922 21.7627 33.0032 21.4881 33.0032C18.8441 32.9931 16.2 33.0032 13.5458 33.0032C13.4237 33.0032 13.3017 32.9931 13.1593 32.9829V30.7294H13.5864C15.7627 30.7294 17.939 30.7294 20.1153 30.7294C20.2475 30.7294 20.4509 30.6888 20.5017 30.5974C20.8881 29.9072 21.2441 29.1966 21.6305 28.4556C21.4881 28.4556 21.4068 28.4353 21.3254 28.4353C16.922 28.4353 12.5187 28.4353 8.11526 28.4353C7.95255 28.4353 7.74916 28.5266 7.62713 28.6485C6.22374 29.9275 4.84068 31.2065 3.44746 32.4957C3.38645 32.5566 3.3356 32.6175 3.30509 32.6479C4.67797 34.0386 6.04068 35.3988 7.42374 36.7895L7.4339 36.7794ZM24.3254 24.2734C22.2 21.9894 19.5966 21.0454 16.5153 21.6849C13.9627 22.2127 12.1424 23.7455 10.9627 26.1006C11.0542 26.1209 11.0949 26.1412 11.1254 26.1412C14.9797 26.1412 18.8339 26.1412 22.678 26.1412C22.7797 26.1412 22.922 26.0701 22.9831 25.9788C23.4203 25.4408 23.8373 24.8825 24.3153 24.2734H24.3254ZM28.4034 3.12894C27.2542 3.12894 26.1356 3.10864 25.017 3.12894C23.3593 3.15939 21.9559 3.80905 20.8475 5.03732C20.1661 5.78849 19.7187 6.66147 19.5153 7.69687C20.6746 7.69687 21.7932 7.69687 22.9119 7.69687C23.1763 7.69687 23.4407 7.65627 23.7051 7.62581C25.9525 7.34159 28.0068 5.3926 28.4034 3.12894ZM16.9525 12.2851C16.6881 10.4072 15.1017 8.62061 13.2 8.0014C11.522 7.45325 9.8034 7.80853 8.07458 7.67657C8.10509 7.84914 8.11526 7.9608 8.14577 8.06231C8.72543 9.98084 9.94577 11.3005 11.8475 11.9501C13.5153 12.5186 15.2441 12.1531 16.9525 12.275V12.2851Z" fill="#009B8C"/>
</g>
<defs>
<clipPath id="clip0_4_115">
<rect width="33" height="39" fill="white" transform="translate(0 0.844971)"/>
</clipPath>
</defs>
</svg>
