<svg width="25" height="25" viewBox="0 0 25 25" fill="none" xmlns="http://www.w3.org/2000/svg">
<path d="M0 24.18C0.21 23.39 0.41 22.64 0.62 21.89C0.94 20.71 1.26 19.53 1.57 18.35C1.6 18.22 1.58 18.05 1.52 17.93C0.43 15.93 -0.13 13.79 0.04 11.53C0.44 6.49005 2.94 2.82005 7.65 0.960047C12.41 -0.939953 16.81 0.010047 20.56 3.52005C22.54 5.37005 23.68 7.70005 24.06 10.38C24.89 16.3 21.42 21.82 15.71 23.61C12.57 24.6 9.52 24.3 6.57 22.84C6.43 22.77 6.23 22.74 6.07 22.77C4.11 23.22 2.15 23.69 0.19 24.15C0.15 24.16 0.1 24.15 0 24.17L0 24.18ZM3.4 20.91C4.21 20.72 4.97 20.58 5.72 20.35C6.37 20.15 6.89 20.24 7.5 20.57C10.06 21.96 12.74 22.16 15.47 21.14C20.04 19.44 22.56 14.74 21.52 9.98005C20.68 6.17005 17.39 2.92005 12.98 2.53005C10.43 2.31005 8.1 2.96005 6.12 4.60005C3.12 7.08005 1.98 10.28 2.68 14.12C2.91 15.37 3.46 16.49 4.12 17.56C4.22 17.72 4.24 17.87 4.19 18.06C3.93 18.99 3.68 19.93 3.42 20.91H3.4Z" fill="#2679CD"/>
<path d="M5.93994 9.40003C5.95994 8.37003 6.36994 7.53003 7.09994 6.84003C7.42994 6.53003 8.30994 6.39003 8.70994 6.61003C8.85994 6.69003 8.98994 6.85003 9.05994 7.00003C9.40994 7.80003 9.74994 8.61003 10.0699 9.42003C10.1199 9.55003 10.0999 9.76003 10.0299 9.87003C9.81994 10.21 9.56994 10.54 9.31994 10.85C9.05994 11.16 9.03994 11.24 9.23994 11.57C10.2099 13.19 11.5699 14.37 13.3299 15.07C13.5899 15.18 13.7999 15.14 13.9799 14.91C14.2699 14.54 14.5799 14.18 14.8599 13.81C15.0399 13.58 15.2499 13.5 15.4999 13.62C16.3499 14.02 17.1999 14.43 18.0499 14.83C18.2899 14.94 18.2599 15.17 18.2499 15.37C18.1399 16.81 17.0499 17.83 15.5899 17.88C14.7499 17.91 13.9799 17.64 13.1999 17.39C10.6499 16.58 8.82994 14.85 7.33994 12.72C6.79994 11.95 6.29994 11.17 6.08994 10.24C6.02994 9.96003 5.99994 9.67003 5.95994 9.38003L5.93994 9.40003Z" fill="#2679CD"/>
</svg>
