<?xml version="1.0" encoding="utf-8"?>
<!-- Generator: Adobe Illustrator 28.0.0, SVG Export Plug-In . SVG Version: 6.00 Build 0)  -->
<svg version="1.1" id="Camada_1" xmlns="http://www.w3.org/2000/svg" xmlns:xlink="http://www.w3.org/1999/xlink" x="0px" y="0px"
	 viewBox="0 0 2768.3 1977.4" style="enable-background:new 0 0 2768.3 1977.4;" xml:space="preserve">
<style type="text/css">
	.st0{display:none;}
	.st1{display:inline;fill:#FFFFFF;}
	.st2{display:inline;filter:url(#Adobe_OpacityMaskFilter);}
	.st3{fill:url(#SVGID_1_);}
	.st4{display:inline;mask:url(#SVGID_00000181068410016888937490000015150823694641616283_);}
	.st5{fill:#383838;}
	.st6{fill:#222323;}
	.st7{fill:#ED721B;}
	.st8{fill-rule:evenodd;clip-rule:evenodd;fill:url(#SVGID_00000015342085661104248470000011860440412326858132_);}
	.st9{fill-rule:evenodd;clip-rule:evenodd;fill:url(#SVGID_00000047048909878008843430000004836074063106669752_);}
	.st10{fill:none;}
	.st11{fill-rule:evenodd;clip-rule:evenodd;fill:#009C8D;}
	.st12{fill:#FFFFFF;}
	.st13{fill:url(#SVGID_00000062174044045287043710000013227827323066487961_);}
	.st14{fill:none;stroke:url(#SVGID_00000066481595266673204870000009323356064511296416_);stroke-miterlimit:10;}
	.st15{fill:url(#SVGID_00000072960413507439038040000004495648561023136918_);}
	.st16{fill:none;stroke:url(#SVGID_00000117653996113131393080000000343044413492700823_);stroke-miterlimit:10;}
	.st17{fill:url(#SVGID_00000037681129100129564840000009544328202062528644_);}
</style>
<g id="Camada_2_00000065779335516434436430000001643388946996688030_" class="st0">
	<rect x="-5622" y="-200.1" class="st1" width="1023.4" height="2378.1"/>
	<defs>
		<filter id="Adobe_OpacityMaskFilter" filterUnits="userSpaceOnUse" x="-5668.6" y="-217.5" width="1078.5" height="719">
			<feColorMatrix  type="matrix" values="1 0 0 0 0  0 1 0 0 0  0 0 1 0 0  0 0 0 1 0"/>
		</filter>
	</defs>
	
		<mask maskUnits="userSpaceOnUse" x="-5668.6" y="-217.5" width="1078.5" height="719" id="SVGID_00000181068410016888937490000015150823694641616283_" style="display:inline;">
		<g style="filter:url(#Adobe_OpacityMaskFilter);">
			
				<linearGradient id="SVGID_1_" gradientUnits="userSpaceOnUse" x1="-5118.3496" y1="2175.3" x2="-5118.3496" y2="1563" gradientTransform="matrix(1 0 0 -1 0 1978)">
				<stop  offset="0" style="stop-color:#FFFFFF"/>
				<stop  offset="0.153" style="stop-color:#FCFCFC;stop-opacity:0.776"/>
				<stop  offset="0.2459" style="stop-color:#F4F4F4;stop-opacity:0.64"/>
				<stop  offset="0.3228" style="stop-color:#E6E6E6;stop-opacity:0.5274"/>
				<stop  offset="0.391" style="stop-color:#D1D1D1;stop-opacity:0.4276"/>
				<stop  offset="0.4533" style="stop-color:#B7B7B7;stop-opacity:0.3362"/>
				<stop  offset="0.5116" style="stop-color:#969696;stop-opacity:0.251"/>
				<stop  offset="0.5665" style="stop-color:#707070;stop-opacity:0.1705"/>
				<stop  offset="0.6188" style="stop-color:#434343;stop-opacity:9.392262e-02"/>
				<stop  offset="0.6674" style="stop-color:#121212;stop-opacity:2.285051e-02"/>
				<stop  offset="0.683" style="stop-color:#000000;stop-opacity:0"/>
			</linearGradient>
			<rect x="-5623.4" y="-197.3" class="st3" width="1010.1" height="612.3"/>
		</g>
	</mask>
	<g class="st4">
		<g style="enable-background:new    ;">
			
				<image style="overflow:visible;" width="3648" height="5472" xlink:href="4E197DE9.jpeg"  transform="matrix(1.206889e-17 -0.1971 0.1971 1.206889e-17 -5668.6143 501.5577)">
			</image>
		</g>
	</g>
</g>
<g id="BACKGROUND">
	<g>
		<path class="st5" d="M722.8,1149.4L722.8,1149.4C722.8,1149.4,722.8,1149.5,722.8,1149.4L722.8,1149.4z"/>
	</g>
	<g>
		<g>
			<g>
				<path class="st6" d="M-2766.8,609.8c-0.3-0.2-0.5-0.3-0.4-0.7c0.6-4.5,0.4-9-0.4-13.5c-0.1-0.5,0-0.8,0.3-1.2
					c1.6-1.6,2-3.6,1.6-5.8c-0.5-2.6-1.8-4.7-4.5-5.5c-2.6-0.8-5.1-0.1-6.5,2.2c-1.2,1.9-2.8,2.6-4.8,2.9c-0.6,0.1-1.2,0.3-1.8,0.5
					c-0.7,0.3-1,0.2-1.4-0.5c-1.8-3.6-3.7-7.3-5.6-10.9c-0.4-0.7-0.3-1.1,0.2-1.7c0.9-1.2,1.8-2.4,2.7-3.6c0.3-0.4,0.6-0.9,1-1.3
					c3.2-3.7,3.3-7.6,1.1-11.8c-2.4-4.5-4.7-9.1-7-13.7c-1-2-1.4-2.2-3.7-2c-0.5,0.1-1.1,0.1-1.6,0.3c-5.4,1.3-10.2,3.6-14.8,6.6
					c-2,1.2-3.8,2.6-5.3,4.4c-0.9,1.1-1.2,2.2-0.4,3.6c0.7,1.1,1.3,2.4,1.9,3.6c1.8,3.5,3.6,6.9,5.3,10.4c2.1,4.2,5.3,6.4,10.1,6
					c0.6-0.1,1.4-0.1,1.9-0.2c1.5,0,3,0,4.5,0c0.6,0,1,0.2,1.2,0.8c1.8,3.6,3.6,7.2,5.5,10.8c0.3,0.7,0.2,0.9-0.4,1.2
					c-1.9,0.9-3.6,2.1-5,3.7c-1.7,1.9-2.9,4.1-2.2,6.8c0.1,0.6-0.2,1-0.4,1.5c-1.7,3.8-1.3,6.6,1.6,9.5c0.3,0.3,0.4,0.6,0.5,1
					c0.5,2.3,1.9,4.1,3.9,5.4c0.4,0.3,0.9,0.6,1.1,1.1c1.4,3.1,4,4.4,7.2,4.9c1,0.1,2,0.3,2.9,0.6c2.1,0.7,4.1,0.6,5.7-1
					c0.8-0.7,0.9-0.4,1.2,0.3c1,1.9,2.1,2.3,4.1,1.5c2.2-1,2.7-2.4,1.5-4.4c-1-1.7-1.3-3,0.2-4.8
					C-2763.5,614.1-2764.2,611.6-2766.8,609.8z M-2795.6,548.1c0.9-0.4,1.3,0.2,1.6,0.9c2.2,4.3,4.4,8.7,6.6,13
					c0.1,0.3,0.2,0.6,0.3,0.7c0.1,0.7-0.2,1-0.7,1.2c-0.4,0.2-0.8,0.1-1.1-0.3c-0.2-0.3-0.4-0.7-0.6-1c-2.2-4.2-4.3-8.4-6.5-12.6
					C-2796.2,549.4-2796.5,548.6-2795.6,548.1z M-2805.3,573c-0.4,0.2-0.8,0.2-1.1-0.2c-0.2-0.3-0.4-0.6-0.6-0.9
					c-2.2-4.3-4.4-8.5-6.5-12.8c0-0.1-0.1-0.2-0.1-0.2c-0.4-0.6-0.4-1.3,0.3-1.7c0.8-0.5,1.3,0,1.6,0.7c1.5,3,3.1,6,4.6,9.1
					c0.7,1.4,1.4,2.7,2.1,4.1c0.2,0.3,0.3,0.7,0.4,0.8C-2804.7,572.5-2804.9,572.9-2805.3,573z M-2800.8,570.8
					c-0.7,0.4-1.2,0-1.5-0.7c-2.3-4.6-4.7-9.1-7-13.7c-0.4-0.8,0.1-1.7,0.9-1.6c0.5,0.1,0.8,0.3,1,0.8c2.3,4.5,4.6,9,6.9,13.5
					C-2800.1,569.8-2800.1,570.4-2800.8,570.8z M-2796.4,568.5c-0.7,0.4-1.2,0-1.5-0.6c-2.3-4.5-4.7-9.1-7-13.6
					c-0.4-0.8,0-1.7,0.9-1.7c0.5,0.1,0.9,0.4,1.1,0.9c2.3,4.5,4.6,9,6.9,13.5C-2795.7,567.5-2795.7,568.1-2796.4,568.5z
					 M-2792.1,566.3c-0.5,0.1-0.9,0-1.2-0.4c-0.4-0.6-0.7-1.3-1-1.9c-1.9-3.8-3.9-7.6-5.8-11.4c-0.1-0.2-0.2-0.3-0.2-0.5
					c-0.4-0.7-0.4-1.4,0.4-1.7c0.7-0.3,1.2,0.1,1.5,0.7c1.8,3.4,3.5,6.9,5.2,10.3c0.5,1,1,2,1.5,3c0.1,0.3,0.2,0.6,0.3,0.8
					C-2791.4,565.8-2791.7,566.2-2792.1,566.3z M-2766.2,613.5c-0.1,1.7-1.2,2.8-2.5,3.8c-1.6,1.1-3.3,2.1-5.1,2.8
					c-0.4,0.2-0.9,0.4-1.6,0.7h1.8c-0.7,2.1-2.3,2.9-4.3,2.2c-0.9-0.3-1.8-0.5-2.8-0.5c-2.7,0-4.5-1.5-5.4-4
					c-0.3-0.7-0.8-1.3-1.5-1.6c-2.1-0.9-3.2-2.7-3.8-4.8c-0.2-0.7-0.5-1.3-1.2-1.8c-1.8-1.1-2.3-2.7-1.8-4.8c0-0.1,0-0.2,0.1-0.3
					c1-1.9,1.8-3.9,1.1-6.2l0,0c-0.1-1,0.3-1.8,0.9-2.5c3.5-4,7.8-6.5,13.2-7c0.8-0.1,1.5,0.1,2.3,0.2c0.2-1.6,1-3,2.2-4.1
					c1.8-1.6,4.5-1.5,6,0.4c1,1.2,1.5,2.7,1.4,4.3c-0.1,1.9-1.4,3.4-3.3,3.8c-2.3,0.4-4.4-0.8-5.3-3c-0.6,0.6,0.3,2.1,0.4,2.2
					c1.1,1.5,2.6,2.3,4.5,2.2c0.7,0,1.1,0.3,1.4,0.9c1.1,2.2,1.5,4.5,1.6,7c-2-0.9-2-0.9-2.1-2.9c-0.1-2.9-1.7-4.7-4.6-4.8
					c-5.2-0.1-9.7,2-13.4,5.5c0,1,0.5,0.2,0.6,0.1c2.5-1.5,5.1-2.9,8-3.7c1.7-0.5,3.4-0.9,5.2-0.4c2.4,0.7,3,2.7,2.8,4.7
					c-0.1,0.7-0.7,0.4-1.1,0.4c-4.8,0.9-9.2,2.7-12.8,6c0.6,0.2,1-0.2,1.5-0.5c3.1-1.6,6.2-3.1,9.7-3.9c0.4-0.1,0.9-0.2,1.3-0.2
					c3.6-0.4,5.3,1.6,4.2,5c0,0.1,0,0.3-0.1,0.5c-1,0.9-2.4,1.1-3.5,1.6c-2.9,1.2-5.7,2.5-8.2,4.4c0.4,0.7,0.7,0,1-0.1
					c2.6-1.3,5.2-2.7,8-3.5c0.8-0.2,1.7-0.4,2.5-0.6C-2766.9,610.6-2766.1,611.4-2766.2,613.5z"/>
				<path class="st6" d="M-2622.9,643.1c0.6-5-1-9.5-4.1-13.4c-0.5-0.7-0.8-1.2-0.3-2.1c4.3-8.5,3.9-17,0-25.5
					c-4.1-8.7-12.4-14.2-20.9-13.6c-2.1,0.2-2.8-0.5-3.7-2.2c-4.9-9.4-15.1-15.6-26.8-11c-1,0.4-1.4,0.1-2-0.6
					c-2.3-2.7-5-4.8-8.2-6.4c-8.6-4.3-17.3-5.3-25.6,0.6c-5.5,3.9-8.1,9.6-9.5,16c-0.3,1.4-0.7,1.8-2.1,1.5
					c-3.2-0.6-6.4-0.4-9.5,0.6c-8,2.6-13.2,11-12.8,20.4c0.5,9.8,5.4,16.9,13.9,21.5c1.2,0.6,1.6,1.2,1.2,2.5
					c-0.4,1.4-0.6,2.9-0.9,4.4c-0.3,1.3-0.6,2.7-0.8,4c-0.8,4.8-0.4,5.3,4.4,4.9c15.3-1.2,30.2,0.9,44.8,5.1
					c11.1,3.2,21.8,7.6,32.3,12.6c1.8,0.9,2.3,0.6,2.8-1.5c0.6-2.7,1.2-5.5,1.8-8.2c0.2-1.2,0.7-1.4,1.7-0.8
					c2.5,1.3,5.1,2.3,7.9,2.8C-2630.6,656.3-2623.9,651.6-2622.9,643.1z M-2658.7,652c0.8,0.5,1.6,1,2.4,1.5
					c3.4,2.2,3.4,2.2,2.2,6.1c-4.5-2.1-9-4.2-13.6-6.2c-20.2-8.5-41.2-13.1-63.2-11.9c-0.4,0-1,0.3-1.2-0.3
					c-0.6-1.3,0.1-2.5,0.4-3.7c0.6-4.4,0.6-4.4,4.9-5.2c3.5-0.6,11-1.7,11.2-1.7c-0.5-0.1-9.5-0.4-13.4,0c-1.3,0.1-1.2-0.3-0.8-1.2
					c0.9-2,2.7-2.9,4.7-3.2c4.3-0.8,8.7-0.5,13.1-0.4c10.8,0.2,21.4,2.1,31.7,5.1c0.3,0.1,0.5,0.3,0.7,0.4
					c7.8,2.2,15.4,4.7,22.4,8.7c5.1,2.6,6.6,6.7,4.6,12.1c-0.5,1.2-1.1,0.5-1.6,0.2c-3.6-1.8-7.2-3.2-11.2-4
					C-2663,649.4-2660.9,650.7-2658.7,652z M-2637.2,650.2c-3.4-0.4-6.5-1.6-9.4-3.2c-0.6-0.3-1.1-0.7-1-1.6
					c0.1-3.4-1.9-5.6-4.5-7.4c-3-2.1-6.3-3.5-9.6-5c-2.6-1.1-2.9-2.5-1-4.5c2.2-2.4,4.9-4,8.1-5c0.7-0.3,1.4-0.6,2.3-1
					c-1.7-0.5-10.9,3-14.1,4.4c-9.4,4.3-22.7,0.9-27.9-7.3c-2.6-4-3.2-8.5-2.6-13.2c-0.1-0.6,0.1-1.2,0.2-1.8c0-0.3,0-0.7-0.5-0.4
					c-0.7,0.8-0.8,1.7-1,2.6c-1.1,2.3-1.7,8.6-1.8,8.9c-0.8,5.1-2.9,6.9-8,7.2c-2.8,0.2-5.7,0.1-8.3-1c-5-2.1-6-6.5-6-11.3
					c0-0.6,0.1-1.2,0.2-1.8l0,0l0,0c0-0.5,0-1.1,0-1.6c0-0.1,0.1-0.5-0.3-0.3c-0.2,0.1-0.2,0.3-0.3,0.5c-1.5,4.5-2.2,9.1-1.2,13.9
					c0.2,0.8-0.2,1.3-1,1.4c-1,0.2-2.1,0.3-2.9,0.8c-2.7,1.6-5,0.8-7.5-0.6c-7.7-4.6-11.2-14.9-7.8-22.9c0.1-0.2,0.1-0.3,0.2-0.5
					c2.5-7.6,10-11.2,17.1-8.3c1,0.4,1.5,0.9,1.8,1.9c1,3.3,2.7,6.4,5.5,9.3c-0.6-2.3-1.8-3.9-2-5.9c-4.6-13.2,5.9-28.2,19.8-28
					c7.2,0.1,12.4,4.1,16.7,9.4c0.6,0.8,0.2,1.2-0.4,1.6c-2.5,3.7-4.3,7.6-5.8,11.7l0,0l0,0c0,0.2-0.1,0.5,0,0.6
					c0.5,0.7,0.4-0.2,0.5-0.3c2.4-4.7,5.8-8.6,10.5-11.2c10.2-5.6,19.5-0.9,23.9,9c0.6,1.4-0.7,1.3-1.3,1.8c-1.8,1.5-3.7,3-5.5,4.4
					l0,0c1.7,0.1,3-0.8,4.4-1.4c9.1-3.9,18.8,0.1,23,5s6.3,10.5,5.9,16.9c0,2.9-0.7,5.6-1.8,8.3c-0.4,0.9-0.7,1.3-1.7,0.6
					c-1.1-0.8-2.4-1.4-3.8-2c0.7,0.9,1.4,1.7,2,2.6c3.2,3.1,5.5,6.8,7,11c0.5,1.5,0.8,3,0.7,4.6
					C-2626.7,647.5-2630.8,650.9-2637.2,650.2z"/>
				<path class="st6" d="M-2583,647.2c-0.3-0.5-0.6-0.9-0.9-1.3c-2.1-2.5-4.7-4.3-7.5-6c-2.2-1.2-4.4-2.4-6.9-2.7
					c-1.2-0.1-2.2,0.1-2.8,1.3c-0.7,1.2-1.5,2.3-2.2,3.4c-1.6,2.4-3.2,4.8-4.7,7.3c-1.4,2.3-1.4,4.6,0,6.9c0.9,1.5,1.9,3.1,2.8,4.6
					c0.3,0.5,0.3,0.9,0,1.4c-1.5,2.2-2.9,4.4-4.3,6.6c-0.3,0.5-0.6,0.7-1.2,0.4c-1.7-0.9-3.5-1.4-5.3-1.8c-0.5-0.1-0.8-0.3-1-0.8
					c-0.4-1.1-1.2-1.9-2.2-2.5c-2-1.2-4.3-0.8-5.9,0.9c-1.7,1.9-2,5-0.5,7c0.4,0.5,0.5,1,0.4,1.6c-0.7,3.2-1,6.5-0.7,9.8
					c0,0.5-0.1,0.7-0.5,0.9c-1.3,0.6-1.8,1.6-1.7,3c0,1.5,0.9,2.7,1.9,3.7c0.5,0.5,0.5,0.8,0.1,1.3c-0.2,0.2-0.3,0.4-0.4,0.6
					c-0.8,1.2-0.6,2,0.6,2.9c1.3,0.9,2.3,0.9,3.2-0.2c0.3-0.3,0.4-0.4,0.7-0.1c1.3,1.2,2.9,1.3,4.5,0.9c0.6-0.2,1.1-0.2,1.7-0.3
					c2.5-0.2,4.7-1,6.1-3.3c0.3-0.5,0.6-0.9,1.1-1.1c1.6-0.9,2.7-2.3,3.1-4.1c0.1-0.4,0.3-0.6,0.6-0.9c1.8-1.5,2.4-3.4,1.8-5.7
					c-0.3-1.4-1-2.7-0.5-4.1c0.1-0.1,0-0.3-0.1-0.5c-0.3-2.4-1.8-4-3.6-5.4c-0.5-0.4-0.5-0.6-0.2-1c1.3-2,2.7-4,3.9-6.1
					c0.6-1,1.3-1.2,2.3-1c1.9,0.3,3.8,0.5,5.2,0.7c2.7,0,4.4-0.8,5.9-2.9c2.4-3.6,4.7-7.2,7.2-10.8
					C-2582.5,649-2582.5,648.1-2583,647.2z M-2606.7,673.8c1,0.9,1.7,2.1,1.3,3.6c0,0.1,0,0.2-0.1,0.2c-0.6,1.2-0.2,2.2,0.4,3.2
					c1,1.7,0.4,3.7-1.4,4.8c-0.4,0.3-0.7,0.5-0.8,1.1c-0.5,1.9-1.6,3.3-3.6,4c-0.4,0.1-0.6,0.4-0.7,0.8c-1,2.4-2.5,3.3-5,3.2
					c-0.5,0-0.9,0.1-1.4,0.3c-1.7,0.6-3-0.1-3.6-1.9c0.4,0,0.7,0.1,1.1,0.1c0,0,0-0.1,0.1-0.1c-0.7-0.4-1.5-0.8-2.2-1.2
					c-1.2-0.7-2.5-1.3-3.4-2.4c-0.4-0.5-0.8-1-0.9-1.7c0-0.1-0.1-0.3-0.1-0.4c-0.3-1.7,0.6-2.5,2.5-2c2.2,0.5,4.3,1.6,6.3,2.6
					c0.7,0.4,1.3,0.9,2.1,1.2c-0.4-0.8-1.2-1.2-1.9-1.6c-1.9-1.3-4.1-2.3-6.2-3.1c-0.5-0.2-1-0.4-0.9-1.1c0-0.1,0.7-3.9,3.2-3.5
					c2.3,0.3,4.4,1.4,6.5,2.4c1.1,0.5,2.2,1.1,3.2,1.7c-0.5-0.9-1.3-1.4-2-1.9c-2.5-1.8-5.2-2.8-8.2-3.4c-0.6-2,0.7-3.8,2.8-3.9
					c1.5-0.1,2.8,0.3,4.1,0.9c1.9,0.8,3.6,1.8,5.3,2.9c0.2,0.1,0.3,0.5,0.6,0.1c-2.5-2.9-5.7-4.4-9.5-4.9c-2.9-0.4-4.7,1.2-4.6,4.1
					c0,0.6-0.1,1-0.7,1.2c-0.3,0.1-0.6,0.3-1,0.6c0.1-2.1,0.6-4,1.7-5.8c0.2-0.3,0.5-0.3,0.8-0.3c1.7,0.1,3-0.5,3.9-1.9l0,0
					c0,0,0.7-0.8,0.1-1.2c-1.1,2.1-3.6,2.7-5.4,1.3c-1.5-1.1-1.6-3.8-0.2-5.5c1.4-1.7,3.5-1.8,5-0.3c0.9,0.9,1.4,2,1.6,3.2
					C-2613.1,668.4-2609.8,670.9-2606.7,673.8z"/>
				<g>
					<g>
						<g>
							<path class="st7" d="M-2747.4,680.4c0.6,1.3,1.6,2.1,3,2.6c3.2,1,6.7-0.3,8.5-3.1c0.3-0.5,0.4-0.9,0.4-1.4
								c0.1-2.9,0.6-5.7,1.9-8.3c0.9-1.8,2.3-3.2,4.4-3.7c2.1-0.4,4-0.2,5.7,1.3c0.1,0.1,0.2,0.2,0.4,0.3c0.3-1.6,0.5-3.2,0.8-4.7
								c0.1-0.8,0.3-1.7,0.4-2.5c0.3-1.8-0.1-3.5-1.1-5c0.2,0,0.3,0,0.4,0c0.9,0,1.9,0,2.8,0c2.1,0,3.5,1.2,3.9,3.3
								c0.2,1.2,0,2.4-0.2,3.6c-0.5,3.5-1.1,6.9-1.6,10.4c-0.4,2.4-0.8,4.8-1.2,7.3c-0.1,0.7-0.1,1.4,0,2.1c0.1,0.9,1,1.3,1.8,0.8
								c1.2-0.8,2.1-1.8,2.3-3.2c0.5-3.5,1-6.9,1.5-10.4c0.1-1,0.3-2,0.5-3c2,0,4,0,6,0c-0.3,1.7-0.5,3.5-0.8,5.2
								c-0.5,3.1-1,6.3-1.5,9.4c-0.1,0.4,0,0.9,0.1,1.3c0.2,0.8,0.9,1.2,1.7,0.7c0.4-0.2,0.8-0.5,1-0.8c0.6-0.8,1-1.7,1.5-2.6
								c0.1-0.3,0.1-0.6,0.1-0.9c0-2.8,0.5-5.5,1.6-8c0.6-1.4,1.5-2.6,2.7-3.4c1.7-1.2,5.4-1.7,7.5,0.3c0.2,0.1,0.3,0.3,0.6,0.4
								c0.1-0.7,0.2-1.3,0.3-1.9c0.3-1.9,0.6-3.7,0.9-5.6c0.3-1.6-0.1-3.1-1-4.5c0-0.1-0.1-0.1-0.2-0.4c1.6,0.1,3.1,0,4.5,0.3
								c1.6,0.3,2.3,1.6,2.7,3.1c0.2,1.2,0,2.4-0.2,3.6c-0.5,3.2-1,6.4-1.5,9.6c-0.4,2.7-0.9,5.3-1.3,8c-0.1,0.7-0.1,1.4,0,2
								c0.2,1,1,1.3,1.9,0.8c0.8-0.5,1.4-1.3,1.8-2.1c0.4-0.7,0.6-1.3,0.6-2.2c-0.1-3.1,0.5-6,2.3-8.6c1.8-2.5,4.2-3.9,7.4-3.9
								c1.8,0,3.4,0.4,4.9,1.5c1.8,1.4,2.1,3.8,1.3,5.8c-0.6,1.6-1.7,2.8-3.1,3.7c-1.8,1.3-3.8,2.1-5.9,2.8
								c-0.2,0.1-0.3,0.1-0.5,0.2c0.7,1.5,1.8,2.3,3.3,2.6c4.2,1,7.5-1.6,8.7-4.3c1.5-3.4,2.5-6.9,3.3-10.5c0.5-2.3,0.5-1.8,2.3-1.9
								c0.8,0,1.7,0,2.5,0c0.7,0,1.2,0.3,1.5,0.9c0.6,1.2,1.2,2.3,1.8,3.5c1.1-1,2.1-1.9,3.2-2.8c0.8-0.7,1.6-1.4,2.7-1.6
								c1.1-0.2,2.1,0,2.8,0.8c0.7,0.7,0.9,1.6,0.5,2.6c-0.3,1-1,1.6-2.1,1.7c-1.1,0.2-2-0.2-2.6-1.1c-0.6-0.9-1.1-1-1.8-0.3
								c-0.7,0.6-1.2,1.4-1.8,2.1c-0.1,0.1,0,0.3,0,0.4c1.9,3.3,3.7,6.6,5.6,9.8c0.6,0.9,1,1,1.9,0.4c1-0.7,1.6-1.7,2-2.7
								c0.2-0.6,0.5-0.8,1.1-0.7c0.5,0.1,1,0,1.5,0c0,0.1,0.1,0.1,0.1,0.1c-0.7,2.3-1.6,4.5-3.3,6.3c-1.5,1.6-3.5,2.1-5.6,1.8
								c-0.9-0.1-1.5-0.9-2-1.6c-0.6-0.9-1.1-1.8-1.7-2.8c-0.9-1.6-1.8-3.2-2.6-4.8c-0.1-0.2-0.2-0.3-0.3-0.6
								c-0.2,0.5-0.5,0.8-0.6,1.3c-0.9,2.4-1.7,4.8-2.5,7.2c-0.1,0.2-0.1,0.4-0.2,0.6c-0.3,0.9-0.5,1-1.4,0.5
								c-0.2-0.1-0.4-0.2-0.6-0.4c-1.3-1-1.5-1.5-0.8-3c1.3-2.9,2.8-5.7,4.5-8.3c0.2-0.3,0.2-0.5,0-0.8c-0.7-1.2-1.3-2.5-2-3.7
								c-0.2-0.3-0.5-0.5-0.8-0.8c-0.2,0.3-0.4,0.6-0.4,1c-0.6,3-1.5,6-2.8,8.8c-1.7,3.9-4.6,6.5-8.9,7.3c-4,0.8-7.7-0.8-10-4.2
								c0-0.1-0.1-0.1-0.2-0.2c-0.2,0.4-0.4,0.8-0.7,1.1c-0.8,1.3-1.8,2.5-3.2,3.1c-2.1,0.9-4.2,0.6-6.1-0.6c-0.4-0.2-0.6-0.7-1-1
								c-1.4,1.9-3.5,2.2-5.7,2c-2.4-0.3-3.7-1.8-4.6-4c-0.4,0.6-0.8,1.2-1.2,1.8c-0.9,1.2-2,2.1-3.6,2.3s-3.1,0-4.5-0.8
								c-0.7-0.4-1.1-1-1.4-1.8c-1.3,1.5-2.6,2.7-4.7,2.7c-1.9-0.1-3.7-0.4-4.9-2.2c-1.6,2.1-3.8,2.4-6.2,1.9
								c-2.5-0.5-3.7-2.4-4.4-4.6c-1,0.9-1.9,1.9-3,2.7c-2.2,1.6-4.8,2.3-7.5,2.1c-3.8-0.3-7.4-3.4-8.1-7.2c-0.7-3.9,0-7.7,2.5-10.9
								c1.7-2.2,4.1-3.4,7-3.4c1.3,0,2.6,0.1,3.8,0.7c2.8,1.4,3.5,4,2.5,6.7c-0.6,1.6-1.7,2.7-3.1,3.7c-1.8,1.3-3.8,2.1-5.9,2.8
								C-2747.1,680.3-2747.2,680.3-2747.4,680.4z M-2730.1,678.4c0,0.3,0,0.6,0,0.9c0,1.4,0.7,2.5,1.9,2.9c1.1,0.4,2.1,0,2.6-1
								c0.2-0.4,0.3-0.8,0.4-1.2c0.6-2.1,0.9-4.3,1-6.5c0.1-1-0.4-1.9-1.1-2.2c-0.9-0.4-1.9-0.4-2.6,0.3c-0.5,0.5-1,1.2-1.3,1.9
								C-2730,675.1-2730.1,676.7-2730.1,678.4z M-2699.4,678.4c0,0.3,0,0.6,0,0.9c0,1.4,0.7,2.5,1.9,2.9c1.1,0.4,2.1,0,2.6-1
								c0.2-0.4,0.3-0.8,0.4-1.2c0.6-2.1,0.9-4.3,1-6.5c0.1-1-0.4-1.9-1.1-2.2c-0.9-0.4-1.9-0.4-2.6,0.3c-0.5,0.5-1,1.2-1.3,1.9
								C-2699.3,675.1-2699.4,676.7-2699.4,678.4z M-2748.4,678.1c0.3-0.3,0.5-0.5,0.8-0.7c1.6-1.5,3-3.3,4.2-5.2
								c0.4-0.7,0.9-1.4,1.2-2.1c0.5-1.1-0.1-1.7-1.2-1.6c-1.6,0.2-2.8,1-3.7,2.4C-2748.5,673.1-2748.7,675.5-2748.4,678.1z
								 M-2678.6,678.1c0.2-0.2,0.3-0.2,0.4-0.3c2.2-2.1,4-4.4,5.4-7.1c0.2-0.3,0.3-0.7,0.4-1c0.1-0.5-0.1-0.9-0.6-1
								c-0.3-0.1-0.6-0.1-0.9-0.1c-1.8,0.2-3,1.2-3.8,2.8C-2678.7,673.5-2678.8,675.7-2678.6,678.1z"/>
							<path class="st7" d="M-2762.3,687.5c-3.5,0-6.9,0-10.4,0c0.2-1.3,0.4-2.5,0.6-3.8c0.9-5.3,1.8-10.5,2.7-15.8
								c0-0.2,0-0.5-0.2-0.6c-1.6-1.1-3.1-2.3-4.8-3.4c-1.2-0.8-2.6-1.2-4-0.8c-0.6,0.2-1.1,0.6-1.6,1c-0.4,0.4-0.8,0.9-1.3,1.4
								c-0.3-1.2,0.2-2.2,1.1-3c1.3-1,2.8-1.5,4.3-1.7c1.9-0.2,3.8-0.1,5.8-0.2c0.6,0,1.1,0,1.8,0c0.3-2.4,0.7-4.7,1-7
								c0.4-2.6,0.8-5.1,1.1-7.7c0.2-1.9,0.3-3.9-0.6-5.7c-0.3-0.7-0.6-1-1.4-0.8c-8.9,2.3-16,6.9-20.1,15.5
								c-1.5,3.2-2.8,6.4-3.1,10c-0.5,5.9,0.9,11.2,5.6,15.3c0.9,0.8,1,0.8,1.9,0c0.5-0.5,1.1-1,1.5-1.6c0.3-0.4,0.6-0.6,1.1-0.6
								c2.8,0,5.6,0,8.5,0c-0.1,0.2-0.2,0.4-0.3,0.5c-1.7,2.2-4,3.5-6.8,3.8c-2.9,0.3-5.7,0.5-8.6,0.5c-6,0-11.9-5.2-12.6-10.9
								c-0.6-4.9,0-9.6,2.3-13.9c4.8-9.2,11.9-15.7,22-18.8c2.4-0.7,5-0.9,7.5-0.9c5.1,0,10.2,0,15.4,0c3,0,6.1,0.2,8.9,1.4
								c3.5,1.5,5.9,3.8,6.5,7.8c0.3,2.3-0.2,4.5-0.6,6.7c-1.5,6.8-6,10.5-12.4,12.3c-2.1,0.6-4.2,1.1-6.3,1.6
								c-0.9,0.2-1.2,0.5-1.4,1.4C-2760.2,675.5-2761.3,681.4-2762.3,687.5z M-2758.2,663.4c1.3,0.5,2.5,1,3.7,1.5
								c0.6,0.3,1.1,0.3,1.5-0.1c0.7-0.6,1.4-1.2,1.9-2c1.7-2.3,2.9-5,3.5-7.8c1.1-4.6-0.3-7.9-4.3-10.3c-0.8-0.5-1.6-0.8-2.5-1.2
								c-0.2-0.1-0.4-0.1-0.6-0.2C-2756.1,650.2-2757.1,656.9-2758.2,663.4z"/>
							<path class="st7" d="M-2709.1,664.1c-1.8,0-3.2-1.4-3.2-3.2s1.4-3.2,3.2-3.2s3.3,1.4,3.3,3.3
								C-2705.8,662.7-2707.2,664.1-2709.1,664.1z"/>
						</g>
					</g>
					
						<text transform="matrix(1 0 0 1 -2777.9172 696.7425)" class="st6" style="font-family:'Montserrat-ExtraBold'; font-size:8.2009px;">cardáio e comanda digital</text>
				</g>
				<g>
					<path class="st7" d="M-2822,663.3L-2822,663.3L-2822,663.3L-2822,663.3z"/>
				</g>
			</g>
		</g>
	</g>
	
		<linearGradient id="SVGID_00000026885340462349780930000004688413444249665429_" gradientUnits="userSpaceOnUse" x1="-3589.5" y1="157.65" x2="-1962.6" y2="157.65" gradientTransform="matrix(1 0 0 -1 0 1978)">
		<stop  offset="5.154639e-03" style="stop-color:#009C8D"/>
		<stop  offset="0.3" style="stop-color:#096F7B"/>
		<stop  offset="0.596" style="stop-color:#133D67"/>
	</linearGradient>
	<path style="fill-rule:evenodd;clip-rule:evenodd;fill:url(#SVGID_00000026885340462349780930000004688413444249665429_);" d="
		M-1962.6,1036.4v1567.9h-1626.9V1036.4c225.3,44.7,507.4,71.4,813.4,71.4C-2470,1107.8-2188,1081.2-1962.6,1036.4z"/>
	
		<linearGradient id="SVGID_00000016075016415696870170000000841148909489774752_" gradientUnits="userSpaceOnUse" x1="-3756" y1="-9.75" x2="-1644.5" y2="-9.75" gradientTransform="matrix(1 0 0 -1 0 1978)">
		<stop  offset="0" style="stop-color:#ED9A1B"/>
		<stop  offset="0.6199" style="stop-color:#ED6D1B"/>
		<stop  offset="1" style="stop-color:#ED4F1B"/>
	</linearGradient>
	<path style="fill-rule:evenodd;clip-rule:evenodd;fill:url(#SVGID_00000016075016415696870170000000841148909489774752_);" d="
		M-1769.4,965.7l124.9,1914.5l-1986.6,129.6L-3756,1095.3c278.7,36.7,625.2,46.7,999,22.3C-2383.3,1093.2-2041,1038.3-1769.4,965.7z
		"/>
	<path class="st10" d="M-1769.4,965.7l124.9,1914.5l-1986.6,129.6L-3756,1095.3c278.7,36.7,625.2,46.7,999,22.3
		C-2383.3,1093.2-2041,1038.3-1769.4,965.7z"/>
	<path class="st10" d="M-1769.4,965.7l124.9,1914.5l-1986.6,129.6L-3756,1095.3c278.7,36.7,625.2,46.7,999,22.3
		C-2383.3,1093.2-2041,1038.3-1769.4,965.7z"/>
	<g>
		<path class="st5" d="M-3361.6,1149.4L-3361.6,1149.4C-3361.6,1149.4-3361.6,1149.5-3361.6,1149.4L-3361.6,1149.4z"/>
	</g>
	<g>
		<path class="st11" d="M-2607.2,1294h-186.2c-13.6,0-24.5-11-24.5-24.5l0,0c0-13.6,11-24.5,24.5-24.5h186.2
			c13.6,0,24.5,11,24.5,24.5l0,0C-2582.6,1283-2593.6,1294-2607.2,1294z"/>
		<g>
			<g>
				<g>
					<path class="st12" d="M-2777.5,1276.6v-13.9h9.5v3.3h-5.7v2.3h4.7v3.1h-4.7v5.2H-2777.5z"/>
					<path class="st12" d="M-2762.8,1262.7h4.3l4.4,13.9h-3.9l-0.7-2.7h-3.9l-0.7,2.7h-3.9L-2762.8,1262.7z M-2759.4,1271.4
						l-1.3-4.9l-1.3,4.9H-2759.4z"/>
					<path class="st12" d="M-2753.2,1269.5c0-0.8,0.2-1.7,0.5-2.5s0.8-1.6,1.4-2.2c0.6-0.7,1.4-1.2,2.2-1.6c0.9-0.4,1.9-0.6,3-0.6
						c1.3,0,2.5,0.3,3.5,0.8c1,0.6,1.7,1.3,2.2,2.2l-2.9,2.1c-0.2-0.5-0.4-0.8-0.7-1.1c-0.3-0.2-0.7-0.4-1-0.5
						c-0.4-0.1-0.7-0.1-1.1-0.1c-0.5,0-1,0.1-1.4,0.3c-0.4,0.2-0.7,0.5-1,0.9s-0.4,0.7-0.6,1.2c-0.1,0.4-0.2,0.9-0.2,1.3
						c0,0.5,0.1,0.9,0.2,1.4c0.1,0.4,0.4,0.8,0.6,1.2c0.3,0.3,0.6,0.6,1,0.8c0.4,0.2,0.8,0.3,1.3,0.3c0.4,0,0.7-0.1,1.1-0.2
						c0.4-0.1,0.7-0.3,1-0.5s0.5-0.6,0.7-1l3.1,1.9c-0.3,0.7-0.7,1.3-1.4,1.7c-0.6,0.5-1.4,0.9-2.2,1.1c-0.8,0.3-1.6,0.4-2.4,0.4
						c-1,0-2-0.2-2.8-0.6c-0.9-0.4-1.6-1-2.2-1.6s-1.1-1.5-1.4-2.3C-2753,1271.3-2753.2,1270.4-2753.2,1269.5z M-2746.5,1280.9
						c-0.4,0-0.8-0.1-1.2-0.2s-0.8-0.3-1.3-0.5l0.9-1.9c0.1,0.1,0.3,0.2,0.5,0.3c0.2,0.1,0.3,0.1,0.5,0.1s0.4-0.1,0.6-0.2
						c0.2-0.1,0.2-0.3,0.2-0.6c0-0.2-0.1-0.4-0.2-0.7c-0.1-0.2-0.3-0.5-0.6-0.7l1.2-0.7c0.5,0.4,0.9,0.8,1.3,1.2
						c0.4,0.4,0.5,1,0.5,1.6s-0.2,1.1-0.6,1.5C-2745.1,1280.7-2745.7,1280.9-2746.5,1280.9z"/>
					<path class="st12" d="M-2735.2,1262.7h4.3l4.4,13.9h-3.9l-0.7-2.7h-3.9l-0.7,2.7h-3.9L-2735.2,1262.7z M-2731.8,1271.4
						l-1.3-4.9l-1.3,4.9H-2731.8z"/>
					<path class="st12" d="M-2714,1276.7c-1.1,0-2.1-0.2-2.9-0.5c-0.8-0.4-1.4-0.9-1.9-1.5s-0.9-1.4-1.1-2.2
						c-0.2-0.8-0.4-1.7-0.4-2.6v-7.1h3.8v7.1c0,0.5,0,0.9,0.1,1.3s0.2,0.8,0.4,1.1c0.2,0.3,0.4,0.6,0.8,0.8c0.3,0.2,0.7,0.3,1.1,0.3
						c0.5,0,0.8-0.1,1.2-0.3c0.3-0.2,0.6-0.4,0.8-0.8c0.2-0.3,0.3-0.7,0.4-1.1c0.1-0.4,0.1-0.8,0.1-1.3v-7.1h3.8v7.1
						c0,1-0.1,1.9-0.4,2.7c-0.3,0.8-0.6,1.6-1.1,2.2s-1.2,1.1-1.9,1.5C-2712,1276.5-2712.9,1276.7-2714,1276.7z"/>
					<path class="st12" d="M-2694.5,1276.6v-7.3l-2.3,5.1h-2l-2.3-5.1v7.3h-3.8v-13.9h4.2l3,6.5l3-6.5h4.1v13.9H-2694.5z"/>
					<path class="st12" d="M-2672.1,1266.1h-4v10.6h-3.8v-10.6h-4v-3.3h11.8V1266.1z"/>
					<path class="st12" d="M-2660.4,1273.3v3.3h-9.9v-13.9h9.7v3.3h-5.9v2h5v3.1h-5v2.2H-2660.4z"/>
					<path class="st12" d="M-2649.7,1267.3c-0.4-0.3-0.8-0.5-1.2-0.6c-0.4-0.2-0.8-0.3-1.2-0.4s-0.9-0.2-1.3-0.2
						c-0.3,0-0.6,0.1-0.8,0.2s-0.3,0.3-0.3,0.5s0.1,0.4,0.3,0.6c0.2,0.1,0.5,0.3,0.9,0.4s0.8,0.3,1.4,0.4c0.9,0.3,1.6,0.6,2.2,0.9
						s1.1,0.8,1.4,1.3c0.3,0.5,0.5,1.2,0.5,2.1c0,0.8-0.1,1.5-0.4,2.1c-0.3,0.6-0.7,1-1.2,1.3s-1.1,0.6-1.7,0.7s-1.3,0.2-1.9,0.2
						c-0.7,0-1.4-0.1-2.1-0.2s-1.4-0.3-2.1-0.6c-0.7-0.2-1.3-0.5-1.9-0.9l1.6-3.3c0.5,0.3,1,0.6,1.4,0.8c0.4,0.2,0.9,0.4,1.4,0.5
						c0.5,0.2,1.1,0.2,1.6,0.2c0.4,0,0.7-0.1,0.9-0.2s0.2-0.2,0.2-0.4c0-0.3-0.1-0.5-0.4-0.6c-0.3-0.1-0.7-0.3-1.1-0.4
						s-1-0.3-1.5-0.5c-0.8-0.3-1.5-0.6-2-0.9s-0.9-0.8-1.2-1.2c-0.2-0.5-0.4-1-0.4-1.7c0-1,0.2-1.9,0.7-2.6s1.1-1.2,1.9-1.6
						c0.8-0.4,1.6-0.5,2.6-0.5c0.7,0,1.3,0.1,2,0.2c0.6,0.2,1.2,0.4,1.8,0.6s1,0.5,1.5,0.7L-2649.7,1267.3z"/>
					<path class="st12" d="M-2634.7,1266.1h-4v10.6h-3.8v-10.6h-4v-3.3h11.8V1266.1z"/>
					<path class="st12" d="M-2622.9,1273.3v3.3h-9.9v-13.9h9.7v3.3h-5.9v2h5v3.1h-5v2.2H-2622.9z"/>
				</g>
			</g>
		</g>
	</g>
	
		<linearGradient id="SVGID_00000134965595804497085250000013999104196919919023_" gradientUnits="userSpaceOnUse" x1="1114.9532" y1="154.3872" x2="543.0703" y2="904.3718" gradientTransform="matrix(1 0 0 -1 0 1978)">
		<stop  offset="0" style="stop-color:#FFFFFF;stop-opacity:0"/>
		<stop  offset="4.885797e-02" style="stop-color:#FEF6F0;stop-opacity:6.447923e-02"/>
		<stop  offset="0.543" style="stop-color:#F29858;stop-opacity:0.7166"/>
		<stop  offset="0.7577" style="stop-color:#ED721B"/>
	</linearGradient>
	<path style="fill:url(#SVGID_00000134965595804497085250000013999104196919919023_);" d="M1184.5,2153.3l-555.9-815
		c-10.2-14.9-6.3-35.3,8.7-45.4l142.3-96.7c14.9-10.2,35.3-6.3,45.4,8.7l555.9,815c10.2,14.9,6.3,35.3-8.7,45.4l-142.3,96.7
		C1215,2172.1,1194.7,2168.2,1184.5,2153.3z"/>
	
		<linearGradient id="SVGID_00000057866789502922763840000008750987485950538659_" gradientUnits="userSpaceOnUse" x1="1741.2915" y1="210.5914" x2="2030.7739" y2="500.0739" gradientTransform="matrix(1 0 0 -1 0 1978)">
		<stop  offset="0" style="stop-color:#FFFFFF;stop-opacity:0"/>
		<stop  offset="1" style="stop-color:#ED721B"/>
	</linearGradient>
	<path style="fill:none;stroke:url(#SVGID_00000057866789502922763840000008750987485950538659_);stroke-miterlimit:10;" d="
		M2149.5,2174.3L1438.8,1196c-7.8-11.5-4.8-27.2,6.7-35l142.1-96.6c11.5-7.8,27.2-4.8,35,6.7l710.7,978.2c7.8,11.5,4.8,27.2-6.7,35
		l-142.1,96.6C2173,2188.7,2157.4,2185.8,2149.5,2174.3z"/>
	
		<linearGradient id="SVGID_00000086655297872123251470000015914490992383181463_" gradientUnits="userSpaceOnUse" x1="2835.0181" y1="-917.2971" x2="2116.3794" y2="25.1477" gradientTransform="matrix(-1 0 0 1 3485.4614 1056.9604)">
		<stop  offset="0" style="stop-color:#FFFFFF;stop-opacity:0"/>
		<stop  offset="0.2053" style="stop-color:#C5E9E5;stop-opacity:0.2053"/>
		<stop  offset="0.599" style="stop-color:#5CC0B6;stop-opacity:0.599"/>
		<stop  offset="0.8723" style="stop-color:#1AA699;stop-opacity:0.8723"/>
		<stop  offset="1" style="stop-color:#009C8D"/>
	</linearGradient>
	<path style="fill:url(#SVGID_00000086655297872123251470000015914490992383181463_);" d="M627.2-322.6l702.3,1030.3
		c10.2,14.9,6.3,35.3-8.7,45.4L996.1,973.9c-14.9,10.2-35.3,6.3-45.4-8.7L248.4-65.1c-10.2-14.9-6.3-35.3,8.7-45.4l324.7-220.7
		C596.7-341.4,617.1-337.5,627.2-322.6z"/>
	
		<linearGradient id="SVGID_00000166660777522732682790000017036103879578788266_" gradientUnits="userSpaceOnUse" x1="1278.8085" y1="2198.165" x2="2059.6335" y2="1174.1671" gradientTransform="matrix(1 0 0 -1 0 1978)">
		<stop  offset="0" style="stop-color:#FFFFFF;stop-opacity:0"/>
		<stop  offset="7.160980e-02" style="stop-color:#DFF3F1;stop-opacity:7.160980e-02"/>
		<stop  offset="0.2155" style="stop-color:#A5DCD7;stop-opacity:0.2155"/>
		<stop  offset="0.3593" style="stop-color:#72C8C0;stop-opacity:0.3593"/>
		<stop  offset="0.4998" style="stop-color:#49B8AE;stop-opacity:0.4998"/>
		<stop  offset="0.6362" style="stop-color:#29AC9F;stop-opacity:0.6362"/>
		<stop  offset="0.7674" style="stop-color:#12A395;stop-opacity:0.7674"/>
		<stop  offset="0.8912" style="stop-color:#059E8F;stop-opacity:0.8912"/>
		<stop  offset="1" style="stop-color:#009C8D"/>
	</linearGradient>
	<path style="fill:none;stroke:url(#SVGID_00000166660777522732682790000017036103879578788266_);stroke-miterlimit:10;" d="
		M1431.6-280l683.2,1002.3c10.2,14.9,6.3,35.3-8.7,45.4l-153.9,104.6c-14.9,10.2-35.3,6.3-45.4-8.7L1223.6-138.6
		c-10.2-14.9-6.3-35.3,8.7-45.4l153.9-104.6C1401.1-298.9,1421.4-295,1431.6-280z"/>
	
		<linearGradient id="SVGID_00000044178741230269640690000012546976616360529827_" gradientUnits="userSpaceOnUse" x1="1600.3794" y1="20.548" x2="1303.2172" y2="410.2553" gradientTransform="matrix(-1 0 0 1 3485.4614 1056.9604)">
		<stop  offset="0" style="stop-color:#FFFFFF;stop-opacity:0"/>
		<stop  offset="7.160980e-02" style="stop-color:#DFF3F1;stop-opacity:7.160980e-02"/>
		<stop  offset="0.2155" style="stop-color:#A5DCD7;stop-opacity:0.2155"/>
		<stop  offset="0.3593" style="stop-color:#72C8C0;stop-opacity:0.3593"/>
		<stop  offset="0.4998" style="stop-color:#49B8AE;stop-opacity:0.4998"/>
		<stop  offset="0.6362" style="stop-color:#29AC9F;stop-opacity:0.6362"/>
		<stop  offset="0.7674" style="stop-color:#12A395;stop-opacity:0.7674"/>
		<stop  offset="0.8912" style="stop-color:#059E8F;stop-opacity:0.8912"/>
		<stop  offset="1" style="stop-color:#009C8D"/>
	</linearGradient>
	<path style="fill:url(#SVGID_00000044178741230269640690000012546976616360529827_);" d="M1934,872.2l266,391.4
		c10.2,14.9,6.3,35.3-8.7,45.4l-195.2,132.7c-14.9,10.2-35.3,6.3-45.4-8.7l-266-391.4c-10.2-14.9-6.3-35.3,8.7-45.4l195.2-132.7
		C1903.5,853.4,1923.8,857.3,1934,872.2z"/>
</g>
<g id="Camada_3">
</g>
</svg>
