<?xml version="1.0" encoding="UTF-8"?>
<svg id="Camada_2" data-name="Camada 2" xmlns="http://www.w3.org/2000/svg" viewBox="0 0 26.68 26.69">
  <defs>
    <style>
      .cls-1 {
        fill: #fff;
        stroke-width: 0px;
      }
    </style>
  </defs>
  <g id="Camada_1-2" data-name="Camada 1">
    <g>
      <path class="cls-1" d="m12.56,0c.52,0,1.04,0,1.56,0,.07.01.13.04.2.04,2.09.15,4.04.74,5.82,1.84,3.46,2.12,5.58,5.17,6.33,9.17.09.5.14,1.01.21,1.51v1.56c-.02.09-.03.18-.05.28-.08.57-.13,1.16-.25,1.72-.7,3.2-2.34,5.83-4.95,7.81-3.25,2.46-6.9,3.28-10.89,2.44-3.19-.67-5.79-2.34-7.77-4.92C.62,18.67-.27,15.5.07,12.01c.27-2.83,1.37-5.33,3.25-7.46C5.39,2.21,7.96.76,11.04.21c.5-.09,1.01-.14,1.52-.21Zm1.63,24.49c5.2-.3,9.62-4.55,10.22-9.56h-1.85v-1.7h1.96c.07-5.71-4.69-10.74-10.34-11.04v1.89h-1.7v-1.93c-3.22.31-5.85,1.68-7.87,4.16-1.63,2-2.43,4.32-2.49,6.92h2.1v1.7h-1.96c.74,5.65,5.78,9.42,10.24,9.53v-1.88h1.68v1.9Z"/>
      <path class="cls-1" d="m14.28,10.41c0,1.2,0,2.4,0,3.6,0,.16.05.25.19.32,1.11.62,2.22,1.25,3.33,1.88.6.34.74,1,.35,1.5-.24.3-.64.44-1,.33-.14-.04-.27-.11-.4-.18-1.25-.7-2.49-1.42-3.74-2.11-.46-.25-.67-.6-.67-1.13.01-2.55,0-5.11,0-7.66,0-.47.15-.84.59-1.03.65-.29,1.35.18,1.35.92,0,1.19,0,2.38,0,3.57Z"/>
    </g>
  </g>
</svg>