<?xml version="1.0" encoding="UTF-8"?>
<svg id="Camada_2" data-name="Camada 2" xmlns="http://www.w3.org/2000/svg" viewBox="0 0 33.73 24.47">
  <defs>
    <style>
      .cls-1 {
        fill: #fff;
        stroke-width: 0px;
      }
    </style>
  </defs>
  <g id="Camada_1-2" data-name="Camada 1">
    <path class="cls-1" d="m33.73,13.53c-.25.8-.82,1.22-1.62,1.4-.48.11-.95.28-1.42.41-.74.21-1.41,0-1.87-.6-.2-.27-.4-.11-.61-.08-.09,1.99-.81,2.71-2.68,2.7-.25,1.33-1.03,2.1-2.44,2.22-.02.65-.19,1.26-.68,1.72-.47.45-1.02.71-1.71.68-.08,1.04-.52,1.84-1.47,2.29-1,.48-1.83.08-2.62-.53-.68.47-1.4.65-2.19.4-.77-.25-1.28-.77-1.56-1.54-1.49.47-2.49-.09-3.14-1.45-.75.29-1.46.24-2.14-.2-.67-.43-1.02-1.06-1.09-1.85-.28-.05-.55-.07-.81-.16-1.49-.47-2.06-2.26-1.12-3.57.22-.3.26-.53.08-.85-.16-.28-.25-.61-.38-.94-.41.25-.84.41-1.3.31-.27-.06-.54-.18-.78-.33-.47-.3-.92-.63-1.38-.96-.89-.64-1.06-1.6-.43-2.5C2.56,7,4.76,3.9,6.95.81c.64-.9,1.63-1.05,2.54-.43.4.28.78.57,1.18.84.76.5,1.11,1.16.89,2.09.37,0,.72,0,1.06,0,.23,0,.47-.03.69,0,.76.12,1.45.01,2.1-.46.27-.2.71-.22,1.07-.22,2.43.01,4.85.07,7.28.08.43,0,.87-.09,1.3-.16.08-.01.19-.14.2-.23.12-.81.61-1.28,1.37-1.5.51-.15,1.01-.3,1.51-.44,1.05-.29,1.91.17,2.23,1.22.3.97.58,1.95.87,2.93.78,2.65,1.56,5.3,2.34,7.95.05.16.1.31.14.47v.59ZM12.67,4.65c-.06-.02-.08-.04-.11-.04-.58,0-1.16,0-1.74.01-.08,0-.17.08-.22.15-1.76,2.48-3.51,4.96-5.26,7.44-.05.07-.1.17-.08.23.15.43.32.85.49,1.28,1.86-1.6,3.45-1.3,4.29.82.68-.16,1.29.04,1.86.42.57.4.84.99.99,1.64,1.36-.1,2.54.67,2.69,2.41,2.09.03,3.02,2.24,1.98,3.71.12.08.24.15.36.23.5.33,1.06.2,1.39-.31.31-.47.2-1.03-.28-1.35-.24-.17-.5-.32-.73-.51-.28-.22-.33-.58-.15-.86.19-.29.54-.39.87-.2.27.15.51.34.77.5.21.13.43.27.66.35.45.16.96,0,1.22-.34.24-.31.24-.81-.03-1.21-.13-.2-.31-.37-.5-.51-.43-.33-.88-.62-1.31-.95-.29-.23-.34-.61-.15-.88.19-.28.55-.35.88-.18.09.05.17.11.25.16.61.43,1.21.87,1.83,1.29.53.37,1.12.27,1.47-.24.33-.48.21-1.04-.3-1.4-.65-.47-1.31-.92-1.96-1.39-.1-.07-.2-.14-.28-.23-.23-.24-.26-.55-.08-.81.17-.25.5-.35.79-.23.12.05.23.13.34.2.84.59,1.68,1.19,2.53,1.79.16.11.33.22.51.29.64.26,1.27-.08,1.36-.75.06-.45-.19-.8-.55-1.06-3.04-2.16-6.09-4.32-9.13-6.47-.4-.28-.67-.25-1.03.08-.54.51-1.06,1.05-1.63,1.53-.34.29-.72.54-1.13.71-1.4.58-2.88-.6-2.64-2.1.05-.32.21-.65.37-.93.45-.78.94-1.55,1.42-2.33Zm15.69,8.62c-.93-3.17-1.86-6.33-2.77-9.44-.74.06-1.42.16-2.11.16-2.33,0-4.65-.06-6.98-.08-.21,0-.44.05-.62.15-.65.39-1.28.8-1.92,1.21-.12.08-.24.17-.31.29-.48.77-.96,1.55-1.42,2.33-.16.27-.1.54.1.76.21.23.49.27.75.13.29-.16.57-.34.81-.55.52-.46,1.01-.95,1.51-1.42.81-.76,1.75-.84,2.66-.2,3.03,2.14,6.06,4.28,9.06,6.45.4.29.75.35,1.23.2Zm4.1,0c-.05-.19-.07-.28-.1-.38-.31-1.05-.62-2.1-.93-3.15-.75-2.55-1.5-5.11-2.26-7.66-.14-.48-.28-.56-.73-.43-.47.14-.95.27-1.42.41-.44.13-.53.29-.4.73.55,1.87,1.1,3.74,1.65,5.61.52,1.76,1.04,3.53,1.56,5.29.11.38.26.49.58.41.57-.15,1.14-.32,1.7-.51.14-.05.24-.23.34-.32ZM8.35,1.28c-.12.1-.26.18-.35.3C5.82,4.66,3.64,7.74,1.46,10.82c-.23.33-.19.5.14.74.42.3.84.6,1.26.89.36.25.53.22.79-.14,2.17-3.07,4.34-6.15,6.51-9.22.23-.32.21-.46-.1-.69-.45-.33-.91-.65-1.37-.97-.09-.06-.19-.09-.34-.15Zm.62,18.78c.14-.08.44-.17.6-.37.63-.79,1.23-1.6,1.82-2.42.08-.11.12-.28.13-.43,0-.41-.3-.8-.7-.94-.41-.15-.81-.05-1.09.31-.58.75-1.16,1.52-1.72,2.29-.23.32-.23.68-.04,1.03.19.33.49.48,1,.54Zm-2.61-2.31s.03.05.05.08c.27-.15.6-.25.79-.47.48-.57.92-1.17,1.33-1.79.31-.47.17-1.05-.23-1.36-.38-.29-.95-.22-1.35.16-.05.05-.11.11-.15.17-.35.47-.71.95-1.06,1.43-.1.14-.19.3-.24.46-.22.67.21,1.31.86,1.31Zm4.63,2.55c.02.51.15.87.55,1.07.41.21.84.13,1.13-.17.51-.52.97-1.1,1.39-1.7.25-.36.2-.8-.06-1.18-.22-.32-.56-.48-.92-.37-.31.1-.63.27-.85.5-.4.42-.73.9-1.07,1.38-.11.15-.13.36-.17.46Zm5.62,1.13c0-.43-.24-.82-.64-.98-.4-.16-.83-.05-1.13.28-.17.19-.3.41-.48.58-.31.29-.28.83-.06,1.18.22.34.67.53,1.09.44.51-.12,1.21-.97,1.22-1.49Z"/>
  </g>
</svg>