<?xml version="1.0" encoding="UTF-8"?>
<svg id="Camada_2" data-name="Camada 2" xmlns="http://www.w3.org/2000/svg" viewBox="0 0 289.85 193.86">
  <defs>
    <style>
      .cls-1, .cls-2, .cls-3 {
        stroke-width: 0px;
      }

      .cls-1, .cls-4 {
        fill: #222323;
      }

      .cls-5 {
        letter-spacing: .03em;
      }

      .cls-2 {
        fill: #ee721b;
      }

      .cls-3 {
        fill: #fff;
      }

      .cls-6 {
        letter-spacing: .03em;
      }

      .cls-7 {
        letter-spacing: .03em;
      }

      .cls-4 {
        font-family: Montserrat-ExtraBold, Montserrat;
        font-size: 9.59px;
        font-weight: 700;
      }

      .cls-8 {
        letter-spacing: .02em;
      }

      .cls-9 {
        letter-spacing: .02em;
      }
    </style>
  </defs>
  <g id="Camada_1-2" data-name="Camada 1">
    <g>
      <path class="cls-3" d="m288.6,125.56l-.16-.28c-.55-.96-1.13-1.8-1.77-2.56-2.65-3.18-6.01-5.9-10.59-8.55-3.08-1.79-6.52-3.51-10.76-4.01-4.43-.52-8.16,1.33-10.26,5.06-.38.67-.87,1.41-1.4,2.19-.33.49-.66.98-.98,1.48-.49.77-.99,1.53-1.52,2.36-1.33,2.05-2.7,4.17-4.02,6.34-3.04,5.01-3.03,10.5.02,15.46.44.71.87,1.43,1.32,2.18l.11.18c-.17.26-.34.51-.51.77-.17-.05-.34-.1-.51-.14-1.05-1.43-2.37-2.63-3.94-3.56-3.44-2.04-7.44-2.29-10.93-.93.47-.29.93-.6,1.37-.93,4.89-3.66,7.87-9.11,8.63-15.78.74-6.49-.8-12.71-4.58-18.51,4.52-10.7,4.13-21.87-1.15-33.24-5.7-12.26-17.46-20.14-29.58-20.04-6.59-11.63-20-20.7-36.22-16.04-2.82-2.76-6-5.04-9.47-6.78-13.73-6.89-26.23-6.48-37.16,1.22-6.12,4.31-10.34,10.46-12.87,18.77-3.43-.12-6.8.36-10.06,1.44-12.33,4.09-20.45,16.8-19.75,30.91.63,12.59,6.38,22.46,17.12,29.36-.05.25-.09.49-.14.74-.09.48-.17.96-.26,1.41l-.2.97c-.86-.5-1.77-.95-2.73-1.35-4.53-1.89-8.96-2.19-13.08-2.22-3.61-.03-7.48-.04-11.85-.03l3.25-4.36c.37-.42.67-.84.93-1.25l.06-.08h-.01c.46-.75.78-1.48.99-2.13.54-1.71.81-4.3-.64-7.43,1.68-2.48,2.37-5.25,2.01-8.06-.3-2.32-1.31-4.5-2.95-6.36.29-3.97.13-8.01-.5-12.28,1.9-3.05,2.56-6.78,1.85-10.6-1.12-6.02-4.7-10.24-10.09-11.88-5.85-1.78-11.67.07-15.09,4.71-.88-1.74-1.76-3.46-2.63-5.15l1.68-2.21c.13-.17.25-.34.38-.49,5.52-6.25,6.33-13.97,2.26-21.74-1.85-3.53-3.7-7.17-5.5-10.74l-.3-.58c-.78-1.53-1.55-3.06-2.33-4.58C41.59,1.35,38.32-.44,32.79.09c-1.02.1-1.94.24-2.82.45-6.4,1.5-12.59,4.22-19.47,8.57-2.5,1.58-5.39,3.6-7.89,6.63-3.1,3.76-3.46,8.4-.95,12.4.38.61.75,1.37,1.18,2.26.23.48.47.96.71,1.45l1.93,3.76c1.43,2.78,2.85,5.56,4.25,8.35,3.9,7.78,10.59,11.62,18.82,10.81.15-.01.39,0,.66,0,.3,0,.6.01.9.01h2.01c.77,1.52,1.56,3.07,2.36,4.64-1.01.82-1.95,1.72-2.8,2.67-1.3,1.45-5.16,5.78-4.53,12.21-2.66,6.43-1.77,12.25,2.63,17.31,1.11,3.69,3.32,6.72,6.61,9.03,2.62,4.68,7.17,7.6,13.19,8.47.93.13,1.62.25,2.17.44,1.88.63,3.71.9,5.46.82l.12.14,2.79,1.12c-2.05.17-4.16.5-6.33,1.16-13.18,4.01-23.24,12.58-29.91,25.46-3.18,6.14-4.33,13-3.42,20.38,1.26,10.21,11.2,18.89,21.73,18.95,2.97,0,5.98-.21,8.51-.43-1.86,1.77-2.96,4.23-2.96,6.95,0,5.46,4.4,9.73,10.02,9.73.87,0,141.92-.09,141.92-.09v-12.06c1.02.67,2.27,1.22,3.78,1.44,5.03.72,9.42-.76,12.68-4.27,2.86-3.08,4.27-6.61,5.36-9.95.62-1.89.41-3.95-.56-5.67l-1.89-3.69h-3.21c.36-.61.66-1.27.89-1.97,1.2-3.61.41-7.27-2.17-10.03-.23-.24-.47-.48-.73-.7v-2.6c.46.1.92.19,1.38.27,5.37.94,10.51.38,14.88-1.58-.78.55-1.51,1.18-2.17,1.92-3.78,4.2-4.63,10.31-2.2,15.15-.55,2.94-.8,5.74-.77,8.53-1.68,1.96-2.56,4.52-2.49,7.32.05,2.02.59,3.95,1.61,5.75-.9,3.64.52,7.3,3.84,9.77,2.65,1.96,5.68,2.62,8.46,1.86,1.11.34,2.29.51,3.51.51s2.54-.18,3.84-.54c.19-.05.4-.09.69-.11,5.49-.45,9.59-2.69,12.18-6.65,2.64-1.75,4.57-4.14,5.62-6.96,3.35-3.41,4.57-7.89,3.43-12.7-.13-.54-.29-1.07-.46-1.62-.02-.06-.05-.15-.08-.25.2-1.01.18-2.06-.05-3.14-.37-2.34-1.29-4.52-2.73-6.49.15-.23.3-.46.45-.7.65.09,1.28.17,1.87.25l1.45.19.87.06c5.49.05,9.73-2.09,12.7-6.39,1.64-2.38,3.23-4.81,4.82-7.24,1.19-1.81,2.38-3.63,3.59-5.42,2.22-3.27,2.42-7.08.58-10.5Zm-49.87,54.96h0s0,0,0,0h0Zm0,0h0s0,0,0,0h0Z"/>
      <g>
        <path class="cls-1" d="m67.51,85.07c-.33-.22-.55-.36-.49-.85.74-5.3.48-10.58-.47-15.83-.1-.57-.03-.98.4-1.42,1.85-1.91,2.31-4.26,1.84-6.78-.57-3.05-2.12-5.5-5.22-6.44-3.04-.92-5.97-.06-7.62,2.52-1.44,2.25-3.23,3.04-5.59,3.36-.73.1-1.45.32-2.14.58-.77.3-1.2.21-1.61-.62-2.12-4.27-4.28-8.51-6.49-12.73-.42-.81-.3-1.34.21-1.98,1.09-1.37,2.13-2.77,3.2-4.16.39-.5.75-1.03,1.17-1.5,3.8-4.29,3.87-8.9,1.3-13.81-2.77-5.29-5.44-10.64-8.16-15.96-1.21-2.36-1.68-2.62-4.38-2.36-.63.06-1.26.15-1.88.3-6.26,1.47-11.93,4.26-17.32,7.67-2.29,1.45-4.47,3.04-6.22,5.16-1.07,1.3-1.4,2.63-.42,4.2.84,1.34,1.47,2.81,2.19,4.23,2.07,4.05,4.17,8.09,6.21,12.16,2.46,4.9,6.21,7.52,11.86,6.96.74-.07,1.6-.17,2.23-.19,1.75,0,3.5.04,5.25-.02.75-.02,1.13.26,1.46.91,2.11,4.21,4.24,8.41,6.42,12.58.41.77.26,1.04-.48,1.4-2.21,1.08-4.19,2.49-5.84,4.33-2.02,2.26-3.34,4.79-2.6,7.95.16.7-.22,1.22-.48,1.79-2.01,4.48-1.48,7.74,1.86,11.15.36.37.51.75.62,1.22.62,2.72,2.19,4.77,4.52,6.28.52.34,1,.65,1.3,1.3,1.65,3.58,4.73,5.14,8.43,5.67,1.16.17,2.28.36,3.4.73,2.42.81,4.76.67,6.66-1.19.88-.86,1.05-.48,1.46.33,1.14,2.28,2.48,2.73,4.74,1.7,2.52-1.14,3.2-2.79,1.79-5.15-1.21-2.03-1.53-3.49.29-5.59,2.46-2.83,1.68-5.83-1.39-7.93ZM33.85,13.01c1.02-.49,1.51.28,1.92,1.09,2.58,5.08,5.18,10.14,7.77,15.21.17.32.28.67.36.85.06.79-.26,1.19-.78,1.42-.49.22-.96.1-1.28-.31-.29-.37-.52-.79-.74-1.21-2.53-4.92-5.05-9.85-7.58-14.78-.45-.87-.78-1.76.33-2.29Zm-11.36,29.12c-.47.2-.96.18-1.31-.24-.27-.32-.49-.69-.68-1.06-2.56-4.99-5.1-9.98-7.65-14.97-.05-.09-.09-.19-.14-.28-.43-.74-.47-1.47.33-1.94.9-.53,1.5-.02,1.91.78,1.81,3.53,3.6,7.07,5.41,10.6.82,1.6,1.65,3.19,2.46,4.79.19.37.32.77.42.99,0,.72-.26,1.12-.73,1.32Zm5.22-2.67c-.86.47-1.42-.05-1.79-.77-2.73-5.32-5.46-10.64-8.16-15.98-.49-.97.13-1.94,1.1-1.91.57.08.93.39,1.2.91,2.69,5.28,5.39,10.55,8.09,15.83.39.76.36,1.48-.44,1.92Zm5.18-2.66c-.86.47-1.41-.02-1.78-.75-2.72-5.3-5.45-10.61-8.14-15.93-.5-.98.05-1.97,1.02-2,.61.07,1,.46,1.28,1.01,2.69,5.26,5.38,10.52,8.07,15.78.4.78.34,1.45-.45,1.89Zm4.97-2.55c-.56.15-1.09,0-1.39-.51-.42-.73-.78-1.5-1.17-2.25-2.27-4.42-4.54-8.85-6.81-13.27-.1-.19-.18-.38-.28-.57-.44-.82-.45-1.58.47-2.01.87-.41,1.4.15,1.77.87,2.05,4,4.09,8.01,6.14,12.01.6,1.18,1.21,2.35,1.81,3.53.16.32.29.67.4.94-.12.65-.37,1.11-.95,1.26Zm30.27,55.12c-.1,2.01-1.4,3.3-2.91,4.4-1.82,1.34-3.82,2.42-5.91,3.3-.51.21-1,.47-1.84.87h2.12c-.8,2.42-2.72,3.43-5.07,2.6-1.06-.37-2.09-.62-3.22-.64-3.18-.06-5.26-1.75-6.33-4.65-.3-.83-.95-1.48-1.75-1.85-2.4-1.1-3.77-3.12-4.42-5.64-.23-.88-.54-1.55-1.41-2.1-2.11-1.33-2.7-3.18-2.08-5.64.03-.1.02-.22.06-.31,1.17-2.27,2.14-4.57,1.23-7.2h0c-.17-1.15.32-2.15.99-2.93,4.08-4.69,9.12-7.65,15.41-8.18.88-.07,1.78.15,2.67.24.28-1.91,1.18-3.5,2.59-4.77,2.13-1.91,5.21-1.71,7.07.44,1.22,1.42,1.77,3.12,1.69,4.98-.1,2.26-1.68,4.03-3.82,4.42-2.64.49-5.09-.88-6.23-3.47-.7.75.33,2.41.46,2.59,1.29,1.73,3.03,2.67,5.26,2.59.83-.03,1.23.33,1.58,1.01,1.32,2.55,1.76,5.29,1.91,8.14q-2.38-1.03-2.45-3.35c-.1-3.4-2.02-5.54-5.4-5.61-6.12-.12-11.29,2.28-15.68,6.45.04,1.11.53.25.73.13,2.98-1.73,5.99-3.38,9.31-4.37,1.99-.59,4-1.09,6.09-.52,2.77.76,3.45,3.15,3.25,5.46-.08.85-.77.47-1.24.52-5.59,1.06-10.7,3.13-14.95,7.02.71.18,1.21-.28,1.77-.56,3.63-1.86,7.3-3.63,11.29-4.57.51-.12,1.04-.22,1.56-.27,4.27-.44,6.15,1.83,4.96,5.86,0,.17-.06.34-.17.53-1.21,1-2.75,1.25-4.14,1.82-3.39,1.38-6.66,2.96-9.59,5.18.49.8.85-.02,1.15-.17,3.05-1.55,6.1-3.11,9.4-4.09.96-.28,1.94-.5,2.93-.65,2.33-.36,3.3.59,3.13,3.01Z"/>
        <path class="cls-1" d="m235.72,124.04c.66-5.84-1.22-11.06-4.76-15.67-.64-.84-.91-1.43-.37-2.5,5-9.92,4.61-19.92,0-29.81-4.74-10.2-14.53-16.65-24.44-15.92-2.5.18-3.3-.61-4.33-2.59-5.69-11.03-17.7-18.26-31.35-12.89-1.15.45-1.66.17-2.38-.66-2.69-3.11-5.88-5.65-9.55-7.49-10.09-5.06-20.21-6.18-29.96.68-6.42,4.52-9.5,11.26-11.13,18.72-.35,1.58-.8,2.05-2.49,1.73-3.74-.71-7.49-.52-11.13.69-9.33,3.1-15.49,12.85-14.94,23.89.57,11.47,6.35,19.7,16.22,25.18,1.36.76,1.87,1.38,1.43,2.91-.48,1.69-.72,3.45-1.07,5.18-.31,1.57-.66,3.14-.94,4.71-.98,5.62-.48,6.14,5.14,5.68,17.87-1.45,35.29,1.06,52.42,6.02,13.01,3.77,25.52,8.87,37.71,14.74,2.14,1.03,2.72.69,3.24-1.71.7-3.21,1.44-6.41,2.06-9.63.28-1.43.78-1.61,2.04-.94,2.91,1.55,5.99,2.69,9.24,3.26,10.35,1.81,18.19-3.64,19.32-13.58Zm-41.84,10.35c.96.57,1.9,1.18,2.85,1.78q3.99,2.53,2.58,7.17c-5.29-2.41-10.53-4.93-15.87-7.2-23.61-9.99-48.12-15.34-73.89-13.89-.51.03-1.13.36-1.43-.4-.67-1.55.17-2.92.5-4.36.73-5.11.72-5.15,5.72-6.06,4.08-.74,12.83-1.97,13.1-2.03-.53-.12-11.09-.48-15.63-.05-1.56.15-1.39-.4-.93-1.43,1.06-2.39,3.14-3.36,5.48-3.78,5.07-.9,10.2-.56,15.3-.47,12.63.24,24.97,2.42,37.09,5.9.3.09.56.29.83.44,9.09,2.52,17.98,5.52,26.24,10.17,5.91,3.04,7.7,7.88,5.36,14.1-.55,1.45-1.26.57-1.82.29-4.16-2.06-8.47-3.74-13.1-4.66,2.54,1.49,5.09,2.96,7.63,4.46Zm25.14-2.09c-3.96-.47-7.57-1.9-11.04-3.78-.74-.4-1.23-.81-1.21-1.82.08-3.94-2.22-6.53-5.21-8.63-3.48-2.44-7.4-4.08-11.26-5.79-3-1.33-3.39-2.87-1.13-5.25,2.62-2.76,5.78-4.73,9.45-5.84.82-.37,1.64-.74,2.7-1.22-1.97-.56-12.74,3.47-16.5,5.2-11.01,5.05-26.55,1.02-32.65-8.55-3.01-4.72-3.7-9.96-3.02-15.44-.14-.72.15-1.39.21-2.09.03-.39.05-.84-.58-.52-.77.88-.92,2-1.14,3.09-1.24,2.65-2.04,10.05-2.1,10.37-.95,5.95-3.36,8.09-9.37,8.45-3.31.2-6.61.08-9.67-1.2-5.88-2.45-6.97-7.62-7.04-13.24,0-.71.15-1.42.24-2.13h0s0,0,0,0c-.01-.62,0-1.23-.04-1.85,0-.15.1-.56-.3-.34-.18.1-.26.36-.38.55-1.79,5.31-2.61,10.69-1.36,16.26.22.97-.26,1.46-1.22,1.67-1.16.25-2.44.38-3.42.97-3.15,1.88-5.86.96-8.71-.75-8.96-5.37-13.05-17.46-9.1-26.83.07-.18.14-.36.23-.54,2.91-8.86,11.68-13.11,19.97-9.75,1.15.46,1.76,1.05,2.13,2.25,1.22,3.91,3.16,7.45,6.48,10.87-.74-2.71-2.13-4.6-2.34-6.85-5.42-15.46,6.86-32.96,23.19-32.76,8.39.1,14.5,4.74,19.56,11.03.72.9.19,1.41-.48,1.91-2.87,4.27-4.98,8.93-6.83,13.71,0,0,0,0,0,0,0,0,0,0,0,0-.01.24-.13.56-.02.7.63.84.49-.21.54-.3,2.85-5.51,6.76-10.05,12.26-13.04,11.98-6.51,22.8-1.05,27.99,10.49.74,1.64-.78,1.54-1.48,2.08-2.14,1.73-4.27,3.45-6.41,5.18h0c1.93.13,3.52-.96,5.16-1.66,10.66-4.54,21.96.1,26.85,5.8,4.87,5.68,7.36,12.25,6.94,19.81.02,3.38-.79,6.58-2.13,9.67-.45,1.05-.87,1.49-2.02.64-1.32-.97-2.83-1.69-4.45-2.29.79,1,1.59,1.99,2.38,2.99,3.7,3.64,6.45,7.89,8.14,12.81.6,1.75.91,3.56.82,5.42-.34,7.44-5.17,11.43-12.63,10.54Z"/>
        <path class="cls-1" d="m282.35,128.79c-.32-.55-.67-1.08-1.08-1.57-2.43-2.92-5.46-5.08-8.72-6.97-2.52-1.46-5.11-2.76-8.06-3.11-1.41-.16-2.55.17-3.32,1.53-.78,1.38-1.72,2.67-2.58,4.01-1.82,2.84-3.69,5.66-5.45,8.54-1.62,2.67-1.67,5.41,0,8.12,1.1,1.79,2.17,3.61,3.29,5.39.37.58.36,1.02-.04,1.6-1.71,2.54-3.38,5.1-5.02,7.69-.39.61-.66.8-1.37.43-1.95-1.01-4.03-1.66-6.18-2.1-.58-.12-.96-.34-1.22-.95-.53-1.23-1.4-2.21-2.56-2.9-2.37-1.4-5.08-.99-6.92,1.06-2.04,2.27-2.36,5.89-.6,8.14.5.64.61,1.16.44,1.92-.86,3.79-1.23,7.62-.85,11.5.05.54-.06.85-.6,1.09-1.47.66-2.07,1.88-2.04,3.46.04,1.81,1,3.17,2.2,4.35.58.57.64.99.12,1.56-.18.2-.31.46-.46.69-.88,1.37-.66,2.4.75,3.44,1.49,1.11,2.68,1.05,3.71-.24.3-.37.44-.42.8-.07,1.52,1.45,3.33,1.53,5.24,1.01.65-.18,1.3-.28,1.98-.34,2.94-.24,5.54-1.17,7.11-3.89.33-.58.73-1,1.29-1.33,1.87-1.09,3.16-2.64,3.66-4.78.11-.47.41-.75.75-1.04,2.08-1.77,2.77-4,2.15-6.65-.38-1.58-1.22-3.1-.61-4.81.06-.17-.03-.39-.06-.59-.39-2.77-2.15-4.64-4.23-6.26-.54-.42-.56-.67-.2-1.21,1.57-2.35,3.18-4.67,4.6-7.11.69-1.17,1.47-1.42,2.7-1.22,2.2.36,4.41.62,6.03.85,3.15.03,5.16-.92,6.84-3.35,2.86-4.15,5.55-8.43,8.38-12.61.78-1.15.8-2.2.15-3.33Zm-27.71,31.14c1.15,1.07,1.99,2.47,1.53,4.19-.01.09-.04.18-.09.29-.74,1.37-.25,2.52.5,3.75,1.18,1.94.45,4.35-1.59,5.57-.51.31-.79.63-.96,1.23-.62,2.23-1.92,3.91-4.18,4.69-.46.16-.66.45-.84.89-1.12,2.76-2.87,3.87-5.85,3.7-.59-.03-1.08.15-1.6.33-2.01.67-3.55-.11-4.21-2.17.45.03.87.06,1.29.09.03-.05.05-.1.08-.14-.86-.46-1.75-.89-2.58-1.39-1.39-.84-2.86-1.56-3.93-2.85-.48-.58-.95-1.18-1.05-1.97-.06-.17-.09-.33-.1-.47-.33-2.01.73-2.9,2.97-2.38,2.61.6,4.97,1.83,7.32,3.09.83.45,1.58,1.06,2.49,1.35-.46-.94-1.4-1.36-2.2-1.9-2.28-1.52-4.75-2.67-7.29-3.67-.6-.24-1.22-.47-1.03-1.33.02-.08.82-4.5,3.75-4.11,2.72.36,5.14,1.59,7.54,2.81,1.27.64,2.52,1.32,3.77,1.98-.53-1.03-1.51-1.58-2.4-2.22-2.87-2.08-6.13-3.23-9.57-3.95-.67-2.29.84-4.4,3.24-4.54,1.71-.1,3.29.4,4.84,1.02,2.21.88,4.24,2.11,6.24,3.4.2.13.4.61.71.1-2.94-3.35-6.71-5.16-11.06-5.73-3.4-.44-5.46,1.46-5.43,4.83,0,.72-.09,1.19-.87,1.39-.36.09-.66.4-1.11.7.16-2.48.69-4.73,1.94-6.8.24-.39.55-.38.91-.36,1.94.11,3.47-.63,4.6-2.21h0c0-.06.84-.91.07-1.42-1.33,2.4-4.19,3.11-6.26,1.54-1.75-1.33-1.85-4.42-.21-6.38,1.63-1.93,4.09-2.1,5.85-.36,1.05,1.04,1.66,2.3,1.84,3.77,5.4-.64,9.29,2.27,12.91,5.64Z"/>
        <g>
          <g>
            <path class="cls-2" d="m90.15,167.64c.72,1.55,1.9,2.5,3.47,2.98,3.71,1.12,7.78-.39,9.95-3.59.37-.55.46-1.06.48-1.67.09-3.37.65-6.64,2.21-9.66,1.1-2.15,2.7-3.78,5.17-4.3,2.43-.51,4.71-.27,6.64,1.48.13.12.28.21.48.35.31-1.88.62-3.7.92-5.51.16-.98.33-1.96.49-2.95.33-2.1-.13-4.03-1.3-5.88.19-.02.33-.05.48-.05,1.08,0,2.16,0,3.24,0,2.46.02,4.1,1.43,4.55,3.84.26,1.41.04,2.79-.18,4.18-.64,4.03-1.27,8.07-1.92,12.1-.45,2.83-.96,5.65-1.39,8.48-.12.79-.17,1.63-.05,2.41.17,1.09,1.21,1.53,2.14.94,1.38-.89,2.41-2.12,2.66-3.77.61-4.04,1.13-8.09,1.7-12.13.17-1.18.39-2.36.58-3.54h6.99c-.31,2.04-.61,4.05-.92,6.05-.57,3.67-1.17,7.34-1.72,11.02-.08.51-.01,1.06.1,1.57.22.97,1.11,1.36,1.98.87.44-.24.89-.56,1.16-.96.65-.98,1.22-2.01,1.76-3.05.15-.3.09-.71.09-1.08.03-3.25.57-6.39,1.87-9.38.7-1.61,1.72-2.99,3.18-4.02,2-1.41,6.3-1.93,8.8.36.18.16.38.3.65.52.13-.79.26-1.52.38-2.24.35-2.16.72-4.33,1.05-6.5.3-1.91-.16-3.67-1.14-5.31-.05-.08-.1-.17-.27-.45,1.86.11,3.6.05,5.27.35,1.88.34,2.73,1.82,3.1,3.6.29,1.41.04,2.79-.18,4.18-.59,3.73-1.18,7.46-1.78,11.19-.5,3.13-1.04,6.25-1.52,9.38-.12.77-.18,1.59-.06,2.35.18,1.16,1.2,1.56,2.22.95.97-.58,1.61-1.48,2.16-2.45.44-.78.71-1.55.67-2.52-.14-3.62.6-7.07,2.72-10.06,2.09-2.95,4.96-4.54,8.66-4.56,2.11-.01,4.02.43,5.71,1.76,2.08,1.64,2.43,4.43,1.54,6.84-.69,1.87-2.03,3.22-3.61,4.35-2.11,1.51-4.48,2.47-6.91,3.3-.19.06-.37.13-.61.21.81,1.7,2.14,2.68,3.89,3.09,4.85,1.15,8.82-1.83,10.2-5.02,1.7-3.95,2.96-8.03,3.85-12.23.57-2.69.56-2.12,2.67-2.17.98-.02,1.96.04,2.94-.02.86-.05,1.36.32,1.72,1.07.68,1.38,1.42,2.74,2.14,4.13,1.28-1.12,2.51-2.22,3.76-3.29.93-.8,1.87-1.61,3.12-1.84,1.25-.22,2.41.03,3.3.99.81.86,1.01,1.91.64,3.01-.38,1.14-1.22,1.84-2.4,2.01-1.24.18-2.3-.19-3.01-1.3-.65-1.01-1.25-1.17-2.12-.35-.79.74-1.43,1.65-2.12,2.51-.08.1-.05.35.02.48,2.19,3.83,4.36,7.67,6.59,11.48.64,1.1,1.17,1.16,2.25.43,1.16-.79,1.85-1.95,2.38-3.19.28-.66.61-.95,1.34-.86.58.07,1.18.01,1.75.01.03.07.07.11.07.14-.87,2.66-1.87,5.25-3.82,7.35-1.79,1.93-4.05,2.45-6.53,2.09-1.04-.15-1.74-1.04-2.31-1.88-.71-1.04-1.34-2.14-1.96-3.24-1.05-1.86-2.05-3.74-3.08-5.62-.11-.19-.22-.38-.39-.69-.27.55-.55.99-.72,1.47-.99,2.79-1.96,5.59-2.94,8.38-.08.23-.15.46-.24.69-.39,1.03-.63,1.13-1.63.62-.25-.13-.5-.28-.73-.45-1.54-1.12-1.74-1.78-.96-3.51,1.51-3.39,3.25-6.65,5.32-9.73.24-.35.26-.61.06-.98-.79-1.45-1.52-2.92-2.33-4.36-.2-.36-.6-.6-.9-.9-.18.37-.44.73-.52,1.12-.74,3.55-1.8,7-3.22,10.33-1.97,4.62-5.41,7.56-10.38,8.57-4.73.96-9.02-.9-11.66-4.94-.05-.08-.11-.15-.21-.28-.27.46-.51.88-.76,1.29-.94,1.51-2.05,2.9-3.71,3.61-2.49,1.07-4.9.69-7.15-.74-.44-.28-.76-.77-1.17-1.2-1.69,2.23-4.07,2.62-6.67,2.29-2.77-.36-4.37-2.14-5.34-4.64-.49.7-.94,1.41-1.46,2.06-1.09,1.34-2.38,2.45-4.15,2.71-1.83.27-3.62,0-5.25-.94-.78-.45-1.31-1.15-1.66-2.08-1.5,1.72-3.09,3.19-5.55,3.1-2.24-.08-4.36-.42-5.75-2.54-1.91,2.44-4.49,2.78-7.24,2.23-2.95-.59-4.32-2.83-5.09-5.35-1.16,1.05-2.25,2.22-3.51,3.15-2.6,1.92-5.58,2.73-8.81,2.48-4.48-.35-8.63-3.93-9.46-8.37-.86-4.6.02-8.94,2.9-12.69,2.01-2.61,4.76-4,8.15-3.98,1.52,0,2.99.14,4.39.85,3.27,1.68,4.04,4.64,2.9,7.79-.67,1.85-2.01,3.18-3.58,4.3-2.11,1.51-4.48,2.48-6.91,3.3-.19.06-.38.13-.61.21Zm20.25-2.38c0,.35,0,.69,0,1.04.04,1.65.84,2.88,2.21,3.41,1.26.48,2.44.05,3.03-1.15.21-.43.39-.9.51-1.36.65-2.48,1-5.01,1.15-7.57.07-1.14-.41-2.19-1.33-2.61-1.07-.49-2.17-.45-3.01.38-.64.62-1.17,1.41-1.55,2.22-.84,1.78-.99,3.71-1.01,5.65Zm35.87,0c0,.35,0,.69,0,1.04.04,1.65.84,2.88,2.21,3.41,1.26.48,2.44.05,3.03-1.15.21-.43.39-.9.51-1.36.65-2.48,1-5.01,1.15-7.57.07-1.14-.41-2.19-1.33-2.61-1.07-.49-2.17-.45-3.01.38-.64.62-1.17,1.41-1.55,2.22-.84,1.78-.99,3.71-1.01,5.65Zm-57.28-.34c.36-.32.64-.54.9-.79,1.87-1.81,3.48-3.82,4.85-6.03.5-.81,1-1.64,1.37-2.51.53-1.26-.08-1.97-1.44-1.82-1.89.22-3.33,1.13-4.29,2.77-1.5,2.57-1.72,5.36-1.39,8.37Zm81.66-.02c.23-.19.37-.28.48-.39,2.59-2.41,4.69-5.19,6.37-8.29.2-.37.34-.78.44-1.19.14-.59-.1-1.01-.69-1.16-.32-.08-.69-.1-1.02-.06-2.11.23-3.55,1.41-4.48,3.26-1.23,2.45-1.41,5.04-1.1,7.84Z"/>
            <path class="cls-2" d="m72.76,175.89h-12.13c.24-1.49.46-2.94.7-4.38,1.03-6.16,2.08-12.31,3.1-18.47.04-.23-.05-.6-.22-.73-1.84-1.34-3.67-2.69-5.57-3.94-1.41-.94-3.01-1.41-4.69-.88-.68.21-1.31.69-1.86,1.16-.52.44-.91,1.03-1.47,1.68-.32-1.39.18-2.6,1.3-3.53,1.46-1.22,3.23-1.77,5.06-1.93,2.23-.19,4.49-.17,6.73-.22.66-.02,1.32,0,2.06,0,.4-2.75.8-5.46,1.18-8.16.43-3,.88-5.99,1.24-9,.27-2.27.31-4.53-.64-6.71-.34-.77-.76-1.14-1.67-.89-10.39,2.73-18.74,8.04-23.48,18.09-1.76,3.73-3.31,7.53-3.67,11.66-.61,6.94,1.09,13.09,6.52,17.85,1.09.96,1.15.94,2.26-.05.64-.56,1.24-1.18,1.76-1.85.37-.47.73-.66,1.34-.66,3.26.03,6.52.02,9.9.02-.13.25-.19.45-.3.6-2.01,2.62-4.7,4.13-7.97,4.44-3.33.32-6.69.62-10.03.6-7.05-.04-13.96-6.12-14.78-12.78-.7-5.69.05-11.2,2.68-16.29,5.58-10.77,13.94-18.38,25.71-21.97,2.84-.86,5.79-1.02,8.73-1.04,5.99-.03,11.97-.04,17.96,0,3.55.03,7.09.28,10.42,1.67,4.08,1.71,6.95,4.49,7.56,9.06.36,2.64-.19,5.21-.74,7.78-1.7,7.95-6.98,12.29-14.47,14.41-2.43.69-4.87,1.33-7.34,1.86-1,.21-1.41.55-1.59,1.62-1.14,6.97-2.39,13.92-3.61,20.98Zm4.78-28.08c1.53.64,2.95,1.16,4.31,1.81.67.32,1.24.32,1.74-.13.79-.71,1.62-1.43,2.24-2.29,1.97-2.74,3.33-5.79,4.09-9.07,1.24-5.35-.4-9.2-5.04-11.99-.92-.55-1.91-.97-2.87-1.44-.21-.1-.45-.14-.69-.2-1.27,7.85-2.53,15.62-3.77,23.31Z"/>
            <path class="cls-2" d="m134.99,148.63c-2.14,0-3.77-1.64-3.77-3.78,0-2.14,1.65-3.79,3.77-3.79,2.15,0,3.82,1.67,3.82,3.82,0,2.11-1.67,3.75-3.82,3.75Z"/>
          </g>
          <text class="cls-4" transform="translate(54.51 186.74)"><tspan class="cls-6" x="0" y="0">ca</tspan><tspan class="cls-8" x="12.28" y="0">r</tspan><tspan class="cls-6" x="16.7" y="0">dáio e </tspan><tspan class="cls-9" x="52.21" y="0">c</tspan><tspan class="cls-7" x="58.17" y="0">oma</tspan><tspan class="cls-5" x="81.31" y="0">n</tspan><tspan class="cls-6" x="88.3" y="0">da digital</tspan></text>
        </g>
        <path class="cls-2" d="m2.94,147.63h0s0,.01,0,.02v-.02Z"/>
      </g>
    </g>
  </g>
</svg>