<?xml version="1.0" encoding="UTF-8"?>
<svg id="Camada_2" data-name="Camada 2" xmlns="http://www.w3.org/2000/svg" viewBox="0 0 333.37 217.14">
  <defs>
    <style>
      .cls-1, .cls-2 {
        stroke-width: 0px;
      }

      .cls-1, .cls-3 {
        fill: #222323;
      }

      .cls-4 {
        letter-spacing: .03em;
      }

      .cls-2 {
        fill: #ed721b;
      }

      .cls-5 {
        letter-spacing: .02em;
      }

      .cls-6 {
        letter-spacing: .02em;
      }

      .cls-7 {
        letter-spacing: .03em;
      }

      .cls-8 {
        letter-spacing: .02em;
      }

      .cls-3 {
        font-family: Montserrat-ExtraBold, Montserrat;
        font-size: 11.42px;
        font-weight: 700;
      }
    </style>
  </defs>
  <g id="Camada_1-2" data-name="Camada 1">
    <g>
      <path class="cls-1" d="m76.92,92.98c-.39-.27-.66-.43-.58-1.01.88-6.31.57-12.6-.56-18.86-.12-.68-.03-1.16.48-1.69,2.2-2.27,2.75-5.08,2.19-8.07-.68-3.64-2.53-6.55-6.21-7.67-3.62-1.1-7.11-.07-9.08,3-1.72,2.68-3.85,3.62-6.66,4.01-.87.12-1.73.38-2.55.69-.92.35-1.43.25-1.92-.73-2.52-5.08-5.09-10.14-7.73-15.16-.5-.96-.36-1.59.25-2.36,1.3-1.63,2.54-3.3,3.81-4.95.46-.6.9-1.23,1.4-1.79,4.52-5.11,4.61-10.6,1.55-16.45-3.3-6.31-6.48-12.68-9.72-19.01C40.13.09,39.57-.21,36.36.1c-.75.07-1.51.18-2.24.35-7.45,1.75-14.21,5.08-20.63,9.14-2.73,1.72-5.33,3.62-7.4,6.14-1.28,1.55-1.67,3.13-.5,5.01,1,1.6,1.75,3.35,2.61,5.03,2.47,4.83,4.96,9.64,7.39,14.49,2.92,5.83,7.39,8.96,14.12,8.29.88-.09,1.91-.2,2.65-.22,2.08,0,4.17.04,6.25-.02.89-.03,1.35.31,1.74,1.09,2.52,5.01,5.05,10.01,7.65,14.98.48.92.31,1.24-.57,1.67-2.63,1.29-4.99,2.97-6.95,5.16-2.41,2.7-3.97,5.7-3.09,9.47.2.84-.26,1.45-.57,2.13-2.39,5.34-1.76,9.22,2.22,13.28.43.44.61.89.74,1.46.74,3.24,2.61,5.68,5.38,7.48.62.4,1.19.78,1.55,1.55,1.96,4.26,5.63,6.12,10.04,6.75,1.38.2,2.72.43,4.05.87,2.88.96,5.67.8,7.94-1.41,1.05-1.03,1.25-.57,1.74.4,1.36,2.71,2.95,3.25,5.64,2.03,3-1.36,3.81-3.32,2.13-6.14-1.44-2.42-1.83-4.15.35-6.66,2.93-3.38,2-6.94-1.65-9.45ZM36.83,7.15c1.22-.58,1.8.33,2.29,1.3,3.08,6.05,6.17,12.08,9.26,18.12.2.39.34.8.42,1.02.07.94-.31,1.42-.93,1.7-.58.26-1.14.12-1.53-.37-.35-.44-.62-.94-.88-1.44-3.01-5.86-6.01-11.74-9.03-17.6-.53-1.03-.93-2.09.4-2.73Zm-13.53,34.69c-.56.24-1.14.21-1.56-.28-.32-.38-.59-.82-.81-1.26-3.04-5.94-6.08-11.88-9.11-17.83-.06-.11-.11-.23-.17-.34-.51-.88-.55-1.75.39-2.31,1.07-.63,1.79-.02,2.28.93,2.15,4.21,4.29,8.42,6.44,12.62.97,1.91,1.97,3.8,2.93,5.71.22.44.39.91.5,1.18,0,.86-.3,1.33-.87,1.57Zm6.22-3.18c-1.02.56-1.69-.05-2.13-.92-3.25-6.34-6.51-12.67-9.71-19.03-.58-1.16.16-2.32,1.31-2.27.68.1,1.11.47,1.43,1.09,3.2,6.29,6.42,12.57,9.64,18.85.47.91.42,1.76-.53,2.28Zm6.17-3.17c-1.02.56-1.68-.02-2.12-.89-3.24-6.32-6.49-12.64-9.69-18.97-.59-1.17.05-2.35,1.21-2.38.73.08,1.19.54,1.53,1.2,3.2,6.27,6.4,12.53,9.62,18.8.47.92.41,1.73-.54,2.25Zm5.92-3.04c-.67.18-1.29,0-1.65-.61-.51-.87-.93-1.78-1.39-2.68-2.7-5.27-5.41-10.54-8.11-15.81-.11-.22-.21-.46-.33-.68-.53-.97-.53-1.88.57-2.4,1.03-.49,1.66.18,2.1,1.04,2.44,4.77,4.87,9.54,7.31,14.31.72,1.4,1.45,2.8,2.16,4.21.2.39.34.8.48,1.12-.14.78-.44,1.32-1.13,1.5Zm36.06,65.65c-.12,2.39-1.67,3.93-3.46,5.24-2.17,1.59-4.55,2.88-7.04,3.93-.6.25-1.19.57-2.19,1.04h2.53c-.95,2.88-3.24,4.08-6.04,3.09-1.26-.44-2.49-.74-3.83-.76-3.79-.07-6.26-2.09-7.54-5.54-.36-.98-1.13-1.76-2.08-2.2-2.86-1.31-4.48-3.72-5.26-6.72-.27-1.04-.64-1.85-1.68-2.5-2.51-1.58-3.21-3.78-2.48-6.72.03-.12.02-.26.07-.37,1.39-2.7,2.55-5.45,1.46-8.57h0c-.2-1.36.38-2.56,1.18-3.49,4.85-5.59,10.86-9.11,18.35-9.74,1.05-.09,2.12.18,3.18.28.33-2.27,1.4-4.17,3.08-5.68,2.53-2.27,6.21-2.04,8.42.52,1.46,1.69,2.11,3.72,2.01,5.93-.12,2.7-2,4.8-4.56,5.27-3.15.58-6.06-1.05-7.42-4.13-.84.89.4,2.87.55,3.09,1.54,2.07,3.61,3.18,6.26,3.08.99-.04,1.46.39,1.88,1.2,1.57,3.04,2.1,6.3,2.27,9.69q-2.83-1.23-2.92-3.99c-.12-4.04-2.41-6.6-6.43-6.68-7.29-.14-13.44,2.72-18.68,7.68.05,1.33.63.3.87.15,3.54-2.06,7.13-4.03,11.09-5.21,2.37-.7,4.76-1.3,7.25-.62,3.3.91,4.11,3.75,3.87,6.51-.09,1.01-.92.56-1.48.62-6.65,1.26-12.74,3.73-17.81,8.37.84.22,1.45-.33,2.1-.67,4.32-2.22,8.69-4.32,13.45-5.44.61-.14,1.23-.26,1.86-.33,5.08-.52,7.33,2.18,5.91,6.97-.01.2-.07.41-.2.63-1.44,1.19-3.28,1.49-4.94,2.16-4.04,1.64-7.93,3.53-11.42,6.17.59.95,1.02-.03,1.37-.2,3.64-1.84,7.26-3.71,11.2-4.87,1.14-.34,2.31-.59,3.49-.78,2.78-.43,3.93.7,3.73,3.59Z"/>
      <path class="cls-1" d="m277.27,139.39c.79-6.96-1.45-13.17-5.67-18.67-.76-1-1.08-1.7-.44-2.98,5.96-11.82,5.49-23.73,0-35.51-5.65-12.15-17.3-19.83-29.11-18.96-2.97.22-3.94-.72-5.15-3.08-6.78-13.13-21.08-21.75-37.35-15.35-1.37.54-1.98.2-2.83-.78-3.21-3.7-7.01-6.73-11.38-8.92-12.02-6.03-24.08-7.36-35.68.81-7.64,5.38-11.32,13.41-13.26,22.29-.41,1.88-.96,2.44-2.97,2.06-4.45-.84-8.92-.62-13.26.82-11.12,3.69-18.44,15.31-17.79,28.45.68,13.67,7.56,23.46,19.32,29.99,1.62.9,2.23,1.65,1.71,3.47-.58,2.01-.86,4.11-1.27,6.16-.37,1.87-.79,3.74-1.12,5.61-1.17,6.7-.57,7.31,6.13,6.77,21.28-1.73,42.04,1.26,62.44,7.16,15.5,4.49,30.39,10.56,44.92,17.56,2.55,1.23,3.24.82,3.86-2.04.83-3.82,1.72-7.63,2.46-11.48.33-1.71.93-1.92,2.42-1.12,3.46,1.84,7.13,3.21,11.01,3.89,12.33,2.16,21.67-4.33,23.01-16.17Zm-49.84,12.33c1.15.68,2.27,1.4,3.39,2.11q4.76,3.02,3.07,8.54c-6.3-2.87-12.54-5.88-18.91-8.57-28.13-11.9-57.31-18.27-88.01-16.55-.61.03-1.35.43-1.71-.48-.8-1.84.21-3.48.59-5.19.87-6.09.86-6.14,6.82-7.21,4.86-.88,15.29-2.35,15.61-2.42-.63-.14-13.21-.57-18.62-.06-1.86.18-1.66-.48-1.11-1.71,1.27-2.85,3.74-4,6.53-4.5,6.04-1.07,12.15-.67,18.22-.56,15.04.28,29.74,2.88,44.17,7.03.35.1.66.35.99.53,10.82,3,21.42,6.58,31.25,12.12,7.03,3.62,9.17,9.38,6.38,16.79-.65,1.73-1.5.68-2.17.35-4.96-2.46-10.09-4.45-15.61-5.55,3.03,1.77,6.07,3.53,9.09,5.31Zm29.94-2.49c-4.71-.56-9.01-2.26-13.15-4.5-.88-.48-1.47-.96-1.44-2.16.1-4.69-2.64-7.78-6.2-10.27-4.15-2.91-8.81-4.86-13.42-6.9-3.57-1.58-4.04-3.41-1.35-6.25,3.12-3.29,6.89-5.63,11.26-6.96.98-.44,1.96-.88,3.22-1.45-2.35-.67-15.17,4.14-19.65,6.19-13.12,6.02-31.62,1.22-38.89-10.19-3.58-5.62-4.4-11.86-3.6-18.39-.17-.85.18-1.66.25-2.48.04-.46.06-1-.69-.61-.92,1.05-1.09,2.38-1.36,3.68-1.47,3.16-2.43,11.97-2.51,12.35-1.13,7.08-4,9.64-11.16,10.07-3.94.24-7.88.09-11.52-1.43-7.01-2.92-8.3-9.08-8.39-15.77-.01-.84.18-1.69.28-2.54h0s0,0,0,0c-.01-.73,0-1.47-.05-2.2-.01-.17.12-.67-.36-.4-.21.12-.31.43-.45.66-2.13,6.32-3.11,12.74-1.62,19.36.26,1.15-.31,1.74-1.45,1.99-1.38.3-2.91.46-4.08,1.16-3.75,2.24-6.98,1.14-10.38-.9-10.67-6.39-15.55-20.79-10.84-31.95.08-.22.17-.43.28-.65,3.47-10.55,13.91-15.61,23.78-11.62,1.37.55,2.09,1.25,2.54,2.68,1.46,4.66,3.77,8.87,7.72,12.95-.88-3.23-2.54-5.48-2.79-8.16-6.45-18.42,8.17-39.26,27.62-39.03,9.99.12,17.28,5.64,23.3,13.13.86,1.07.23,1.68-.58,2.28-3.42,5.09-5.93,10.63-8.13,16.33,0,0,0,0,0,0,0,0,0,0,0,0-.01.28-.16.66-.02.84.75,1,.58-.25.64-.36,3.4-6.57,8.05-11.97,14.61-15.53,14.27-7.75,27.15-1.25,33.34,12.5.88,1.96-.92,1.83-1.76,2.48-2.54,2.06-5.09,4.11-7.63,6.17h0c2.3.15,4.19-1.14,6.15-1.98,12.7-5.41,26.16.12,31.98,6.91,5.8,6.77,8.77,14.59,8.27,23.59.02,4.03-.95,7.84-2.53,11.52-.54,1.25-1.03,1.78-2.41.77-1.57-1.16-3.37-2.01-5.3-2.73.95,1.19,1.89,2.37,2.84,3.56,4.4,4.34,7.68,9.4,9.69,15.25.71,2.08,1.08,4.25.98,6.45-.41,8.86-6.16,13.62-15.05,12.55Z"/>
      <path class="cls-1" d="m332.82,145.06c-.38-.65-.8-1.29-1.28-1.87-2.89-3.47-6.51-6.05-10.38-8.3-3-1.74-6.08-3.29-9.6-3.7-1.67-.2-3.04.2-3.96,1.83-.93,1.65-2.05,3.18-3.08,4.77-2.17,3.39-4.4,6.74-6.49,10.18-1.93,3.18-1.99,6.44,0,9.67,1.31,2.14,2.58,4.3,3.92,6.42.44.69.42,1.21-.04,1.91-2.03,3.03-4.03,6.08-5.98,9.16-.46.73-.79.95-1.64.51-2.32-1.21-4.8-1.98-7.37-2.5-.7-.14-1.15-.4-1.46-1.13-.63-1.46-1.67-2.63-3.05-3.46-2.82-1.67-6.05-1.18-8.25,1.26-2.43,2.7-2.81,7.01-.72,9.7.59.76.73,1.38.52,2.29-1.02,4.51-1.46,9.07-1.02,13.69.06.64-.07,1.01-.72,1.3-1.76.79-2.47,2.24-2.43,4.13.05,2.15,1.19,3.77,2.62,5.18.69.68.76,1.17.15,1.86-.22.24-.37.55-.55.82-1.05,1.63-.78,2.85.89,4.1,1.77,1.32,3.2,1.25,4.42-.28.36-.45.52-.5.95-.09,1.81,1.73,3.97,1.82,6.24,1.2.78-.22,1.55-.34,2.36-.4,3.5-.29,6.6-1.39,8.47-4.64.4-.69.87-1.19,1.54-1.58,2.23-1.3,3.76-3.15,4.36-5.69.13-.55.48-.89.89-1.23,2.48-2.11,3.3-4.77,2.56-7.92-.45-1.88-1.45-3.69-.72-5.73.07-.2-.04-.47-.07-.7-.46-3.3-2.56-5.53-5.03-7.46-.64-.5-.67-.79-.24-1.44,1.87-2.79,3.78-5.57,5.47-8.47.82-1.4,1.75-1.69,3.21-1.45,2.62.43,5.25.74,7.18,1.01,3.75.03,6.15-1.09,8.15-3.99,3.41-4.95,6.61-10.04,9.98-15.02.93-1.37.95-2.62.18-3.96Zm-33.01,37.09c1.37,1.27,2.37,2.94,1.82,4.99-.02.1-.05.22-.1.34-.88,1.64-.3,3,.6,4.47,1.41,2.31.54,5.18-1.89,6.63-.61.37-.94.75-1.14,1.46-.74,2.65-2.29,4.66-4.98,5.59-.55.19-.79.53-1,1.06-1.34,3.29-3.42,4.61-6.96,4.41-.7-.04-1.28.18-1.91.39-2.4.8-4.23-.13-5.01-2.58.54.04,1.04.08,1.54.11.03-.06.06-.11.09-.17-1.03-.55-2.08-1.05-3.08-1.66-1.65-1-3.41-1.86-4.68-3.39-.57-.69-1.14-1.4-1.25-2.34-.07-.21-.1-.39-.11-.56-.39-2.4.86-3.45,3.54-2.83,3.11.72,5.93,2.18,8.72,3.68.99.53,1.88,1.26,2.97,1.61-.55-1.12-1.66-1.62-2.62-2.26-2.71-1.81-5.66-3.18-8.69-4.37-.72-.28-1.45-.56-1.22-1.58.02-.1.97-5.36,4.46-4.9,3.24.43,6.12,1.9,8.99,3.35,1.51.76,3,1.57,4.49,2.36-.63-1.22-1.8-1.88-2.85-2.65-3.41-2.48-7.3-3.85-11.39-4.7-.79-2.73,1.01-5.24,3.86-5.41,2.03-.12,3.92.47,5.76,1.21,2.64,1.05,5.05,2.51,7.43,4.05.23.15.48.73.85.12-3.5-3.99-8-6.15-13.17-6.82-4.05-.53-6.5,1.74-6.47,5.75,0,.86-.11,1.41-1.04,1.65-.43.11-.78.48-1.33.83.19-2.96.82-5.64,2.31-8.1.28-.47.65-.46,1.09-.43,2.31.13,4.13-.76,5.48-2.64h0c0-.07,1-1.08.08-1.69-1.58,2.86-4.99,3.7-7.46,1.83-2.09-1.58-2.21-5.27-.25-7.6,1.94-2.3,4.88-2.5,6.97-.43,1.25,1.23,1.98,2.74,2.19,4.49,6.43-.77,11.07,2.7,15.37,6.71Z"/>
      <g>
        <g>
          <path class="cls-2" d="m103.89,191.33c.86,1.84,2.26,2.98,4.14,3.55,4.41,1.33,9.27-.46,11.85-4.28.44-.65.55-1.26.57-1.99.11-4.01.78-7.91,2.63-11.51,1.31-2.56,3.22-4.51,6.16-5.12,2.89-.61,5.61-.32,7.91,1.77.15.14.34.25.57.42.37-2.24.73-4.4,1.09-6.57.19-1.17.4-2.34.58-3.51.4-2.5-.16-4.8-1.55-7,.22-.02.4-.05.57-.06,1.29,0,2.58,0,3.86,0,2.93.02,4.89,1.7,5.42,4.57.31,1.69.05,3.33-.22,4.98-.76,4.8-1.51,9.61-2.28,14.41-.54,3.37-1.14,6.73-1.65,10.1-.14.94-.21,1.94-.06,2.87.2,1.3,1.44,1.82,2.55,1.11,1.65-1.05,2.87-2.52,3.16-4.49.72-4.81,1.34-9.64,2.02-14.45.2-1.41.46-2.81.69-4.22h8.32c-.37,2.43-.72,4.82-1.09,7.21-.68,4.38-1.39,8.75-2.05,13.13-.09.61-.02,1.27.12,1.87.26,1.15,1.32,1.62,2.36,1.04.52-.29,1.07-.67,1.38-1.15.77-1.16,1.46-2.39,2.1-3.63.18-.35.1-.85.11-1.28.03-3.87.68-7.61,2.23-11.17.83-1.92,2.04-3.56,3.79-4.79,2.38-1.67,7.5-2.3,10.48.43.21.19.45.36.77.62.16-.94.31-1.81.45-2.67.42-2.58.85-5.16,1.25-7.74.35-2.27-.19-4.37-1.35-6.33-.06-.1-.12-.2-.33-.54,2.21.13,4.28.06,6.27.42,2.24.4,3.26,2.17,3.69,4.29.34,1.68.05,3.33-.22,4.98-.71,4.44-1.41,8.89-2.12,13.33-.6,3.73-1.24,7.45-1.81,11.18-.14.92-.21,1.89-.07,2.8.21,1.38,1.43,1.86,2.64,1.14,1.16-.69,1.92-1.76,2.57-2.91.52-.93.85-1.85.8-3-.17-4.31.71-8.42,3.24-11.98,2.49-3.51,5.91-5.41,10.32-5.43,2.52-.01,4.78.52,6.8,2.1,2.48,1.95,2.9,5.28,1.84,8.14-.82,2.22-2.41,3.84-4.3,5.19-2.51,1.79-5.33,2.95-8.24,3.93-.22.08-.44.15-.72.25.96,2.03,2.54,3.19,4.64,3.69,5.78,1.37,10.51-2.18,12.15-5.98,2.03-4.71,3.53-9.56,4.58-14.57.67-3.21.67-2.52,3.18-2.58,1.17-.03,2.34.04,3.5-.02,1.02-.05,1.61.39,2.05,1.27.81,1.65,1.69,3.26,2.55,4.92,1.53-1.34,2.99-2.64,4.48-3.91,1.11-.95,2.22-1.92,3.72-2.19,1.49-.27,2.87.03,3.93,1.18.96,1.03,1.2,2.27.76,3.58-.45,1.35-1.45,2.19-2.86,2.4-1.48.22-2.74-.22-3.58-1.55-.77-1.21-1.48-1.4-2.52-.42-.95.89-1.71,1.97-2.52,2.99-.09.11-.06.42.03.57,2.6,4.57,5.2,9.14,7.85,13.67.77,1.31,1.4,1.38,2.68.52,1.38-.94,2.2-2.32,2.83-3.8.33-.78.73-1.13,1.6-1.02.69.08,1.4.02,2.09.02.04.08.09.13.08.16-1.03,3.17-2.23,6.25-4.56,8.75-2.13,2.29-4.82,2.92-7.78,2.49-1.24-.18-2.07-1.24-2.75-2.24-.85-1.24-1.59-2.55-2.33-3.86-1.24-2.22-2.45-4.46-3.67-6.69-.13-.23-.26-.45-.47-.82-.32.65-.65,1.18-.86,1.75-1.18,3.32-2.34,6.65-3.5,9.98-.1.27-.18.55-.28.82-.47,1.23-.75,1.34-1.94.74-.3-.15-.59-.34-.86-.54-1.84-1.33-2.07-2.12-1.15-4.18,1.8-4.03,3.87-7.92,6.33-11.59.28-.42.31-.73.07-1.17-.94-1.72-1.81-3.48-2.77-5.19-.24-.42-.71-.72-1.07-1.07-.21.44-.53.87-.62,1.33-.88,4.23-2.14,8.34-3.84,12.31-2.35,5.5-6.45,9.01-12.36,10.21-5.63,1.14-10.74-1.07-13.88-5.89-.06-.1-.14-.18-.25-.33-.32.55-.6,1.05-.91,1.53-1.12,1.79-2.44,3.45-4.42,4.31-2.96,1.28-5.84.82-8.52-.88-.53-.34-.9-.92-1.39-1.43-2.02,2.65-4.85,3.13-7.94,2.72-3.3-.43-5.21-2.55-6.36-5.53-.59.84-1.12,1.68-1.73,2.45-1.29,1.6-2.84,2.91-4.94,3.23-2.18.33-4.31,0-6.25-1.12-.93-.54-1.57-1.36-1.98-2.47-1.78,2.05-3.69,3.8-6.61,3.7-2.67-.09-5.19-.5-6.85-3.03-2.27,2.91-5.35,3.31-8.63,2.66-3.52-.7-5.14-3.37-6.06-6.37-1.38,1.25-2.68,2.64-4.19,3.75-3.1,2.28-6.65,3.26-10.49,2.96-5.34-.41-10.28-4.68-11.27-9.96-1.02-5.48.02-10.65,3.46-15.11,2.39-3.11,5.67-4.76,9.71-4.74,1.81.01,3.57.16,5.23,1.01,3.89,2,4.81,5.52,3.46,9.28-.79,2.21-2.4,3.79-4.26,5.12-2.51,1.8-5.33,2.95-8.23,3.93-.22.08-.45.15-.73.25Zm24.13-2.84c0,.41,0,.82,0,1.24.05,1.97,1,3.43,2.63,4.06,1.5.57,2.9.06,3.61-1.37.26-.52.46-1.07.61-1.63.78-2.96,1.19-5.97,1.37-9.02.08-1.36-.49-2.61-1.58-3.1-1.27-.58-2.58-.53-3.59.45-.76.74-1.4,1.68-1.85,2.64-1,2.12-1.17,4.42-1.2,6.73Zm42.73,0c0,.41,0,.82,0,1.24.05,1.97,1,3.43,2.63,4.06,1.5.57,2.9.06,3.61-1.37.26-.52.46-1.07.61-1.63.78-2.96,1.19-5.97,1.37-9.02.08-1.36-.49-2.61-1.58-3.1-1.27-.58-2.58-.53-3.59.45-.76.74-1.4,1.68-1.85,2.64-1,2.12-1.17,4.42-1.2,6.73Zm-68.23-.4c.43-.38.76-.65,1.07-.94,2.23-2.15,4.15-4.55,5.78-7.18.6-.96,1.19-1.95,1.63-2.99.64-1.5-.09-2.35-1.71-2.16-2.25.26-3.97,1.35-5.11,3.3-1.79,3.06-2.05,6.38-1.66,9.98Zm97.27-.02c.28-.23.44-.34.58-.47,3.09-2.87,5.59-6.18,7.58-9.88.24-.44.4-.93.52-1.42.17-.7-.12-1.2-.82-1.38-.39-.1-.82-.12-1.22-.07-2.52.27-4.22,1.69-5.33,3.89-1.47,2.92-1.68,6.01-1.31,9.33Z"/>
          <path class="cls-2" d="m83.17,201.16h-14.45c.28-1.78.55-3.5.84-5.22,1.23-7.33,2.48-14.66,3.69-22,.05-.27-.06-.72-.26-.86-2.19-1.6-4.38-3.2-6.63-4.7-1.68-1.12-3.58-1.68-5.59-1.05-.81.25-1.56.82-2.22,1.38-.62.52-1.09,1.23-1.75,2-.38-1.65.21-3.1,1.55-4.21,1.74-1.45,3.84-2.11,6.03-2.3,2.66-.23,5.34-.2,8.02-.27.79-.02,1.58,0,2.45,0,.48-3.28.95-6.5,1.41-9.72.51-3.57,1.05-7.14,1.48-10.72.32-2.7.37-5.4-.77-7.99-.4-.92-.9-1.35-1.99-1.07-12.37,3.25-22.32,9.58-27.97,21.55-2.1,4.45-3.94,8.96-4.38,13.89-.73,8.27,1.3,15.6,7.77,21.26,1.3,1.14,1.37,1.12,2.69-.06.76-.67,1.47-1.41,2.1-2.2.44-.56.87-.79,1.59-.78,3.88.04,7.77.02,11.8.02-.15.3-.22.53-.36.71-2.4,3.12-5.6,4.92-9.49,5.29-3.97.38-7.96.74-11.95.72-8.4-.05-16.63-7.29-17.6-15.22-.84-6.78.06-13.33,3.2-19.4,6.64-12.83,16.61-21.9,30.62-26.16,3.38-1.03,6.89-1.21,10.4-1.23,7.13-.04,14.26-.05,21.39,0,4.23.03,8.45.33,12.41,1.99,4.86,2.03,8.27,5.34,9.01,10.8.42,3.14-.23,6.2-.88,9.27-2.02,9.47-8.31,14.64-17.23,17.17-2.89.82-5.8,1.58-8.74,2.21-1.19.26-1.68.65-1.89,1.93-1.36,8.3-2.84,16.58-4.31,24.99Zm5.69-33.45c1.83.76,3.52,1.38,5.13,2.16.8.39,1.48.38,2.07-.15.95-.85,1.93-1.71,2.66-2.73,2.35-3.26,3.97-6.9,4.88-10.81,1.48-6.37-.48-10.96-6-14.28-1.09-.66-2.27-1.16-3.42-1.71-.25-.12-.54-.16-.82-.24-1.51,9.35-3.01,18.61-4.49,27.77Z"/>
          <path class="cls-2" d="m157.3,168.68c-2.55,0-4.5-1.95-4.49-4.5,0-2.54,1.96-4.52,4.49-4.52,2.56,0,4.55,1.99,4.54,4.55,0,2.52-1.99,4.47-4.54,4.47Z"/>
        </g>
        <text class="cls-3" transform="translate(61.43 214.08)"><tspan class="cls-8" x="0" y="0">ca</tspan><tspan class="cls-5" x="14.63" y="0">r</tspan><tspan class="cls-8" x="19.89" y="0">dáio e </tspan><tspan class="cls-6" x="62.19" y="0">c</tspan><tspan class="cls-7" x="69.29" y="0">oma</tspan><tspan class="cls-4" x="96.85" y="0">n</tspan><tspan class="cls-8" x="105.18" y="0">da digital</tspan></text>
      </g>
      <path class="cls-2" d="m0,167.5h0s0,.01,0,.02v-.02Z"/>
    </g>
  </g>
</svg>