<?xml version="1.0" encoding="UTF-8"?>
<svg id="Camada_2" data-name="Camada 2" xmlns="http://www.w3.org/2000/svg" viewBox="0 0 111.87 72.61">
  <defs>
    <style>
      .cls-1 {
        fill: #383838;
        stroke-width: 0px;
      }
    </style>
  </defs>
  <g id="Camada_1-2" data-name="Camada 1">
    <g>
      <path class="cls-1" d="m25.81,31.2c-.13-.09-.22-.14-.19-.34.3-2.12.19-4.23-.19-6.33-.04-.23-.01-.39.16-.57.74-.76.92-1.7.74-2.71-.23-1.22-.85-2.2-2.09-2.57-1.21-.37-2.39-.02-3.05,1.01-.58.9-1.29,1.21-2.23,1.34-.29.04-.58.13-.86.23-.31.12-.48.08-.64-.25-.85-1.71-1.71-3.4-2.59-5.09-.17-.32-.12-.53.08-.79.44-.55.85-1.11,1.28-1.66.15-.2.3-.41.47-.6,1.52-1.72,1.55-3.56.52-5.52-1.11-2.12-2.18-4.25-3.26-6.38-.48-.94-.67-1.05-1.75-.94-.25.02-.51.06-.75.12-2.5.59-4.77,1.7-6.92,3.07-.92.58-1.79,1.22-2.48,2.06-.43.52-.56,1.05-.17,1.68.34.54.59,1.12.88,1.69.83,1.62,1.66,3.24,2.48,4.86.98,1.96,2.48,3.01,4.74,2.78.29-.03.64-.07.89-.07.7,0,1.4.01,2.1,0,.3,0,.45.11.58.36.84,1.68,1.69,3.36,2.57,5.03.16.31.1.42-.19.56-.88.43-1.68,1-2.33,1.73-.81.9-1.33,1.91-1.04,3.18.07.28-.09.49-.19.72-.8,1.79-.59,3.1.74,4.46.15.15.2.3.25.49.25,1.09.88,1.91,1.81,2.51.21.13.4.26.52.52.66,1.43,1.89,2.05,3.37,2.27.46.07.91.14,1.36.29.97.32,1.9.27,2.66-.47.35-.35.42-.19.58.13.46.91.99,1.09,1.89.68,1.01-.46,1.28-1.11.72-2.06-.48-.81-.61-1.39.12-2.23.98-1.13.67-2.33-.56-3.17ZM12.36,2.4c.41-.2.6.11.77.44,1.03,2.03,2.07,4.05,3.11,6.08.07.13.11.27.14.34.02.32-.11.48-.31.57-.19.09-.38.04-.51-.12-.12-.15-.21-.31-.29-.48-1.01-1.97-2.02-3.94-3.03-5.91-.18-.35-.31-.7.13-.91Zm-4.54,11.64c-.19.08-.38.07-.52-.09-.11-.13-.2-.27-.27-.42-1.02-1.99-2.04-3.99-3.06-5.98-.02-.04-.04-.08-.06-.11-.17-.3-.19-.59.13-.77.36-.21.6,0,.76.31.72,1.41,1.44,2.82,2.16,4.24.33.64.66,1.28.98,1.92.08.15.13.31.17.4,0,.29-.1.45-.29.53Zm2.09-1.07c-.34.19-.57-.02-.72-.31-1.09-2.13-2.18-4.25-3.26-6.39-.2-.39.05-.78.44-.76.23.03.37.16.48.37,1.07,2.11,2.15,4.22,3.23,6.33.16.31.14.59-.18.77Zm2.07-1.06c-.34.19-.56,0-.71-.3-1.09-2.12-2.18-4.24-3.25-6.37-.2-.39.02-.79.41-.8.24.03.4.18.51.4,1.07,2.1,2.15,4.21,3.23,6.31.16.31.14.58-.18.76Zm1.99-1.02c-.23.06-.43,0-.55-.21-.17-.29-.31-.6-.47-.9-.91-1.77-1.81-3.54-2.72-5.3-.04-.08-.07-.15-.11-.23-.18-.33-.18-.63.19-.8.35-.16.56.06.71.35.82,1.6,1.64,3.2,2.45,4.8.24.47.49.94.72,1.41.07.13.11.27.16.38-.05.26-.15.44-.38.5Zm12.1,22.03c-.04.8-.56,1.32-1.16,1.76-.73.54-1.53.97-2.36,1.32-.2.09-.4.19-.73.35h.85c-.32.97-1.09,1.37-2.03,1.04-.42-.15-.83-.25-1.29-.26-1.27-.02-2.1-.7-2.53-1.86-.12-.33-.38-.59-.7-.74-.96-.44-1.5-1.25-1.77-2.26-.09-.35-.22-.62-.56-.84-.84-.53-1.08-1.27-.83-2.26.01-.04,0-.09.03-.12.47-.91.86-1.83.49-2.88h0c-.07-.46.13-.86.4-1.17,1.63-1.88,3.64-3.06,6.16-3.27.35-.03.71.06,1.07.09.11-.76.47-1.4,1.04-1.91.85-.76,2.08-.68,2.83.18.49.57.71,1.25.68,1.99-.04.9-.67,1.61-1.53,1.77-1.06.19-2.03-.35-2.49-1.39-.28.3.13.96.19,1.04.52.69,1.21,1.07,2.1,1.03.33-.01.49.13.63.4.53,1.02.71,2.11.76,3.25q-.95-.41-.98-1.34c-.04-1.36-.81-2.21-2.16-2.24-2.45-.05-4.51.91-6.27,2.58.02.45.21.1.29.05,1.19-.69,2.39-1.35,3.72-1.75.79-.24,1.6-.44,2.43-.21,1.11.3,1.38,1.26,1.3,2.18-.03.34-.31.19-.5.21-2.23.42-4.28,1.25-5.98,2.81.28.07.48-.11.71-.22,1.45-.74,2.92-1.45,4.51-1.83.21-.05.41-.09.62-.11,1.7-.17,2.46.73,1.98,2.34,0,.07-.02.14-.07.21-.48.4-1.1.5-1.66.73-1.36.55-2.66,1.18-3.83,2.07.2.32.34,0,.46-.07,1.22-.62,2.44-1.24,3.76-1.63.38-.11.78-.2,1.17-.26.93-.15,1.32.24,1.25,1.2Z"/>
      <path class="cls-1" d="m93.04,46.77c.27-2.34-.49-4.42-1.9-6.26-.26-.33-.36-.57-.15-1,2-3.96,1.84-7.96,0-11.92-1.9-4.08-5.81-6.66-9.77-6.36-1,.07-1.32-.24-1.73-1.03-2.27-4.41-7.07-7.3-12.53-5.15-.46.18-.66.07-.95-.26-1.08-1.24-2.35-2.26-3.82-2.99-4.03-2.02-8.08-2.47-11.97.27-2.56,1.81-3.8,4.5-4.45,7.48-.14.63-.32.82-1,.69-1.49-.28-2.99-.21-4.45.28-3.73,1.24-6.19,5.14-5.97,9.55.23,4.59,2.54,7.87,6.48,10.06.54.3.75.55.57,1.16-.19.67-.29,1.38-.43,2.07-.13.63-.26,1.25-.38,1.88-.39,2.25-.19,2.45,2.06,2.27,7.14-.58,14.11.42,20.95,2.4,5.2,1.51,10.2,3.55,15.07,5.89.85.41,1.09.28,1.3-.68.28-1.28.58-2.56.82-3.85.11-.57.31-.64.81-.38,1.16.62,2.39,1.08,3.69,1.3,4.14.72,7.27-1.45,7.72-5.43Zm-16.72,4.14c.38.23.76.47,1.14.71q1.6,1.01,1.03,2.87c-2.11-.96-4.21-1.97-6.34-2.88-9.44-3.99-19.23-6.13-29.53-5.55-.21.01-.45.14-.57-.16-.27-.62.07-1.17.2-1.74.29-2.04.29-2.06,2.29-2.42,1.63-.3,5.13-.79,5.24-.81-.21-.05-4.43-.19-6.25-.02-.62.06-.56-.16-.37-.57.42-.95,1.25-1.34,2.19-1.51,2.03-.36,4.08-.23,6.12-.19,5.05.09,9.98.97,14.82,2.36.12.03.22.12.33.18,3.63,1.01,7.19,2.21,10.49,4.07,2.36,1.21,3.08,3.15,2.14,5.63-.22.58-.5.23-.73.12-1.66-.82-3.38-1.49-5.24-1.86,1.02.59,2.04,1.18,3.05,1.78Zm10.05-.84c-1.58-.19-3.02-.76-4.41-1.51-.3-.16-.49-.32-.48-.73.03-1.58-.89-2.61-2.08-3.45-1.39-.98-2.96-1.63-4.5-2.32-1.2-.53-1.35-1.15-.45-2.1,1.05-1.1,2.31-1.89,3.78-2.34.33-.15.66-.3,1.08-.49-.79-.23-5.09,1.39-6.59,2.08-4.4,2.02-10.61.41-13.05-3.42-1.2-1.88-1.48-3.98-1.21-6.17-.06-.29.06-.56.08-.83.01-.16.02-.34-.23-.21-.31.35-.37.8-.45,1.23-.49,1.06-.82,4.02-.84,4.14-.38,2.38-1.34,3.23-3.74,3.38-1.32.08-2.64.03-3.87-.48-2.35-.98-2.78-3.05-2.81-5.29,0-.28.06-.57.09-.85h0s0,0,0,0c0-.25,0-.49-.02-.74,0-.06.04-.22-.12-.13-.07.04-.1.15-.15.22-.72,2.12-1.04,4.27-.54,6.5.09.39-.1.59-.49.67-.46.1-.97.15-1.37.39-1.26.75-2.34.38-3.48-.3-3.58-2.14-5.22-6.98-3.64-10.72.03-.07.06-.15.09-.22,1.16-3.54,4.67-5.24,7.98-3.9.46.19.7.42.85.9.49,1.56,1.26,2.98,2.59,4.35-.29-1.08-.85-1.84-.93-2.74-2.17-6.18,2.74-13.17,9.27-13.1,3.35.04,5.8,1.89,7.82,4.41.29.36.08.56-.19.76-1.15,1.71-1.99,3.57-2.73,5.48,0,0,0,0,0,0,0,0,0,0,0,0,0,.1-.05.22,0,.28.25.33.2-.08.21-.12,1.14-2.2,2.7-4.02,4.9-5.21,4.79-2.6,9.11-.42,11.19,4.19.3.66-.31.61-.59.83-.85.69-1.71,1.38-2.56,2.07h0c.77.05,1.41-.38,2.06-.66,4.26-1.81,8.78.04,10.73,2.32,1.95,2.27,2.94,4.89,2.77,7.92,0,1.35-.32,2.63-.85,3.86-.18.42-.35.6-.81.26-.53-.39-1.13-.67-1.78-.92.32.4.63.8.95,1.19,1.48,1.46,2.58,3.15,3.25,5.12.24.7.36,1.42.33,2.17-.14,2.97-2.07,4.57-5.05,4.21Z"/>
      <path class="cls-1" d="m111.68,48.68c-.13-.22-.27-.43-.43-.63-.97-1.17-2.18-2.03-3.48-2.78-1.01-.58-2.04-1.1-3.22-1.24-.56-.07-1.02.07-1.33.61-.31.55-.69,1.07-1.03,1.6-.73,1.14-1.48,2.26-2.18,3.42-.65,1.07-.67,2.16,0,3.25.44.72.87,1.44,1.31,2.16.15.23.14.41-.01.64-.68,1.02-1.35,2.04-2.01,3.07-.15.24-.27.32-.55.17-.78-.4-1.61-.67-2.47-.84-.23-.05-.39-.14-.49-.38-.21-.49-.56-.88-1.02-1.16-.95-.56-2.03-.4-2.77.42-.82.91-.94,2.35-.24,3.25.2.26.24.46.17.77-.34,1.51-.49,3.04-.34,4.6.02.21-.02.34-.24.44-.59.26-.83.75-.81,1.38.02.72.4,1.27.88,1.74.23.23.26.39.05.62-.07.08-.13.18-.19.28-.35.55-.26.96.3,1.37.59.44,1.07.42,1.48-.1.12-.15.18-.17.32-.03.61.58,1.33.61,2.09.4.26-.07.52-.11.79-.14,1.17-.1,2.22-.47,2.84-1.56.13-.23.29-.4.52-.53.75-.43,1.26-1.06,1.46-1.91.04-.19.16-.3.3-.41.83-.71,1.11-1.6.86-2.66-.15-.63-.49-1.24-.24-1.92.02-.07-.01-.16-.02-.24-.16-1.11-.86-1.85-1.69-2.5-.21-.17-.22-.27-.08-.48.63-.94,1.27-1.87,1.84-2.84.27-.47.59-.57,1.08-.49.88.14,1.76.25,2.41.34,1.26.01,2.06-.37,2.73-1.34,1.14-1.66,2.22-3.37,3.35-5.04.31-.46.32-.88.06-1.33Zm-11.08,12.45c.46.43.8.99.61,1.67,0,.03-.02.07-.03.11-.3.55-.1,1.01.2,1.5.47.78.18,1.74-.63,2.23-.2.12-.32.25-.38.49-.25.89-.77,1.56-1.67,1.88-.19.06-.26.18-.34.36-.45,1.1-1.15,1.55-2.34,1.48-.24-.01-.43.06-.64.13-.81.27-1.42-.04-1.68-.87.18.01.35.03.52.04,0-.02.02-.04.03-.06-.34-.18-.7-.35-1.03-.56-.55-.33-1.14-.63-1.57-1.14-.19-.23-.38-.47-.42-.79-.02-.07-.03-.13-.04-.19-.13-.81.29-1.16,1.19-.95,1.04.24,1.99.73,2.92,1.23.33.18.63.42,1,.54-.18-.38-.56-.55-.88-.76-.91-.61-1.9-1.07-2.92-1.47-.24-.09-.49-.19-.41-.53,0-.03.33-1.8,1.5-1.64,1.09.14,2.05.64,3.02,1.12.51.26,1.01.53,1.51.79-.21-.41-.61-.63-.96-.89-1.15-.83-2.45-1.29-3.82-1.58-.27-.91.34-1.76,1.3-1.81.68-.04,1.31.16,1.93.41.88.35,1.7.84,2.49,1.36.08.05.16.24.29.04-1.18-1.34-2.68-2.06-4.42-2.29-1.36-.18-2.18.58-2.17,1.93,0,.29-.04.47-.35.56-.14.04-.26.16-.45.28.06-.99.28-1.89.78-2.72.1-.16.22-.15.36-.14.78.04,1.39-.25,1.84-.88h0s.34-.36.03-.57c-.53.96-1.67,1.24-2.5.61-.7-.53-.74-1.77-.08-2.55.65-.77,1.64-.84,2.34-.15.42.41.66.92.73,1.51,2.16-.26,3.71.91,5.16,2.25Z"/>
      <g>
        <g>
          <path class="cls-1" d="m34.86,64.2c.29.62.76,1,1.39,1.19,1.48.45,3.11-.16,3.98-1.44.15-.22.19-.42.19-.67.04-1.35.26-2.65.88-3.86.44-.86,1.08-1.51,2.07-1.72.97-.2,1.88-.11,2.65.59.05.05.11.08.19.14.13-.75.25-1.48.37-2.2.07-.39.13-.78.2-1.18.13-.84-.05-1.61-.52-2.35.07,0,.13-.02.19-.02.43,0,.86,0,1.3,0,.98,0,1.64.57,1.82,1.53.11.57.02,1.12-.07,1.67-.25,1.61-.51,3.22-.77,4.84-.18,1.13-.38,2.26-.55,3.39-.05.32-.07.65-.02.96.07.43.48.61.85.37.55-.35.96-.85,1.06-1.51.24-1.61.45-3.23.68-4.85.07-.47.15-.94.23-1.41h2.79c-.12.82-.24,1.62-.37,2.42-.23,1.47-.47,2.93-.69,4.4-.03.2,0,.42.04.63.09.39.44.54.79.35.17-.1.36-.22.46-.38.26-.39.49-.8.7-1.22.06-.12.03-.29.04-.43.01-1.3.23-2.56.75-3.75.28-.64.69-1.2,1.27-1.61.8-.56,2.52-.77,3.52.14.07.07.15.12.26.21.05-.32.1-.61.15-.9.14-.87.29-1.73.42-2.6.12-.76-.06-1.47-.45-2.12-.02-.03-.04-.07-.11-.18.74.04,1.44.02,2.11.14.75.14,1.09.73,1.24,1.44.12.56.02,1.12-.07,1.67-.24,1.49-.47,2.98-.71,4.47-.2,1.25-.42,2.5-.61,3.75-.05.31-.07.63-.02.94.07.46.48.62.89.38.39-.23.65-.59.86-.98.18-.31.28-.62.27-1.01-.06-1.45.24-2.82,1.09-4.02.83-1.18,1.98-1.81,3.46-1.82.84,0,1.61.17,2.28.71.83.66.97,1.77.62,2.73-.28.75-.81,1.29-1.44,1.74-.84.6-1.79.99-2.76,1.32-.07.03-.15.05-.24.08.32.68.85,1.07,1.56,1.24,1.94.46,3.53-.73,4.08-2.01.68-1.58,1.18-3.21,1.54-4.89.23-1.08.23-.85,1.07-.87.39,0,.78.01,1.17,0,.34-.02.54.13.69.43.27.55.57,1.09.86,1.65.51-.45,1-.89,1.5-1.31.37-.32.75-.64,1.25-.73.5-.09.96.01,1.32.4.32.34.4.76.26,1.2-.15.45-.49.74-.96.81-.5.07-.92-.08-1.2-.52-.26-.41-.5-.47-.85-.14-.32.3-.57.66-.85,1-.03.04-.02.14,0,.19.87,1.53,1.74,3.07,2.63,4.59.26.44.47.46.9.17.46-.31.74-.78.95-1.27.11-.26.24-.38.54-.34.23.03.47,0,.7,0,.01.03.03.04.03.05-.35,1.06-.75,2.1-1.53,2.94-.72.77-1.62.98-2.61.84-.42-.06-.69-.42-.92-.75-.28-.42-.54-.85-.78-1.29-.42-.74-.82-1.5-1.23-2.25-.04-.08-.09-.15-.16-.27-.11.22-.22.4-.29.59-.4,1.11-.78,2.23-1.18,3.35-.03.09-.06.19-.09.28-.16.41-.25.45-.65.25-.1-.05-.2-.11-.29-.18-.62-.45-.69-.71-.38-1.4.6-1.35,1.3-2.66,2.12-3.89.09-.14.1-.24.02-.39-.31-.58-.61-1.17-.93-1.74-.08-.14-.24-.24-.36-.36-.07.15-.18.29-.21.45-.29,1.42-.72,2.8-1.29,4.13-.79,1.85-2.16,3.02-4.15,3.43-1.89.38-3.6-.36-4.66-1.98-.02-.03-.05-.06-.08-.11-.11.18-.2.35-.31.51-.38.6-.82,1.16-1.48,1.44-.99.43-1.96.28-2.86-.29-.18-.11-.3-.31-.47-.48-.68.89-1.63,1.05-2.66.91-1.11-.14-1.75-.85-2.14-1.86-.2.28-.37.56-.58.82-.43.54-.95.98-1.66,1.08-.73.11-1.45,0-2.1-.38-.31-.18-.53-.46-.67-.83-.6.69-1.24,1.27-2.22,1.24-.89-.03-1.74-.17-2.3-1.02-.76.98-1.8,1.11-2.89.89-1.18-.24-1.73-1.13-2.03-2.14-.46.42-.9.89-1.4,1.26-1.04.77-2.23,1.09-3.52.99-1.79-.14-3.45-1.57-3.78-3.34-.34-1.84,0-3.57,1.16-5.07.8-1.04,1.9-1.6,3.26-1.59.61,0,1.2.05,1.75.34,1.31.67,1.61,1.85,1.16,3.11-.27.74-.8,1.27-1.43,1.72-.84.6-1.79.99-2.76,1.32-.08.03-.15.05-.24.08Zm8.1-.95c0,.14,0,.28,0,.41.02.66.34,1.15.88,1.36.5.19.97.02,1.21-.46.09-.17.15-.36.2-.55.26-.99.4-2,.46-3.03.03-.46-.17-.87-.53-1.04-.43-.2-.87-.18-1.2.15-.25.25-.47.56-.62.89-.34.71-.39,1.48-.4,2.26Zm14.34,0c0,.14,0,.28,0,.41.02.66.34,1.15.88,1.36.5.19.97.02,1.21-.46.09-.17.15-.36.2-.55.26-.99.4-2,.46-3.03.03-.46-.17-.87-.53-1.04-.43-.2-.87-.18-1.2.15-.25.25-.47.56-.62.89-.34.71-.39,1.48-.4,2.26Zm-22.9-.14c.14-.13.26-.22.36-.32.75-.72,1.39-1.53,1.94-2.41.2-.32.4-.65.55-1,.21-.5-.03-.79-.57-.73-.76.09-1.33.45-1.71,1.11-.6,1.03-.69,2.14-.56,3.35Zm32.64,0c.09-.08.15-.11.19-.16,1.04-.96,1.88-2.07,2.54-3.31.08-.15.14-.31.17-.48.06-.24-.04-.4-.28-.46-.13-.03-.27-.04-.41-.02-.84.09-1.42.57-1.79,1.3-.49.98-.57,2.02-.44,3.13Z"/>
          <path class="cls-1" d="m27.91,67.5h-4.85c.1-.6.18-1.18.28-1.75.41-2.46.83-4.92,1.24-7.38.02-.09-.02-.24-.09-.29-.73-.54-1.47-1.07-2.23-1.58-.56-.37-1.2-.57-1.87-.35-.27.09-.52.28-.75.46-.21.18-.37.41-.59.67-.13-.56.07-1.04.52-1.41.58-.49,1.29-.71,2.02-.77.89-.08,1.79-.07,2.69-.09.26,0,.53,0,.82,0,.16-1.1.32-2.18.47-3.26.17-1.2.35-2.39.5-3.6.11-.91.12-1.81-.26-2.68-.14-.31-.3-.45-.67-.36-4.15,1.09-7.49,3.21-9.39,7.23-.7,1.49-1.32,3.01-1.47,4.66-.25,2.77.44,5.23,2.61,7.13.44.38.46.37.9-.02.25-.23.49-.47.7-.74.15-.19.29-.27.53-.26,1.3.01,2.61,0,3.96,0-.05.1-.07.18-.12.24-.81,1.05-1.88,1.65-3.18,1.77-1.33.13-2.67.25-4.01.24-2.82-.02-5.58-2.45-5.91-5.11-.28-2.28.02-4.47,1.07-6.51,2.23-4.3,5.57-7.35,10.28-8.78,1.13-.35,2.31-.41,3.49-.41,2.39-.01,4.79-.02,7.18,0,1.42.01,2.84.11,4.17.67,1.63.68,2.78,1.79,3.02,3.62.14,1.05-.08,2.08-.3,3.11-.68,3.18-2.79,4.91-5.78,5.76-.97.28-1.95.53-2.93.74-.4.09-.56.22-.63.65-.46,2.79-.95,5.56-1.44,8.38Zm1.91-11.22c.61.25,1.18.46,1.72.72.27.13.5.13.69-.05.32-.28.65-.57.89-.92.79-1.1,1.33-2.32,1.64-3.63.5-2.14-.16-3.68-2.01-4.79-.37-.22-.76-.39-1.15-.57-.08-.04-.18-.05-.27-.08-.51,3.14-1.01,6.24-1.51,9.32Z"/>
          <path class="cls-1" d="m52.78,56.6c-.86,0-1.51-.66-1.51-1.51,0-.85.66-1.52,1.51-1.52.86,0,1.53.67,1.53,1.53,0,.84-.67,1.5-1.53,1.5Z"/>
        </g>
        <g>
          <path class="cls-1" d="m20.72,70.79c0-.62.49-1.07,1.19-1.07.47,0,.83.21.97.57l-.56.29c-.1-.2-.25-.28-.41-.28-.25,0-.45.18-.45.49s.2.5.45.5c.17,0,.31-.08.41-.28l.56.29c-.14.36-.5.57-.97.57-.7,0-1.19-.44-1.19-1.08Z"/>
          <path class="cls-1" d="m25.2,70.68v1.15h-.68v-.27c-.1.2-.31.3-.61.3-.5,0-.77-.28-.77-.64,0-.38.28-.62.92-.62h.41c-.01-.21-.15-.33-.44-.33-.2,0-.42.07-.56.18l-.25-.49c.24-.16.59-.24.92-.24.67,0,1.06.3,1.06.96Zm-.73.49v-.18h-.31c-.23,0-.32.08-.32.21s.1.21.27.21c.16,0,.3-.08.36-.24Z"/>
          <path class="cls-1" d="m27.15,69.72v.65c-.07,0-.11-.01-.16-.01-.3,0-.5.15-.5.51v.95h-.73v-2.08h.69v.25c.15-.19.39-.28.7-.28Z"/>
          <path class="cls-1" d="m29.73,68.99v2.84h-.69v-.21c-.14.16-.34.24-.61.24-.57,0-1.02-.41-1.02-1.08s.46-1.07,1.02-1.07c.24,0,.44.07.57.21v-.95h.73Zm-.72,1.8c0-.31-.19-.49-.43-.49s-.44.18-.44.49.19.5.44.5.43-.18.43-.5Z"/>
          <path class="cls-1" d="m32.24,70.68v1.15h-.68v-.27c-.1.2-.31.3-.61.3-.5,0-.77-.28-.77-.64,0-.38.28-.62.92-.62h.41c-.01-.21-.15-.33-.44-.33-.2,0-.42.07-.56.18l-.25-.49c.24-.16.59-.24.92-.24.67,0,1.06.3,1.06.96Zm-.73.49v-.18h-.31c-.23,0-.32.08-.32.21s.1.21.27.21c.16,0,.3-.08.36-.24Zm-.11-1.66h-.52l.51-.58h.73l-.72.58Z"/>
          <path class="cls-1" d="m32.71,69.14c0-.22.18-.39.44-.39s.44.16.44.38-.18.4-.44.4-.44-.17-.44-.39Zm.08.62h.73v2.08h-.73v-2.08Z"/>
          <path class="cls-1" d="m33.96,70.79c0-.62.49-1.07,1.17-1.07s1.17.44,1.17,1.07-.49,1.08-1.17,1.08-1.17-.45-1.17-1.08Zm1.61,0c0-.31-.19-.49-.44-.49s-.44.18-.44.49.19.5.44.5.44-.18.44-.5Z"/>
          <path class="cls-1" d="m40.06,70.98h-1.51c.06.21.24.33.51.33.2,0,.34-.06.48-.18l.38.4c-.2.22-.49.34-.89.34-.74,0-1.22-.46-1.22-1.08s.49-1.07,1.14-1.07c.61,0,1.11.39,1.11,1.08,0,.05,0,.12-.01.18Zm-1.52-.38h.85c-.04-.22-.2-.36-.43-.36s-.38.14-.43.36Z"/>
          <path class="cls-1" d="m41.58,70.79c0-.62.49-1.07,1.19-1.07.47,0,.83.21.97.57l-.56.29c-.1-.2-.25-.28-.41-.28-.25,0-.45.18-.45.49s.2.5.45.5c.17,0,.31-.08.41-.28l.56.29c-.14.36-.5.57-.97.57-.7,0-1.19-.44-1.19-1.08Z"/>
          <path class="cls-1" d="m43.97,70.79c0-.62.49-1.07,1.17-1.07s1.17.44,1.17,1.07-.49,1.08-1.17,1.08-1.17-.45-1.17-1.08Zm1.61,0c0-.31-.19-.49-.44-.49s-.44.18-.44.49.19.5.44.5.44-.18.44-.5Z"/>
          <path class="cls-1" d="m50.29,70.65v1.19h-.73v-1.07c0-.3-.12-.43-.31-.43-.21,0-.36.14-.36.46v1.03h-.73v-1.07c0-.3-.12-.43-.31-.43-.21,0-.37.14-.37.46v1.03h-.73v-2.08h.69v.22c.16-.17.38-.25.62-.25.28,0,.52.1.67.33.16-.21.42-.33.72-.33.48,0,.84.28.84.92Z"/>
          <path class="cls-1" d="m52.79,70.68v1.15h-.68v-.27c-.1.2-.31.3-.61.3-.5,0-.77-.28-.77-.64,0-.38.28-.62.92-.62h.41c-.01-.21-.15-.33-.44-.33-.2,0-.42.07-.56.18l-.25-.49c.24-.16.59-.24.92-.24.67,0,1.06.3,1.06.96Zm-.73.49v-.18h-.31c-.23,0-.32.08-.32.21s.1.21.27.21c.16,0,.3-.08.36-.24Z"/>
          <path class="cls-1" d="m55.56,70.65v1.19h-.73v-1.07c0-.3-.13-.43-.34-.43-.23,0-.41.15-.41.49v1h-.73v-2.08h.69v.23c.16-.17.4-.26.66-.26.49,0,.86.28.86.92Z"/>
          <path class="cls-1" d="m58.35,68.99v2.84h-.69v-.21c-.14.16-.34.24-.61.24-.57,0-1.02-.41-1.02-1.08s.46-1.07,1.02-1.07c.24,0,.44.07.57.21v-.95h.73Zm-.72,1.8c0-.31-.19-.49-.43-.49s-.44.18-.44.49.19.5.44.5.43-.18.43-.5Z"/>
          <path class="cls-1" d="m60.86,70.68v1.15h-.68v-.27c-.1.2-.31.3-.61.3-.5,0-.77-.28-.77-.64,0-.38.28-.62.92-.62h.41c-.01-.21-.15-.33-.44-.33-.2,0-.42.07-.56.18l-.25-.49c.24-.16.59-.24.92-.24.67,0,1.06.3,1.06.96Zm-.73.49v-.18h-.31c-.23,0-.32.08-.32.21s.1.21.27.21c.16,0,.3-.08.36-.24Z"/>
          <path class="cls-1" d="m64.83,68.99v2.84h-.69v-.21c-.14.16-.34.24-.61.24-.57,0-1.02-.41-1.02-1.08s.46-1.07,1.02-1.07c.24,0,.44.07.57.21v-.95h.73Zm-.72,1.8c0-.31-.19-.49-.43-.49s-.44.18-.44.49.19.5.44.5.43-.18.43-.5Z"/>
          <path class="cls-1" d="m65.31,69.14c0-.22.18-.39.44-.39s.44.16.44.38-.18.4-.44.4-.44-.17-.44-.39Zm.08.62h.73v2.08h-.73v-2.08Z"/>
          <path class="cls-1" d="m68.92,69.76v1.7c0,.79-.44,1.16-1.22,1.16-.4,0-.78-.09-1.03-.27l.26-.51c.17.14.46.22.7.22.39,0,.56-.18.56-.5v-.07c-.14.17-.35.25-.62.25-.55,0-1.02-.39-1.02-1s.47-1,1.02-1c.29,0,.51.09.65.29v-.25h.69Zm-.72.97c0-.25-.19-.42-.45-.42s-.46.17-.46.42.2.43.46.43.45-.17.45-.43Z"/>
          <path class="cls-1" d="m69.41,69.14c0-.22.18-.39.44-.39s.44.16.44.38-.18.4-.44.4-.44-.17-.44-.39Zm.08.62h.73v2.08h-.73v-2.08Z"/>
          <path class="cls-1" d="m72.21,71.75c-.13.08-.31.12-.51.12-.53,0-.84-.26-.84-.79v-.7h-.3v-.54h.3v-.54h.73v.54h.48v.54h-.48v.69c0,.15.09.24.22.24.08,0,.16-.02.22-.06l.18.51Z"/>
          <path class="cls-1" d="m74.54,70.68v1.15h-.68v-.27c-.1.2-.31.3-.61.3-.5,0-.77-.28-.77-.64,0-.38.28-.62.92-.62h.41c-.01-.21-.15-.33-.44-.33-.2,0-.42.07-.56.18l-.25-.49c.24-.16.59-.24.92-.24.67,0,1.06.3,1.06.96Zm-.73.49v-.18h-.31c-.23,0-.32.08-.32.21s.1.21.27.21c.16,0,.3-.08.36-.24Z"/>
          <path class="cls-1" d="m75.09,68.99h.73v2.84h-.73v-2.84Z"/>
        </g>
      </g>
      <polygon class="cls-1" points="0 56.21 0 56.21 0 56.21 0 56.21"/>
    </g>
  </g>
</svg>