<?xml version="1.0" encoding="UTF-8"?>
<svg id="Camada_2" data-name="Camada 2" xmlns="http://www.w3.org/2000/svg" viewBox="0 0 33.63 33.63">
  <defs>
    <style>
      .cls-1 {
        fill: #fff;
        stroke-width: 0px;
      }
    </style>
  </defs>
  <g id="Camada_1-2" data-name="Camada 1">
    <g>
      <path class="cls-1" d="m28.84,20.78c.53,0,1.03,0,1.54,0v-3.13h-1.57c0-.54,0-1.06,0-1.61h-1.6v-1.65c.52,0,1.04,0,1.58,0,0-.54,0-1.05,0-1.59,1.62,0,3.22,0,4.84,0,0,1.07,0,2.14,0,3.23-1.06,0-2.1,0-3.17,0v1.55c1.05,0,2.1,0,3.16,0v1.66h-1.58v1.6h-1.59v1.55h3.17c0,1.1,0,2.17,0,3.26-1.06,0-2.1,0-3.18,0,0,1.61,0,3.19,0,4.8-.54,0-1.06,0-1.6,0v1.59h-1.65c0-1.58,0-3.16,0-4.77h-1.56c0,1.05,0,2.1,0,3.17-1.07,0-2.13,0-3.19,0v1.56c1.05,0,2.1,0,3.17,0v1.64h-4.82v-1.58h-1.61v-1.59h-1.55c0,1.05,0,2.09,0,3.16-1.09,0-2.16,0-3.26,0v-3.17h-1.59c0-1.62,0-3.22,0-4.85.51,0,1.03,0,1.56,0,0-1.05,0-2.09,0-3.16h-1.57v-1.65h1.58v-1.6h1.64v1.63h-1.56v1.56h1.57v1.6h1.59c0,.56,0,1.09,0,1.65-1.05,0-2.1,0-3.17,0,0,.53,0,1.03,0,1.56,1.05,0,2.1,0,3.17,0,0,.54,0,1.06,0,1.61,1.08,0,2.13,0,3.21,0v1.59c.52,0,1.02,0,1.55,0,0-.51,0-1.03,0-1.57h1.6v-1.6h1.59v-1.56h-1.57v-1.65h1.57v-1.56h-3.18v-3.19h-1.55c0,1.58,0,3.17,0,4.77h-1.66c0-.52,0-1.03,0-1.57h-1.59v-1.65h1.57v-3.16h-3.16v-1.65h1.57c0-.54,0-1.05,0-1.59h1.65c0,1.05,0,2.1,0,3.16h1.54c0-1.56,0-3.13,0-4.72h-3.17v-1.59h-1.56v1.58h-1.6c0,1.61,0,3.19,0,4.8h-1.61c0,.55,0,1.07,0,1.61h-1.6v1.59c-.56,0-1.09,0-1.64,0v-1.63h1.57v-1.54c-1.04,0-2.07,0-3.14,0v1.58h-1.6v1.59h-1.65v-1.57h-1.56v1.57H0v-1.62c1.05,0,2.1,0,3.18,0v-3.2c.54,0,1.05,0,1.59,0v-1.55h-1.56v-1.64c1.6,0,3.2,0,4.82,0v1.57c.52,0,1.02,0,1.56,0v-1.57c.56,0,1.09,0,1.65,0v1.57h1.55c0-2.11,0-4.23,0-6.38h1.6c0-1.06,0-2.09,0-3.15h-1.57c0-1.63,0-3.23,0-4.85.54,0,1.07,0,1.63,0,0,1.05,0,2.11,0,3.17h1.55v-1.57c1.63,0,3.23,0,4.85,0,0,1.07,0,2.13,0,3.22-1.05,0-2.1,0-3.17,0v1.56h3.18c0,2.14,0,4.26,0,6.4h4.79v1.66h-3.17v1.55h3.17v1.65c-.52,0-1.03,0-1.57,0v1.56h1.58v3.19h1.56c0-1.06,0-2.1,0-3.17h1.65v1.57Zm1.54,4.8c0-1.06,0-2.09,0-3.12-1.05,0-2.09,0-3.12,0,0,1.05,0,2.08,0,3.12,1.04,0,2.07,0,3.12,0Zm-14.33-16.01h1.52c0-1.05,0-2.09,0-3.12h-1.52v3.12Zm-9.68,9.61v-3.12h-1.52c0,1.05,0,2.08,0,3.12.51,0,1.01,0,1.52,0Zm9.61-9.52h-1.53v1.52h1.53c0-.51,0-1.01,0-1.52Zm1.67,1.52h1.53v-1.52h-1.53v1.52Zm-11.2,3.27v1.52h1.52v-1.52h-1.52Zm4.73,0c-.53,0-1.02,0-1.52,0,0,.52,0,1.02,0,1.52.52,0,1.02,0,1.52,0v-1.52Zm6.4,15.93c0-.52,0-1.03,0-1.52h-1.52v1.52h1.52Z"/>
      <path class="cls-1" d="m0,11.17C0,7.44,0,3.73,0,0c3.72,0,7.44,0,11.17,0,0,3.71,0,7.43,0,11.17-3.71,0-7.43,0-11.17,0ZM1.61,1.6c0,2.67,0,5.32,0,7.97,2.67,0,5.32,0,7.97,0,0-2.67,0-5.31,0-7.97H1.61Z"/>
      <path class="cls-1" d="m22.41,11.17c0-3.73,0-7.44,0-11.17,3.72,0,7.44,0,11.17,0,0,3.71,0,7.43,0,11.17-3.71,0-7.43,0-11.17,0Zm9.57-1.59c0-2.67,0-5.33,0-7.97-2.67,0-5.32,0-7.97,0,0,2.67,0,5.31,0,7.97,2.66,0,5.31,0,7.97,0Z"/>
      <path class="cls-1" d="m11.18,33.59c-3.73,0-7.45,0-11.17,0,0-3.73,0-7.44,0-11.17,3.72,0,7.44,0,11.17,0,0,3.71,0,7.43,0,11.17Zm-1.6-1.6c0-2.67,0-5.32,0-7.97-2.67,0-5.32,0-7.97,0,0,2.67,0,5.31,0,7.97,2.66,0,5.31,0,7.97,0Z"/>
      <path class="cls-1" d="m20.81,27.23c0-.54,0-1.07,0-1.62h1.62v1.62h-1.62Z"/>
      <path class="cls-1" d="m32.02,30.41h1.62v1.63h-1.62v-1.63Z"/>
      <path class="cls-1" d="m7.98,3.21c-1.61,0-3.19,0-4.77,0,0,1.6,0,3.19,0,4.77,1.6,0,3.18,0,4.77,0,0-1.59,0-3.17,0-4.77Z"/>
      <path class="cls-1" d="m25.61,7.98c1.61,0,3.19,0,4.77,0V3.21c-1.6,0-3.19,0-4.77,0,0,1.6,0,3.18,0,4.77Z"/>
      <path class="cls-1" d="m7.98,3.21c0,1.6,0,3.18,0,4.77-1.59,0-3.17,0-4.77,0,0-1.58,0-3.17,0-4.77,1.58,0,3.16,0,4.77,0Z"/>
      <path class="cls-1" d="m7.98,25.61c0,1.6,0,3.18,0,4.77-1.59,0-3.17,0-4.77,0,0-1.58,0-3.17,0-4.77,1.58,0,3.16,0,4.77,0Z"/>
    </g>
  </g>
</svg>