<?xml version="1.0" encoding="utf-8"?>
<!-- Generator: Adobe Illustrator 28.0.0, SVG Export Plug-In . SVG Version: 6.00 Build 0)  -->
<svg version="1.1" id="Camada_2_00000027562830143945200750000005126663289980577215_"
	 xmlns="http://www.w3.org/2000/svg" xmlns:xlink="http://www.w3.org/1999/xlink" x="0px" y="0px" viewBox="0 0 23.9 23.8"
	 style="enable-background:new 0 0 23.9 23.8;" xml:space="preserve">
<style type="text/css">
	.st0{fill:#009B8C;}
</style>
<path class="st0" d="M18.2,15.5c1-1.5,1.5-3.2,1.5-5c0-5.1-4.1-9.2-9.2-9.2c-5.1,0-9.2,4.1-9.2,9.2c0,5.1,4.1,9.2,9.2,9.2
	c1.8,0,3.6-0.6,5.1-1.6l4.9,4.9l2.6-2.6L18.2,15.5z M14.7,14.1c-0.2,0.2-0.3,0.4-0.5,0.5c-1,0.9-2.2,1.4-3.5,1.4l-0.2,0
	c-3,0-5.5-2.5-5.5-5.5C5,7.5,7.5,5,10.5,5S16,7.5,16,10.5C16,11.8,15.6,13.1,14.7,14.1z"/>
</svg>
