<?xml version="1.0" encoding="UTF-8"?>
<svg id="Camada_2" data-name="Camada 2" xmlns="http://www.w3.org/2000/svg" viewBox="0 0 32.45 38.42">
  <defs>
    <style>
      .cls-1 {
        fill: #fff;
        stroke-width: 0px;
      }
    </style>
  </defs>
  <g id="Camada_1-2" data-name="Camada 1">
    <path class="cls-1" d="m30.35,0c-.02.49-.04.97-.06,1.46-.2,4.14-3.42,7.35-7.56,7.53-1.07.05-2.15.01-3.23.02-.13,0-.27,0-.42,0v9.14c2.67.35,4.88,1.54,6.66,3.61,2.06-1.28,4.33-1.46,6.71-1.31-.06.12-.12.24-.18.36-2.63,5-5.25,10-7.87,15-.14.27-.3.36-.6.36-4.49-.01-8.98-.01-13.48,0-.23,0-.49.1-.67.23-.85.66-1.68,1.34-2.52,2.01-2.38-2.4-4.75-4.79-7.14-7.18.97-.89,1.96-1.81,2.95-2.72,1.2-1.1,2.4-2.2,3.58-3.31.23-.22.46-.34.76-.28.75.13,1.11-.14,1.44-.88,1.53-3.36,4.2-5.28,7.83-5.87.06,0,.12-.02.21-.03v-4.63c-1.04,0-2.06.04-3.08-.01-.81-.04-1.63-.11-2.41-.31-2.88-.71-5.27-3.43-5.63-6.37-.09-.75-.09-1.51-.14-2.32.2,0,.34,0,.47,0,1.65,0,3.3,0,4.95,0,2.19-.01,4.09.7,5.69,2.21.06.06.13.1.15.12.27-.78.45-1.59.81-2.32C18.83,1.98,20.87.51,23.66.07c.08-.01.16-.05.24-.07,2.15,0,4.3,0,6.46,0ZM7.31,35.4c.5-.4,1.01-.83,1.54-1.22.18-.13.44-.24.67-.24,4.32-.01,8.63-.01,12.95,0,.27,0,.42-.08.55-.32,1.79-3.43,3.59-6.86,5.39-10.29.05-.09.09-.19.15-.32-.07,0-.11,0-.14.01-1.71.55-3.09,1.56-3.98,3.12-.98,1.71-1.87,3.48-2.79,5.23-.12.23-.25.31-.52.31-2.6-.01-5.2,0-7.81,0-.12,0-.24-.01-.38-.02v-2.22h.42c2.14,0,4.28,0,6.42,0,.13,0,.33-.04.38-.13.38-.68.73-1.38,1.11-2.11-.14,0-.22-.02-.3-.02-4.33,0-8.66,0-12.99,0-.16,0-.36.09-.48.21-1.38,1.26-2.74,2.52-4.11,3.79-.06.06-.11.12-.14.15,1.35,1.37,2.69,2.71,4.05,4.08Zm16.61-12.32c-2.09-2.25-4.65-3.18-7.68-2.55-2.51.52-4.3,2.03-5.46,4.35.09.02.13.04.16.04,3.79,0,7.58,0,11.36,0,.1,0,.24-.07.3-.16.43-.53.84-1.08,1.31-1.68ZM27.93,2.25c-1.13,0-2.23-.02-3.33,0-1.63.03-3.01.67-4.1,1.88-.67.74-1.11,1.6-1.31,2.62,1.14,0,2.24,0,3.34,0,.26,0,.52-.04.78-.07,2.21-.28,4.23-2.2,4.62-4.43Zm-11.26,9.02c-.26-1.85-1.82-3.61-3.69-4.22-1.65-.54-3.34-.19-5.04-.32.03.17.04.28.07.38.57,1.89,1.77,3.19,3.64,3.83,1.64.56,3.34.2,5.02.32Z"/>
  </g>
</svg>