<?xml version="1.0" encoding="UTF-8"?>
<svg id="Camada_2" data-name="Camada 2" xmlns="http://www.w3.org/2000/svg" viewBox="0 0 117.53 40.54">
  <defs>
    <style>
      .cls-1 {
        fill: #c61b19;
      }

      .cls-1, .cls-2 {
        stroke-width: 0px;
      }

      .cls-2 {
        fill: #fff;
      }
    </style>
  </defs>
  <g id="Camada_3" data-name="Camada 3">
    <g>
      <rect class="cls-1" width="117.53" height="40.54" rx="2.06" ry="2.06"/>
      <g>
        <g>
          <path class="cls-2" d="m50.28,17.63v2.22h3.89v1.56h-3.89v3.06h-1.94v-8.4h6.34v1.56h-4.4Z"/>
          <path class="cls-2" d="m62.5,22.91v1.56h-6.5v-8.4h6.34v1.56h-4.41v1.82h3.9v1.51h-3.9v1.94h4.57Z"/>
          <path class="cls-2" d="m63.5,20.27c0-2.53,1.94-4.34,4.56-4.34,1.45,0,2.66.53,3.45,1.49l-1.25,1.15c-.56-.65-1.27-.98-2.11-.98-1.57,0-2.69,1.1-2.69,2.69s1.12,2.69,2.69,2.69c.84,0,1.55-.34,2.11-1l1.25,1.15c-.79.97-2,1.5-3.47,1.5-2.6,0-4.55-1.81-4.55-4.34Z"/>
          <path class="cls-2" d="m80.53,16.07v8.4h-1.94v-3.44h-3.81v3.44h-1.94v-8.4h1.94v3.31h3.81v-3.31h1.94Z"/>
          <path class="cls-2" d="m88.05,22.67h-3.9l-.74,1.8h-1.99l3.74-8.4h1.92l3.75,8.4h-2.04l-.74-1.8Zm-.61-1.48l-1.33-3.21-1.33,3.21h2.66Z"/>
          <path class="cls-2" d="m97.06,24.47l-1.62-2.34h-1.79v2.34h-1.94v-8.4h3.63c2.24,0,3.65,1.16,3.65,3.05,0,1.26-.64,2.18-1.73,2.65l1.88,2.7h-2.09Zm-1.82-6.81h-1.58v2.93h1.58c1.19,0,1.79-.55,1.79-1.46s-.6-1.46-1.79-1.46Z"/>
        </g>
        <path class="cls-2" d="m33.96,14.78l-2.21-2.21c-.25-.25-.64-.25-.89,0l-4.6,4.6-4.6-4.6c-.25-.25-.64-.25-.89,0l-2.21,2.21c-.25.25-.25.64,0,.89l4.6,4.6-4.6,4.6c-.25.25-.25.64,0,.89l2.21,2.21c.25.25.64.25.89,0l4.6-4.6,4.6,4.6c.25.25.64.25.89,0l2.21-2.21c.25-.25.25-.64,0-.89l-4.6-4.6,4.6-4.6c.25-.25.25-.64,0-.89Z"/>
      </g>
    </g>
  </g>
</svg>