<?xml version="1.0" encoding="UTF-8"?>
<svg id="Camada_2" data-name="Camada 2" xmlns="http://www.w3.org/2000/svg" viewBox="0 0 31.86 31.87">
  <defs>
    <style>
      .cls-1 {
        fill: #133d67;
        stroke-width: 0px;
      }
    </style>
  </defs>
  <g id="Camada_1-2" data-name="Camada 1">
    <path class="cls-1" d="m22.14,19.65c1.12,0,2.21-.03,3.31.01.56.02.84-.11.9-.73.12-1.27.29-2.53.47-3.79.07-.46-.11-.52-.5-.52-1.23.01-2.46,0-3.7,0-.34,0-.57-.05-.56-.44.02-1.03-.04-2.07.08-3.09.13-1.21.71-1.67,1.94-1.71.79-.03,1.58-.03,2.38,0,.41,0,.59-.11.58-.56-.03-1.12.01-2.24-.02-3.37,0-.2-.21-.55-.35-.56-2.05-.16-4.12-.5-6.13.31-1.78.72-2.99,2.01-3.3,3.89-.26,1.55-.21,3.15-.29,4.72-.01.24,0,.48,0,.84-.95,0-1.87,0-2.78,0q-1.4,0-1.4,1.38c0,.84,0,1.67,0,2.51,0,1.33,0,1.11,1.15,1.12.98.01,1.97,0,2.99,0v12.17c-.24.01-.46.04-.67.04-4.77,0-9.55,0-14.32,0-1.15,0-1.91-.74-1.91-1.88C0,20.64,0,11.32,0,1.99,0,.73.73,0,2.03,0c2.93,0,5.85,0,8.78,0,6.29,0,12.58,0,18.88,0,1.5,0,2.17.67,2.17,2.17,0,9.26,0,18.52,0,27.79,0,1.14-.71,1.88-1.83,1.89-2.42,0-4.84,0-7.26.02-.5,0-.71-.17-.71-.68.01-3.67,0-7.35.01-11.02,0-.15.04-.3.07-.51Z"/>
  </g>
</svg>