<?xml version="1.0" encoding="UTF-8"?>
<svg id="Camada_2" data-name="Camada 2" xmlns="http://www.w3.org/2000/svg" viewBox="0 0 33.34 33.16">
  <defs>
    <style>
      .cls-1 {
        fill: #133d67;
        stroke-width: 0px;
      }
    </style>
  </defs>
  <g id="Camada_1-2" data-name="Camada 1">
    <g>
      <path class="cls-1" d="m.03,16.56C.03,14.03-.04,11.5.05,8.98c.08-2.31,1-4.34,2.61-6.02C4.61.93,7.03,0,9.84,0c4.68.01,9.35-.02,14.03.01,2.36.01,4.43.82,6.21,2.4,1.88,1.66,2.99,3.73,3.15,6.22.12,1.87.08,3.74.09,5.62.01,3.13.02,6.26,0,9.4-.02,2.18-.7,4.15-2.07,5.87-1.58,1.99-3.66,3.12-6.14,3.53-.45.07-.91.1-1.37.1-4.69,0-9.38.02-14.07,0-2.46-.01-4.65-.79-6.49-2.45-1.76-1.6-2.89-3.58-3.05-5.95C-.03,22.46.03,20.17,0,17.89c0-.44,0-.89,0-1.33h.02ZM16.7,3.19s0-.02,0-.03c-2.34,0-4.67,0-7.01,0-3.67,0-6.51,2.86-6.51,6.52,0,4.63,0,9.25,0,13.88,0,1.72.62,3.21,1.81,4.45,1.3,1.36,2.93,1.97,4.78,1.99,3.24.02,6.49.01,9.73,0,1.57,0,3.14,0,4.71-.07,1.89-.07,3.37-.99,4.55-2.42.99-1.2,1.41-2.61,1.41-4.14,0-4.42,0-8.84,0-13.26,0-1.86-.48-3.52-1.79-4.9-1.14-1.2-2.52-1.96-4.16-2-2.51-.07-5.02-.02-7.53-.02Z"/>
      <path class="cls-1" d="m16.63,25.04c-4.75-.02-8.65-3.67-8.63-8.54.03-4.85,3.8-8.5,8.67-8.49,4.93,0,8.54,3.69,8.59,8.43.05,4.84-3.77,8.6-8.63,8.6Zm-5.54-8.52c-.12,2.89,2.51,5.5,5.58,5.47,3-.03,5.56-2.34,5.54-5.47-.02-3.04-2.25-5.43-5.57-5.45-3.19-.02-5.65,2.65-5.55,5.45Z"/>
      <path class="cls-1" d="m25.47,5.76c1.14,0,2.02.93,2.02,2.12,0,1.05-.94,1.95-2.04,1.95-1.13,0-2.06-.92-2.05-2.04.01-1.13.93-2.03,2.07-2.03Z"/>
    </g>
  </g>
</svg>