<?xml version="1.0" encoding="UTF-8"?>
<svg id="Camada_2" data-name="Camada 2" xmlns="http://www.w3.org/2000/svg" viewBox="0 0 33.45 33.46">
  <defs>
    <style>
      .cls-1 {
        fill: #133d67;
        stroke-width: 0px;
      }
    </style>
  </defs>
  <g id="Camada_1-2" data-name="Camada 1">
    <g>
      <path class="cls-1" d="m0,33.45c.29-1.09.57-2.13.85-3.17.44-1.63.89-3.26,1.31-4.89.05-.18.02-.42-.07-.58C.59,22.04-.18,19.08.06,15.94.6,8.98,4.07,3.9,10.58,1.32,17.17-1.29,23.25.01,28.44,4.87c2.73,2.55,4.32,5.78,4.84,9.49,1.14,8.18-3.65,15.82-11.54,18.31-4.34,1.37-8.57.96-12.65-1.07-.2-.1-.48-.14-.69-.09-2.71.63-5.42,1.27-8.13,1.92-.06.01-.13.01-.27.03Zm4.71-4.53c1.11-.26,2.18-.46,3.21-.78.89-.27,1.62-.15,2.46.3,3.54,1.92,7.25,2.2,11.02.79,6.32-2.36,9.81-8.85,8.36-15.44-1.16-5.27-5.72-9.77-11.81-10.3-3.53-.31-6.76.6-9.49,2.86-4.16,3.44-5.73,7.86-4.76,13.17.32,1.73,1.07,3.28,1.99,4.76.14.23.17.43.09.7-.36,1.29-.7,2.58-1.07,3.95Z"/>
      <path class="cls-1" d="m8.22,13.01c.02-1.42.59-2.58,1.61-3.54.45-.43,1.67-.62,2.22-.32.2.11.39.33.48.54.49,1.11.95,2.22,1.4,3.35.07.18.04.46-.06.63-.3.47-.63.92-.99,1.35-.35.43-.39.54-.11,1,1.35,2.24,3.22,3.87,5.66,4.85.37.15.65.1.9-.22.4-.51.83-1.01,1.22-1.53.24-.32.53-.42.89-.26,1.18.55,2.35,1.11,3.53,1.68.33.16.29.47.27.75-.15,1.99-1.66,3.4-3.68,3.47-1.16.04-2.23-.33-3.31-.67-3.53-1.12-6.04-3.51-8.11-6.46-.74-1.06-1.44-2.14-1.73-3.43-.09-.39-.12-.79-.18-1.19Z"/>
    </g>
  </g>
</svg>